<?xml version="1.0" encoding="UTF-8"?>
<svg version="1.1" xmlns="http://www.w3.org/2000/svg" width="401" height="382">
<path d="M0 0 C35.89591658 0.1102096 69.08412323 11.06640619 97.48876953 33.01220703 C98.37048828 33.67091797 99.25220703 34.32962891 100.16064453 35.00830078 C138.62050041 64.90209785 162.40124587 108.27561661 168.79467773 156.31054688 C169.57902525 163.22622239 169.7152247 170.15053644 169.87747192 177.10403442 C170.1265379 187.48147176 170.48916257 197.74466155 172.08642578 208.01611328 C172.49408781 211.05181013 172.55776959 213.95320442 172.48876953 217.01220703 C173.22482422 217.28935547 173.96087891 217.56650391 174.71923828 217.85205078 C183.37449148 221.47773513 191.52030277 227.85612496 195.65283203 236.42626953 C199.54162859 247.87459584 196.93894215 258.73062861 193.86376953 270.01220703 C193.46805084 271.49694388 193.07313889 272.98189594 192.67895508 274.46704102 C191.7976026 277.774702 190.90591085 281.0793955 190.00878906 284.3828125 C188.6127211 289.53333774 187.25172507 294.69274697 185.89373779 299.85342407 C184.6791771 304.4556801 183.4494843 309.05380735 182.21636963 313.65112305 C181.61033895 315.91841262 181.00899488 318.18696052 180.41253662 320.45678711 C179.56363259 323.67871927 178.69460684 326.89460798 177.82080078 330.10986328 C177.57406113 331.06280777 177.32732147 332.01575226 177.07310486 332.99757385 C174.27650409 343.117171 169.42714448 352.13128669 160.48876953 358.01220703 C153.46495624 361.87358562 146.89176863 362.41592204 139.05908203 361.95336914 C133.65215609 361.69656698 130.82577736 362.9156091 126.85595703 366.47705078 C126.36353516 366.96302734 125.87111328 367.44900391 125.36376953 367.94970703 C118.78200459 373.66245106 110.70939371 375.71541722 102.11376953 375.32470703 C93.80497577 374.33556492 87.4006133 370.95848872 81.48876953 365.01220703 C75.32215481 356.51998336 73.30472472 347.12236249 74.81307983 336.79083252 C75.2776986 334.57858421 75.80944522 332.39600876 76.37548828 330.20751953 C76.68936493 328.94022255 76.68936493 328.94022255 77.00958252 327.64732361 C77.71853141 324.80709037 78.44653969 321.97216738 79.17626953 319.13720703 C79.42821075 318.14252411 79.68015198 317.14784119 79.93972778 316.12301636 C87.10594605 287.83089162 95.00181792 259.72469616 102.82861328 231.60986328 C103.02921608 230.88814375 103.22981888 230.16642422 103.43650055 229.4228344 C104.57873463 225.31628976 105.73025174 221.2125354 106.89426804 217.11211014 C107.30867696 215.64833152 107.72043254 214.18380022 108.13014603 212.71870041 C108.77981632 210.39967712 109.43908036 208.08356364 110.1003418 205.76782227 C110.29673972 205.06026574 110.49313765 204.35270922 110.69548702 203.62371159 C113.08358301 195.34986914 117.44327606 190.476416 124.07080078 185.23876953 C126.10488184 183.47926139 126.46295654 182.31352402 126.69189453 179.64111328 C127.201542 146.30167458 114.35508423 112.97984823 92.48876953 88.01220703 C91.84294922 87.23361328 91.19712891 86.45501953 90.53173828 85.65283203 C71.27236882 62.9024567 40.79343247 48.52063894 11.48876953 45.01220703 C-24.12863095 42.6131352 -55.88787121 51.63378659 -83.03076172 75.19970703 C-85.55449979 77.43966646 -88.0378091 79.71693829 -90.51123047 82.01220703 C-91.10548828 82.54072266 -91.69974609 83.06923828 -92.31201172 83.61376953 C-116.31074312 105.95149089 -127.29178789 139.28118582 -130.51123047 171.01220703 C-130.60404297 171.82238281 -130.69685547 172.63255859 -130.79248047 173.46728516 C-131.92521477 182.58104793 -131.92521477 182.58104793 -128.41357422 190.66455078 C-125.83626274 192.79388498 -125.83626274 192.79388498 -123.08935547 194.37158203 C-113.97970459 200.16863259 -112.12379735 212.80909076 -109.68969727 222.65478516 C-109.4370108 223.65665359 -109.18432434 224.65852203 -108.92398071 225.69075012 C-108.09737713 228.97364952 -107.27891037 232.25851913 -106.46044922 235.54345703 C-105.8781236 237.86215421 -105.29525305 240.18071459 -104.71186829 242.49914551 C-103.1790074 248.59646091 -101.6528967 254.69544505 -100.12841797 260.79486084 C-98.29661512 268.11930624 -96.45765276 275.4419563 -94.61894703 282.76467133 C-93.1831122 288.48304984 -91.74848933 294.20171968 -90.31828308 299.92150879 C-90.05309781 300.97997765 -89.78791254 302.0384465 -89.51469135 303.12899017 C-88.988994 305.22869982 -88.46484805 307.32879855 -87.94231701 309.4292984 C-86.54049704 315.03534488 -85.08212408 320.62044586 -83.55264282 326.19311523 C-83.22837468 327.39125099 -82.90410654 328.58938675 -82.57001209 329.82382965 C-81.9499594 332.10707808 -81.3181453 334.38718091 -80.67195415 336.66316986 C-77.72843565 347.5711535 -76.76142254 357.89459249 -82.51123047 368.01220703 C-87.49518916 375.53441525 -94.07842398 379.20127153 -102.51123047 382.01220703 C-113.07184613 382.84991517 -120.89208808 381.68626167 -129.76123047 375.88720703 C-132.90570118 372.59980583 -135.00654362 369.17786866 -137.21435547 365.21923828 C-138.44837127 362.90745857 -138.44837127 362.90745857 -140.51123047 361.01220703 C-143.03732491 360.9708924 -145.49218556 361.02500077 -148.01123047 361.13720703 C-159.2858052 361.33670151 -165.84224924 358.15650949 -174.28466797 350.62158203 C-180.67518069 343.13234958 -182.4865769 333.55843332 -184.91748047 324.26220703 C-185.32743885 322.71994008 -185.73813815 321.1778699 -186.14953613 319.63598633 C-187.22762172 315.58689246 -188.29506124 311.53506498 -189.3604126 307.48260498 C-190.2212739 304.21491658 -191.08943531 300.94919071 -191.95807648 297.68356323 C-194.49851197 288.13240113 -197.0337035 278.57990849 -199.51123047 269.01220703 C-199.69993713 268.28497437 -199.8886438 267.5577417 -200.08306885 266.80847168 C-200.64644845 264.62884499 -201.20383882 262.44777568 -201.75927734 260.26611328 C-202.08569214 258.98937744 -202.41210693 257.7126416 -202.74841309 256.3972168 C-204.68949645 247.78363996 -203.7442499 239.52793412 -199.22216797 231.81298828 C-193.53640649 223.83163861 -187.11367876 219.5120099 -178.18310547 215.60205078 C-174.90186443 213.64961642 -174.06958293 212.50491965 -172.51123047 209.01220703 C-172.13789083 205.73390545 -172.23405415 202.49393334 -172.32373047 199.19970703 C-172.33509033 198.23556885 -172.3464502 197.27143066 -172.3581543 196.27807617 C-172.40671024 192.17658525 -172.48968067 188.07601446 -172.57275391 183.97509766 C-173.54140727 131.59984008 -153.99566753 86.18195284 -118.51123047 48.01220703 C-117.88861328 47.33544922 -117.26599609 46.65869141 -116.62451172 45.96142578 C-88.75225108 16.80365208 -46.39124012 1.63196944 -6.69482422 0.04736328 C-4.46318261 0.01746309 -2.2318164 0.01084881 0 0 Z M-116.02685547 68.78173828 C-118.27655043 71.46799993 -120.40838995 74.20970111 -122.51123047 77.01220703 C-123.708125 78.56101562 -123.708125 78.56101562 -124.92919922 80.14111328 C-145.71260832 107.61487783 -157.12491736 142.94746408 -156.63623047 177.32470703 C-156.62720703 178.55382812 -156.61818359 179.78294922 -156.60888672 181.04931641 C-156.585635 184.03716247 -156.5529617 187.02457187 -156.51123047 190.01220703 C-153.54123047 189.02220703 -150.57123047 188.03220703 -147.51123047 187.01220703 C-147.4715918 186.30427002 -147.43195313 185.59633301 -147.39111328 184.86694336 C-145.70862106 156.0949321 -141.31585226 130.50478604 -127.51123047 105.01220703 C-127.19428223 104.40924805 -126.87733398 103.80628906 -126.55078125 103.18505859 C-121.50172316 93.58949252 -115.46115704 85.29030773 -108.51123047 77.01220703 C-107.74681641 76.09310547 -106.98240234 75.17400391 -106.19482422 74.22705078 C-100.86339964 68.05633217 -94.99011982 62.94729853 -88.51123047 58.01220703 C-87.72039062 57.40094971 -87.72039062 57.40094971 -86.91357422 56.77734375 C-68.39870626 42.55744369 -47.37731222 34.22054821 -24.51123047 30.01220703 C-23.45677734 29.81755859 -22.40232422 29.62291016 -21.31591797 29.42236328 C15.42797779 25.46126569 55.41080711 34.57164568 84.88720703 57.60595703 C88.19622602 60.2914882 91.35568086 63.12490887 94.48876953 66.01220703 C94.99504883 66.46934082 95.50132812 66.92647461 96.02294922 67.39746094 C115.11441658 84.77842111 126.0593811 107.01219144 134.48876953 131.01220703 C134.74287598 131.70975098 134.99698242 132.40729492 135.25878906 133.12597656 C140.1360748 146.68001803 141.44817475 160.95859974 143.08740234 175.1875 C143.41254312 178.08290045 143.41254312 178.08290045 144.48876953 181.01220703 C147.78876953 181.67220703 151.08876953 182.33220703 154.48876953 183.01220703 C155.34125425 139.8046923 139.09231012 97.34358072 109.48876953 66.01220703 C108.33812927 64.66212245 107.19209993 63.30809114 106.05126953 61.94970703 C81.54273491 34.0990995 43.94064858 18.75721134 7.48876953 16.01220703 C-39.91521393 13.23497089 -84.37736715 33.93781403 -116.02685547 68.78173828 Z M130.40666199 200.82243347 C124.26741611 207.83198099 122.82721926 219.62578326 120.46923828 228.43017578 C120.0899345 229.83215644 119.71021339 231.23402425 119.33010864 232.63578796 C118.31594565 236.38086846 117.30774743 240.127528 116.30118179 243.87465668 C115.25116444 247.78135426 114.19719406 251.68698559 113.14379883 255.59277344 C111.85554445 260.37069769 110.56813474 265.14884559 109.28346252 269.92773438 C106.87526706 278.88414375 104.45064107 287.83578931 102.0030365 296.7815094 C100.59181809 301.93947238 99.18996096 307.0999664 97.78872681 312.26065063 C97.13418329 314.66454096 96.4763228 317.06753075 95.81503296 319.46957397 C94.90136339 322.79122162 94.00024733 326.11603509 93.10205078 329.44189453 C92.83425812 330.40334885 92.56646545 331.36480316 92.29055786 332.35539246 C90.68983169 338.34713628 89.17531759 344.40312007 91.37158203 350.43798828 C94.19976698 354.73362768 96.39297648 357.41352686 101.48876953 359.01220703 C106.82047455 359.6046187 110.16742593 359.12701847 114.84814453 356.57080078 C121.31794258 350.42449264 122.71197865 340.86942922 124.92236328 332.58251953 C125.35245072 330.99863806 125.78342001 329.41499583 126.2151947 327.83157349 C127.15072348 324.39407789 128.08023626 320.95502845 129.0055542 317.51477051 C130.53200828 311.84317083 132.07807038 306.17700653 133.62597656 300.51123047 C136.11018324 291.41139926 138.57862128 282.30740152 141.0359745 273.20028305 C142.44647533 267.97322386 143.86019368 262.74708335 145.28149414 257.52294922 C146.68758671 252.35455118 148.08591622 247.18411174 149.47872734 242.01211929 C150.00269484 240.07146905 150.52932001 238.13153412 151.05879402 236.192379 C151.79298979 233.50129572 152.51713217 230.80768992 153.23901367 228.11328125 C153.45347641 227.33617294 153.66793915 226.55906464 153.88890076 225.75840759 C156.78375753 215.1427013 156.78375753 215.1427013 154.92626953 204.63720703 C152.04330289 199.74998618 148.5015596 197.56114978 143.05126953 196.07470703 C137.91348344 195.98457043 134.28426624 197.45116585 130.40666199 200.82243347 Z M-154.83544922 208.52001953 C-158.40728522 213.90910542 -158.1062225 219.67861502 -157.00531769 225.84671021 C-156.27091938 229.12731237 -155.4667896 232.38327339 -154.63720703 235.64111328 C-154.33151794 236.87642792 -154.02582886 238.11174255 -153.71087646 239.38449097 C-152.877425 242.75058618 -152.03080914 246.1132374 -151.18122578 249.47529221 C-150.29024647 253.00880201 -149.41006277 256.54500209 -148.52825928 260.08081055 C-147.0459681 266.01718283 -145.55512054 271.95135569 -144.05908203 277.88427734 C-142.33462153 284.72349172 -140.62356436 291.56595168 -138.91971993 298.41032887 C-137.27432707 305.01863469 -135.61957556 311.62456284 -133.96056366 318.22946167 C-133.25750955 321.02911469 -132.55765074 323.82953693 -131.86042023 326.63064575 C-130.884133 330.55064923 -129.8941568 334.4670731 -128.90283203 338.38330078 C-128.6179895 339.53369843 -128.33314697 340.68409607 -128.03967285 341.86935425 C-124.74076158 354.82273839 -124.74076158 354.82273839 -116.51123047 365.01220703 C-112.81959814 366.8580232 -108.54928888 366.35723101 -104.51123047 366.01220703 C-99.94990356 364.18767627 -97.28424841 361.0176774 -94.51123047 357.01220703 C-92.57052498 350.12747049 -94.629206 344.01856384 -96.36352539 337.24316406 C-96.83647034 335.33210876 -96.83647034 335.33210876 -97.31896973 333.38244629 C-98.18134739 329.89997496 -99.05983221 326.42175519 -99.94177032 322.94419336 C-100.86512881 319.29364534 -101.77504057 315.63974529 -102.68684387 311.98629761 C-104.22067385 305.84926724 -105.76472949 299.71488094 -107.31518555 293.58203125 C-109.10289683 286.51030086 -110.87571307 279.434969 -112.64023322 272.35741913 C-114.34260842 265.53016396 -116.05437518 258.70529888 -117.77077675 251.88155746 C-118.49876976 248.986965 -119.22374345 246.09164177 -119.94627953 243.19568253 C-120.95848371 239.14131585 -121.9845147 235.09056948 -123.01196289 231.04003906 C-123.3077272 229.84909637 -123.60349152 228.65815369 -123.90821838 227.43112183 C-127.28333765 213.87344355 -127.28333765 213.87344355 -136.51123047 204.01220703 C-143.03871184 200.74846635 -150.27344597 203.32552616 -154.83544922 208.52001953 Z M-175.41357422 232.64892578 C-180.50550271 235.27796372 -184.34676831 237.39216717 -186.76123047 242.82470703 C-188.19496987 248.91809949 -187.43999552 254.15275659 -185.83056641 260.1340332 C-185.65167374 260.80828339 -185.47278107 261.48253357 -185.28846741 262.17721558 C-184.6993066 264.38890067 -184.09771624 266.59698434 -183.49560547 268.80517578 C-183.07854359 270.35808408 -182.66215286 271.91117278 -182.24639893 273.46443176 C-181.37405639 276.71628693 -180.49595724 279.96651097 -179.61328125 283.21557617 C-178.49094079 287.34732804 -177.37932043 291.48186269 -176.27163315 295.6175642 C-175.41157664 298.8263201 -174.5475482 302.03399546 -173.68219757 305.24132729 C-173.27163558 306.76350364 -172.86183931 308.28588676 -172.45287323 309.80849266 C-168.9821504 327.64439514 -168.9821504 327.64439514 -159.89794922 342.34033203 C-156.12560733 344.38693591 -152.88533697 345.82202849 -148.51123047 346.01220703 C-145.71055982 345.17734316 -145.71055982 345.17734316 -143.51123047 344.01220703 C-144.10422097 338.59797969 -145.02029402 333.4069444 -146.36547852 328.12524414 C-146.5510582 327.38073502 -146.73663788 326.63622589 -146.92784119 325.86915588 C-147.53835669 323.42479679 -148.15556223 320.98218251 -148.77294922 318.53955078 C-149.20593128 316.81255966 -149.63852591 315.08547136 -150.070755 313.35829163 C-150.97833043 309.735618 -151.88892846 306.11372336 -152.80200195 302.49243164 C-154.18103281 297.02312233 -155.55250841 291.55193546 -156.92333984 286.08056641 C-158.86518253 278.33308784 -160.8208194 270.58919394 -162.78562737 262.84750938 C-164.00815977 258.02351343 -165.20642408 253.19437563 -166.38867188 248.36035156 C-166.91502797 246.24556219 -167.44154114 244.1308119 -167.96826172 242.01611328 C-168.18971359 241.08451889 -168.41116547 240.1529245 -168.639328 239.19309998 C-169.16631163 237.1058889 -169.8240077 235.0522773 -170.51123047 233.01220703 C-173.32862384 231.73919548 -173.32862384 231.73919548 -175.41357422 232.64892578 Z M167.48876953 233.01220703 C163.41757229 247.1291129 159.47695245 261.27571322 155.65283203 275.46142578 C155.12338389 277.42203934 154.59387208 279.38263571 154.06430054 281.34321594 C152.96920962 285.39901536 151.87531255 289.45513441 150.78222656 293.51147461 C149.37948855 298.71625704 147.97297225 303.92001053 146.56553078 309.12352276 C145.47777024 313.14719749 144.39230065 317.17148751 143.30750656 321.19596291 C142.78916738 323.11758547 142.27002962 325.03899281 141.75008011 326.96018028 C141.02989276 329.62231233 140.31286962 332.28527654 139.59667969 334.94848633 C139.38168823 335.74051956 139.16669678 336.5325528 138.94519043 337.34858704 C137.87174865 341.1270332 137.87174865 341.1270332 137.48876953 345.01220703 C140.9624706 346.74905757 144.69067765 346.47335815 148.48876953 346.01220703 C154.08783401 343.15985343 157.54988803 339.44063287 159.81755066 333.57530212 C160.21110542 332.2804375 160.59207796 330.9816998 160.9621582 329.67993164 C161.17109553 328.97852775 161.38003286 328.27712385 161.59530163 327.55446529 C162.23946911 325.37725982 162.86611594 323.19565233 163.48876953 321.01220703 C163.77332693 320.0276396 163.77332693 320.0276396 164.06363297 319.02318192 C165.3797687 314.46712849 166.65402598 309.90026006 167.91455078 305.32861328 C168.10855154 304.62637068 168.3025523 303.92412807 168.50243187 303.20060539 C169.52377064 299.5017577 170.54153705 295.80194876 171.55639648 292.10131836 C172.59674423 288.31088743 173.65051644 284.52431957 174.70710468 280.73838902 C175.52719046 277.79006171 176.33702955 274.8389886 177.14418602 271.88709831 C177.52824628 270.48954246 177.91611768 269.09302752 178.30806923 267.69766426 C182.46181341 253.51681522 182.46181341 253.51681522 178.76220703 239.73876953 C175.84904221 235.78901845 172.14023087 234.04475125 167.48876953 233.01220703 Z " fill="#1A3762" transform="translate(203.51123046875,-0.012207031249999988)"/>
</svg>
