<?xml version="1.0" encoding="UTF-8"?>
<svg version="1.1" xmlns="http://www.w3.org/2000/svg" width="376" height="375">
<path d="M0 0 C2.08298099 -0.0057144 4.16595886 -0.01268276 6.24893188 -0.02079773 C11.86475423 -0.03862615 17.48041944 -0.03758027 23.0962615 -0.03185534 C27.80263472 -0.02874846 32.50897841 -0.03487255 37.21534741 -0.04089409 C48.32718406 -0.05490389 59.43894376 -0.05340766 70.55078125 -0.04199219 C81.97464135 -0.03051477 93.39826658 -0.0445886 104.82209575 -0.07138866 C114.66803436 -0.09361333 124.51389961 -0.10016782 134.35986149 -0.09431225 C140.22379953 -0.09095761 146.08758707 -0.09325784 151.95150375 -0.11056328 C157.46913019 -0.12613857 162.9864112 -0.12196041 168.50402451 -0.10325813 C170.51581765 -0.09960137 172.52763701 -0.10259442 174.53940582 -0.11314392 C202.66365206 -0.24923759 225.24858909 7.67958451 245.92236328 27.40405273 C246.59783203 27.9931543 247.27330078 28.58225586 247.96923828 29.18920898 C263.22639241 43.07321924 272.23821784 65.60019695 273.25117493 85.87228394 C273.33645624 88.03739509 273.41421625 90.20281031 273.48608398 92.3684082 C273.54787448 94.18404424 273.54787448 94.18404424 273.61091328 96.03635979 C274.11915084 112.68264823 274.08723184 129.33538953 274.08962035 145.98790598 C274.09034108 148.82246367 274.0924939 151.6570168 274.09511757 154.49157333 C274.10429479 164.42627002 274.10846101 174.3609535 274.10766602 184.2956543 C274.10706308 193.48901929 274.11767679 202.68232603 274.13340968 211.87567627 C274.14654361 219.83994095 274.15184767 227.80418666 274.15121061 235.76846206 C274.1509579 240.49481334 274.15368319 245.22111229 274.16438866 249.94745255 C274.17417277 254.38502639 274.17407938 258.82249879 274.16687202 263.26007652 C274.1658398 264.8715486 274.16810616 266.48302738 274.17423248 268.09448814 C274.2039056 276.45085541 273.933675 284.68680574 273.03999329 293.00021362 C272.96350939 293.72261549 272.88702549 294.44501736 272.8082239 295.18931019 C270.69830769 312.99694244 262.74182507 330.03203452 250.92236328 343.40405273 C250.25720703 344.2819043 250.25720703 344.2819043 249.57861328 345.17749023 C236.42175962 362.26535505 213.64746701 372.05032118 192.92236328 375.40405273 C189.83416687 375.65570206 186.76931441 375.68353245 183.67198181 375.67147827 C182.36021173 375.67827494 182.36021173 375.67827494 181.02194124 375.68520892 C178.12142441 375.69776563 175.22109746 375.69623822 172.32055664 375.69458008 C170.22846234 375.70057091 168.13637024 375.70737773 166.04428101 375.7149353 C160.3806773 375.73254905 154.71713411 375.73728882 149.05350566 375.73856688 C145.5078022 375.739992 141.96211394 375.74426852 138.41641426 375.74956131 C126.02556514 375.76804846 113.63475894 375.77623384 101.24389648 375.7746582 C89.72869688 375.77345816 78.21368511 375.79453699 66.698533 375.82614553 C56.78476301 375.85237989 46.87105409 375.86302246 36.9572497 375.86174738 C31.04851422 375.86123972 25.13994567 375.86681368 19.23124504 375.88810349 C13.66691616 375.90760599 8.10291137 375.9075288 2.5385704 375.89307022 C0.50903787 375.89099564 -1.5205156 375.89560129 -3.55001259 375.90779114 C-31.73836426 376.06598367 -54.35079865 368.18711184 -75.07763672 348.40405273 C-75.67962891 347.87682617 -76.28162109 347.34959961 -76.90185547 346.80639648 C-92.09785701 332.95642771 -101.28170221 310.77574993 -102.45062447 290.46722794 C-102.64832758 284.96102432 -102.63084991 279.45642819 -102.61108398 273.94750977 C-102.61815913 271.84777221 -102.62691077 269.74803974 -102.63719177 267.64831543 C-102.65951715 261.9952491 -102.65678563 256.34246497 -102.6478703 250.68937159 C-102.64272624 245.94828426 -102.65008056 241.20724839 -102.65734237 236.46616638 C-102.67428809 225.2707733 -102.67082964 214.0755167 -102.65405273 202.88012695 C-102.63713744 191.37782399 -102.65297027 179.87590074 -102.68527561 168.37363923 C-102.71207082 158.45288342 -102.71922077 148.53224508 -102.71076053 138.61145675 C-102.70586016 132.70609661 -102.70788912 126.80096467 -102.72854805 120.8956337 C-102.74706185 115.33850708 -102.74075665 109.78192151 -102.71634865 104.224823 C-102.71139015 102.20096982 -102.71469911 100.17707425 -102.7274971 98.15325546 C-102.89137048 69.98191772 -94.19954098 46.696668 -74.45263672 26.27905273 C-65.76409453 17.68251179 -55.80942811 11.24513187 -44.57763672 6.46655273 C-43.63754761 6.0608606 -43.63754761 6.0608606 -42.6784668 5.64697266 C-28.82171455 0.15820262 -14.66332211 -0.03664186 0 0 Z M-43.45263672 24.15405273 C-44.11199219 24.49694336 -44.77134766 24.83983398 -45.45068359 25.19311523 C-51.21791725 28.28855504 -56.24622583 31.98326809 -61.07763672 36.40405273 C-61.75955078 36.99444336 -62.44146484 37.58483398 -63.14404297 38.19311523 C-76.56144251 50.53397196 -85.50444803 69.72416588 -86.357481 87.87328529 C-86.51089815 93.18565338 -86.49523563 98.49745833 -86.48168945 103.81152344 C-86.48740183 105.84657158 -86.49436942 107.88161652 -86.50248718 109.91665649 C-86.52033926 115.41063412 -86.51926504 120.90445133 -86.5135448 126.39844918 C-86.51044095 131.0004328 -86.51655876 135.60238614 -86.52258354 140.20436543 C-86.53660151 151.06970054 -86.53509065 161.93495698 -86.52368164 172.80029297 C-86.51220721 183.97419687 -86.52627113 195.14786056 -86.55307811 206.32173282 C-86.57529877 215.94766014 -86.58185806 225.57351242 -86.5760017 235.19946355 C-86.57264565 240.9342917 -86.57495667 246.66896599 -86.59225273 252.40377235 C-86.60782121 257.80071784 -86.60365728 263.19731006 -86.58494759 268.5942421 C-86.58128876 270.56291452 -86.58429008 272.53161371 -86.59483337 274.50026131 C-86.66797188 289.29863622 -85.48770594 303.46307034 -78.32763672 316.77905273 C-77.98474609 317.4384082 -77.64185547 318.09776367 -77.28857422 318.77709961 C-74.19313441 324.54433327 -70.49842137 329.57264185 -66.07763672 334.40405273 C-65.48724609 335.0859668 -64.89685547 335.76788086 -64.28857422 336.47045898 C-52.18706454 349.62763228 -33.43687298 358.51297783 -15.64627075 359.61698914 C-11.62137756 359.73053022 -7.59990155 359.78597487 -3.57373047 359.81811523 C-2.04955627 359.8369332 -0.52539131 359.85651335 0.99876404 359.87680054 C4.20364933 359.91758467 7.40851966 359.95234762 10.61352539 359.98217773 C14.58387366 360.01913655 18.55401757 360.06575815 22.52421093 360.11651611 C46.65691527 360.42389224 70.78805701 360.46800648 94.92236328 360.40405273 C95.87682217 360.40176918 96.83128105 360.39948563 97.81466293 360.39713287 C110.08178851 360.36733651 122.34848605 360.31410942 134.61529827 360.22014046 C139.86993243 360.1802481 145.1243815 360.14817208 150.37915039 360.13305664 C155.60081871 360.11780874 160.82204579 360.08332564 166.04351616 360.03574371 C167.99238699 360.02113229 169.94132002 360.01302366 171.89024544 360.01216888 C186.75199062 359.9990269 201.00493077 358.8144511 214.35986328 351.59155273 C215.35493896 351.07117432 215.35493896 351.07117432 216.37011719 350.5402832 C221.69106429 347.68498193 226.45033036 344.480256 230.92236328 340.40405273 C231.74091797 339.67702148 232.55947266 338.94999023 233.40283203 338.20092773 C249.42133096 323.17601195 256.59907849 302.93151911 257.92236328 281.40405273 C258.06943742 275.31967561 258.06962818 269.23724406 258.06762695 263.15136719 C258.07062399 261.32351107 258.07402776 259.49565558 258.07780457 257.6678009 C258.08659384 252.72951554 258.08898055 247.79124753 258.08962035 242.8529551 C258.09033379 239.75970231 258.09247367 236.66645385 258.09511757 233.57320213 C258.10435454 222.75908506 258.10845456 211.94498026 258.10766602 201.13085938 C258.10706582 191.08745944 258.11761047 181.04411332 258.13340968 171.000727 C258.1465321 162.34724563 258.15184794 153.69378176 258.15121061 145.04029053 C258.15095698 139.88562415 258.1537328 134.73100563 258.16438866 129.57634926 C258.17414903 124.72287632 258.17409505 119.86949624 258.16687202 115.01601982 C258.16583594 113.24730415 258.16813007 111.47858246 258.17423248 109.70987701 C258.25718182 83.97592171 254.45584056 61.41363177 236.92236328 41.40405273 C236.03291016 40.37151367 236.03291016 40.37151367 235.12548828 39.31811523 C223.53377451 26.78519394 205.0426347 17.28776471 187.91583014 16.28677988 C181.89759439 16.08390031 175.87636746 16.10998425 169.85546875 16.11352539 C167.82086441 16.10753423 165.78626233 16.10072734 163.75166321 16.09317017 C158.24514609 16.07556074 152.7386912 16.07081686 147.23214865 16.06953859 C143.78494852 16.06811333 140.33776402 16.06383659 136.89056778 16.05854416 C124.84451551 16.04005914 112.79850739 16.03187145 100.75244141 16.03344727 C89.55645662 16.03464757 78.36066495 16.013563 67.164729 15.98195994 C57.52613135 15.95573073 47.8875965 15.94508278 38.24896348 15.94635808 C32.50401963 15.94686585 26.75924747 15.94128575 21.01433945 15.92000198 C15.6051373 15.90050792 10.1962686 15.90057098 4.78705406 15.91503525 C2.81354085 15.9171108 0.84000615 15.91249827 -1.13347054 15.90031433 C-15.95047591 15.81483807 -30.1187151 16.9843375 -43.45263672 24.15405273 Z " fill="#1A3762" transform="translate(102.07763671875,-0.404052734375)"/>
<path d="M0 0 C6.03964923 3.47395287 12.11609611 6.88023854 18.19921875 10.27734375 C26.21248571 14.75424513 34.21359472 19.25132366 42.19921875 23.77734375 C50.55040302 28.50823541 58.93053486 33.1848183 67.32421875 37.83984375 C69.58986895 39.10021512 71.8554941 40.36063152 74.12109375 41.62109375 C78.53828901 44.07708508 82.96623181 46.51196096 87.40234375 48.93359375 C89.45980595 50.06870138 91.51710536 51.20410412 93.57421875 52.33984375 C94.50814453 52.84322266 95.44207031 53.34660156 96.40429688 53.86523438 C102.77919954 57.40684697 108.42590758 61.37741659 112.26171875 67.71484375 C113.61568658 74.03336031 113.57396999 79.70512635 110.23022461 85.38598633 C105.16525838 92.42452162 95.79107388 96.3149068 88.38671875 100.33984375 C87.19004092 100.99652512 85.99375888 101.65392819 84.79785156 102.31201172 C82.34244226 103.66288614 79.88575299 105.01138697 77.42822266 106.35839844 C71.95843108 109.36081154 66.51615349 112.4123128 61.07421875 115.46484375 C59.53326538 116.32819336 59.53326538 116.32819336 57.96118164 117.20898438 C50.1241628 121.60271794 42.30200233 126.02246444 34.48291016 130.44799805 C25.41189326 135.5794467 16.31980104 140.67285856 7.22265625 145.7578125 C3.34927709 147.92361804 -0.52033914 150.09585841 -4.38504028 152.27711487 C-6.1163489 153.25412985 -7.84845312 154.22973457 -9.58056641 155.20532227 C-11.76130541 156.43383813 -13.94073415 157.66468365 -16.11865234 158.89819336 C-17.10172363 159.45128174 -18.08479492 160.00437012 -19.09765625 160.57421875 C-19.9597168 161.06116211 -20.82177734 161.54810547 -21.70996094 162.04980469 C-27.65225059 165.15862236 -32.50075053 166.18465233 -39.17578125 165.33984375 C-44.80559659 163.36727588 -48.19628054 159.54453342 -51.26495647 154.57653618 C-52.46195094 151.63710311 -52.43068223 149.22639125 -52.43647766 146.05276489 C-52.44356247 144.76015747 -52.45064728 143.46755005 -52.45794678 142.13577271 C-52.45565299 140.70526088 -52.4531433 139.27474939 -52.45043945 137.84423828 C-52.45478717 136.33615873 -52.45997052 134.82808138 -52.46592712 133.32000732 C-52.47932299 129.22490573 -52.47989507 125.1298964 -52.47736382 121.03477716 C-52.47629436 117.61532278 -52.48117693 114.19588707 -52.48596925 110.77643669 C-52.49706678 102.7082027 -52.49750066 94.64001527 -52.49145508 86.57177734 C-52.48541616 78.2511379 -52.49772362 69.93066759 -52.51902515 61.610057 C-52.53664566 54.46428319 -52.54264174 47.3185632 -52.5393874 40.17276847 C-52.53757488 35.90584394 -52.54020745 31.63904001 -52.55410194 27.37213516 C-52.56668277 23.35838051 -52.56473388 19.34488925 -52.55169106 15.33113861 C-52.54932615 13.85977718 -52.55205693 12.3883972 -52.56031418 10.91705704 C-52.57078969 8.90502566 -52.56087387 6.89291918 -52.55000305 4.88088989 C-52.55017079 3.75596697 -52.55033854 2.63104404 -52.55051136 1.47203255 C-51.79968773 -4.80374115 -48.76295482 -8.60373531 -43.9921875 -12.3984375 C-29.98177071 -22.13040443 -12.12300583 -6.98415943 0 0 Z M-34.17578125 0.33984375 C-36.4270904 2.16798454 -36.4270904 2.16798454 -36.42187691 4.85045815 C-36.42003332 5.91789442 -36.41818974 6.9853307 -36.41629028 8.08511353 C-36.41903961 9.30791519 -36.42178894 10.53071686 -36.42462158 11.79057312 C-36.41754285 13.15286352 -36.41027322 14.51515294 -36.40283203 15.87744141 C-36.40226813 17.30628959 -36.40258407 18.73513836 -36.40371704 20.16398621 C-36.40429237 24.05015792 -36.392509 27.93620691 -36.37856913 31.82235003 C-36.36609173 35.88093988 -36.36489364 39.93953235 -36.36251831 43.99813843 C-36.35629472 51.68690554 -36.33987206 59.37561599 -36.31981933 67.06435812 C-36.29748762 75.8163461 -36.28647378 84.56833675 -36.27642846 93.32034612 C-36.25550656 111.32687749 -36.22031357 129.33335607 -36.17578125 147.33984375 C-31.56064756 148.45700487 -29.81604381 148.04108179 -25.66015625 145.6484375 C-24.05019775 144.7366272 -24.05019775 144.7366272 -22.40771484 143.80639648 C-21.24696892 143.13021959 -20.08632713 142.45386393 -18.92578125 141.77734375 C-17.71518094 141.08587375 -16.50374131 140.39587131 -15.29150391 139.70727539 C-12.79688334 138.28809674 -10.30655473 136.86179686 -7.81933594 135.4296875 C-2.42490409 132.32823628 3.01461311 129.30763206 8.44921875 126.27734375 C10.51204075 125.12166832 12.57454051 123.96541751 14.63671875 122.80859375 C18.80204088 120.47284982 22.96873175 118.13957907 27.13671875 115.80859375 C38.19174537 109.62515797 49.24116524 103.43221069 60.25952148 97.18359375 C65.23942245 94.35993411 70.22880116 91.55528248 75.234375 88.77734375 C76.2847998 88.19154541 77.33522461 87.60574707 78.41748047 87.00219727 C80.43043012 85.88009775 82.44624379 84.76311551 84.46533203 83.65209961 C85.37138184 83.14557861 86.27743164 82.63905762 87.2109375 82.1171875 C88.00717529 81.67624756 88.80341309 81.23530762 89.6237793 80.78100586 C92.02177731 79.21045418 93.8684104 77.42676463 95.82421875 75.33984375 C94.33435548 71.33444338 92.22885177 70.1164397 88.53125 68.125 C87.43796387 67.5280835 86.34467773 66.93116699 85.21826172 66.31616211 C84.02443627 65.6781811 82.83058804 65.04024272 81.63671875 64.40234375 C80.40572023 63.7337768 79.1754216 63.0639197 77.94580078 62.39282227 C75.43964072 61.02545221 72.93122398 59.66236475 70.42138672 58.30175781 C65.31147251 55.52371996 60.25476482 52.65281627 55.19921875 49.77734375 C47.25462581 45.27340416 39.29514829 40.79700477 31.32421875 36.33984375 C23.31296512 31.85954923 15.31223896 27.3614296 7.32421875 22.83984375 C3.49131524 20.67241612 -0.34220498 18.50608116 -4.17578125 16.33984375 C-5.28211914 15.71416504 -6.38845703 15.08848633 -7.52832031 14.44384766 C-10.9506336 12.51006235 -14.37542033 10.58072454 -17.80078125 8.65234375 C-18.86232422 8.05164063 -19.92386719 7.4509375 -21.01757812 6.83203125 C-22.01080078 6.27386719 -23.00402344 5.71570313 -24.02734375 5.140625 C-24.90213379 4.64731689 -25.77692383 4.15400879 -26.67822266 3.64575195 C-29.12929845 2.36414839 -31.59077408 1.3188551 -34.17578125 0.33984375 Z " fill="#EFA252" transform="translate(168.17578125,112.66015625)"/>
</svg>
