<?xml version="1.0" standalone="no"?>
<!DOCTYPE svg PUBLIC "-//W3C//DTD SVG 20010904//EN"
 "http://www.w3.org/TR/2001/REC-SVG-20010904/DTD/svg10.dtd">
<svg version="1.0" xmlns="http://www.w3.org/2000/svg"
 width="524.000000pt" height="523.000000pt" viewBox="0 0 524.000000 523.000000"
 preserveAspectRatio="xMidYMid meet">
<metadata>
Created by potrace 1.16, written by Peter Selinger 2001-2019
</metadata>
<g transform="translate(0.000000,523.000000) scale(0.100000,-0.100000)"
fill="#000000" stroke="none">
<path d="M0 3938 c1 -1103 3 -1287 14 -1255 18 48 40 73 91 101 39 20 52 21
380 21 187 0 357 -4 378 -8 45 -10 105 -60 123 -104 17 -39 18 -111 3 -150
-18 -48 -70 -93 -126 -109 -43 -13 -109 -14 -385 -11 -235 2 -342 7 -363 16
-43 18 -75 50 -96 96 -18 39 -19 12 -19 -1247 l0 -1288 2620 0 2620 0 0 2615
0 2615 -2620 0 -2620 0 0 -1292z m2723 1252 c20 -14 46 -43 59 -65 23 -40 23
-42 23 -400 0 -355 0 -361 -23 -402 -34 -65 -91 -98 -167 -98 -76 0 -133 33
-167 98 -22 41 -23 51 -26 365 -4 364 2 413 51 469 44 50 80 64 153 60 45 -2
71 -9 97 -27z m-1775 -681 c43 -11 69 -34 299 -262 217 -216 255 -258 274
-304 21 -53 22 -57 6 -107 -32 -101 -134 -159 -236 -134 -42 10 -70 35 -295
257 -160 159 -255 260 -267 286 -25 54 -24 113 4 165 26 50 56 75 113 95 48
17 45 17 102 4z m3427 0 c114 -31 174 -150 130 -257 -10 -24 -97 -119 -248
-270 -269 -270 -309 -299 -397 -282 -59 11 -77 20 -107 52 -51 54 -67 149 -38
212 9 18 129 145 268 283 211 209 259 252 292 261 54 13 54 13 100 1z m-1565
-564 c201 -30 387 -101 549 -209 314 -209 520 -526 586 -901 20 -116 20 -333
0 -448 -86 -487 -430 -887 -902 -1048 -155 -52 -232 -64 -428 -64 -234 0 -373
30 -579 124 -250 114 -501 360 -630 619 -148 295 -178 667 -80 992 97 321 327
606 624 775 255 145 573 204 860 160z m2254 -1145 c100 -16 166 -89 166 -185
0 -96 -66 -169 -166 -185 -82 -14 -620 -13 -684 1 -59 13 -116 57 -136 106
-18 42 -18 115 0 157 18 43 80 93 131 105 54 12 615 13 689 1z m-815 -1544
c243 -240 271 -277 271 -351 0 -122 -123 -217 -240 -185 -40 10 -76 42 -299
263 -139 139 -259 266 -267 284 -30 69 -7 170 49 222 15 13 50 32 79 42 l52
17 60 -30 c49 -24 108 -76 295 -262z m-2813 251 c42 -22 81 -69 94 -115 14
-51 13 -56 -15 -115 -19 -40 -80 -107 -272 -298 -219 -217 -253 -247 -294
-258 -153 -42 -288 121 -219 264 12 25 111 132 267 287 228 226 252 247 293
255 52 10 101 4 146 -20z m1274 -526 c41 -21 76 -68 91 -123 6 -25 9 -160 7
-372 l-3 -332 -25 -49 c-67 -129 -263 -129 -330 0 l-25 49 0 356 c0 348 0 356
22 397 50 93 163 125 263 74z"/>
<path d="M2472 3568 c-371 -53 -693 -342 -794 -713 -31 -116 -31 -365 0 -480
46 -168 166 -366 288 -474 118 -105 271 -186 420 -223 126 -31 332 -31 458 0
338 84 598 335 702 677 26 83 28 103 28 260 0 156 -3 177 -27 258 -99 322
-333 562 -642 660 -140 44 -288 56 -433 35z"/>
</g>
</svg>
