<?xml version="1.0" encoding="UTF-8"?>
<svg version="1.1" xmlns="http://www.w3.org/2000/svg" width="467" height="469">
<path d="M0 0 C13.32104103 10.01537649 26.78310669 26.48299737 31.421875 42.70703125 C33.38553849 46.37086345 36.7344582 47.44964023 40.39453125 49.17578125 C59.22315555 58.605051 78.41322296 72.35658245 85.64453125 92.98828125 C88.48368487 102.12378914 87.21116055 111.73972968 83.19140625 120.2421875 C80.75603021 124.56559497 77.95410071 128.29949029 74.64453125 131.98828125 C74.02578125 132.68824219 73.40703125 133.38820312 72.76953125 134.109375 C64.0196146 143.44144336 53.31891171 148.46398906 40.64453125 149.98828125 C38.32855935 149.85012674 36.01462277 149.66626795 33.70703125 149.42578125 C30.55235099 149.15860723 30.55235099 149.15860723 27.64453125 149.98828125 C24.85202471 152.94770659 22.93038766 156.06378111 20.84765625 159.53515625 C11.5005909 174.90179857 -11.08520458 182.4676123 -27.35546875 187.98828125 C-26.41623781 192.33996699 -25.45919429 196.67367345 -24.28515625 200.96875 C-19.36702993 219.95131047 -18.77820755 242.06543075 -24.35546875 260.98828125 C-23.20046875 261.19453125 -22.04546875 261.40078125 -20.85546875 261.61328125 C-0.71025556 266.16730119 18.66614073 276.13823974 30.23828125 293.6875 C34.64453125 300.89661458 34.64453125 300.89661458 34.64453125 303.98828125 C35.54171875 303.941875 36.43890625 303.89546875 37.36328125 303.84765625 C53.12907132 303.391621 67.22313853 306.21562293 79.140625 317.3125 C88.81856657 327.4354044 93.17554772 338.27272918 92.95703125 352.23046875 C92.52262486 357.4542056 91.16614401 361.427245 88.64453125 365.98828125 C88.24363281 366.72175781 87.84273438 367.45523437 87.4296875 368.2109375 C79.63533631 381.02078423 66.39406315 392.11251603 52.48046875 397.7578125 C40.85022305 402.53559159 37.10838885 408.68382453 31.74609375 419.83496094 C29.08038637 425.0458517 25.37829379 429.5052687 21.64453125 433.98828125 C21.2259082 434.49584961 20.80728516 435.00341797 20.37597656 435.52636719 C12.43026754 445.05061588 2.41005493 455.01699348 -10.35546875 456.98828125 C-23.26601561 458.04740192 -32.9462298 456.42042313 -43.12890625 447.96484375 C-54.90985157 437.50667124 -62.37342231 426.91893066 -64.35546875 410.98828125 C-64.26262927 408.65223916 -64.12084912 406.31734788 -63.91796875 403.98828125 C-63.67625018 400.85795727 -63.67625018 400.85795727 -64.35546875 397.98828125 C-67.55563941 394.56740916 -71.37571731 392.40890032 -75.35546875 389.98828125 C-88.46675285 379.88808771 -95.27610441 362.20955517 -100.35546875 346.98828125 C-100.35546875 346.32828125 -100.35546875 345.66828125 -100.35546875 344.98828125 C-101.35964844 345.32601563 -102.36382812 345.66375 -103.3984375 346.01171875 C-127.00350653 353.79479176 -151.28341801 354.23367477 -175.35546875 347.98828125 C-175.55849609 348.79265625 -175.55849609 348.79265625 -175.765625 349.61328125 C-181.20783583 369.42683924 -190.52893301 388.90840365 -208.35546875 399.98828125 C-215.43782169 403.98828125 -215.43782169 403.98828125 -218.35546875 403.98828125 C-218.32066406 404.83648437 -218.28585938 405.6846875 -218.25 406.55859375 C-217.89117963 422.10747635 -220.74889054 436.5776221 -231.60546875 448.3671875 C-241.1466259 457.2055362 -252.40677078 462.38524501 -265.42578125 462.1953125 C-278.1118284 461.29883184 -288.33309408 453.87162287 -296.88671875 444.8984375 C-304.01007164 436.50144715 -318.35546875 419.22897283 -318.35546875 407.98828125 C-319.21398437 407.72660156 -320.0725 407.46492188 -320.95703125 407.1953125 C-341.20101882 400.00520657 -359.86125485 383.26092231 -369.04296875 364.08984375 C-372.49119893 355.94134742 -372.60603221 346.7846099 -369.85546875 338.36328125 C-364.1664064 324.67770468 -353.57646897 314.58048496 -340.41015625 308.1796875 C-333.21473728 305.37329008 -326.99886357 304.71064817 -319.35546875 304.86328125 C-318.48535156 304.87230469 -317.61523438 304.88132812 -316.71875 304.890625 C-314.59753455 304.91393506 -312.47646313 304.94979546 -310.35546875 304.98828125 C-310.01322266 303.68697266 -310.01322266 303.68697266 -309.6640625 302.359375 C-308.19118587 298.56506893 -306.16537192 295.96933256 -303.41796875 293.05078125 C-302.92852783 292.52718018 -302.43908691 292.0035791 -301.93481445 291.46411133 C-297.2836721 286.6520968 -292.24958082 283.16263682 -286.35546875 279.98828125 C-285.26234375 279.39402344 -284.16921875 278.79976563 -283.04296875 278.1875 C-275.01983586 274.00580016 -266.93798405 270.81868523 -258.35546875 267.98828125 C-258.78859375 266.11076172 -258.78859375 266.11076172 -259.23046875 264.1953125 C-264.22501263 240.9466883 -263.69023508 218.11354065 -258.35546875 194.98828125 C-259.60199219 194.58738281 -260.84851563 194.18648437 -262.1328125 193.7734375 C-281.41719492 187.40437107 -301.84271805 179.53855827 -312.35546875 160.98828125 C-312.67773438 160.05628906 -313 159.12429687 -313.33203125 158.1640625 C-314.37874108 155.18136499 -315.13846731 153.26047774 -317.35546875 150.98828125 C-322.0472228 149.97758593 -326.56559122 150.02787141 -331.34570312 150.04101562 C-342.18482715 149.75660712 -352.79435422 144.63121181 -360.60546875 137.30078125 C-370.10441055 127.06064892 -375.09392821 116.23484221 -374.69921875 102.22265625 C-373.32372857 89.28054413 -365.14118897 78.16369308 -355.35546875 69.98828125 C-347.32466062 63.88486707 -338.78792765 58.89625942 -329.63476562 54.67578125 C-322.3559311 51.26266822 -319.55091418 46.88800917 -315.79296875 40.11328125 C-305.79527585 22.63515159 -292.67138814 5.81823336 -273.1484375 -1.3515625 C-263.35037475 -3.66746824 -253.24846769 -2.74441363 -244.35546875 1.98828125 C-241.10836278 4.08062523 -238.22602912 6.40794297 -235.35546875 8.98828125 C-234.65421875 9.60832031 -233.95296875 10.22835938 -233.23046875 10.8671875 C-228.131682 15.64730008 -224.61025055 20.8256223 -221.35546875 26.98828125 C-220.77796875 28.08140625 -220.20046875 29.17453125 -219.60546875 30.30078125 C-217.09670523 37.70163362 -216.09752064 45.03891036 -216.91796875 52.80078125 C-217.10028128 55.49373233 -217.10028128 55.49373233 -216.35546875 57.98828125 C-213.89480929 60.43084763 -211.28238384 62.13747237 -208.36328125 64.00390625 C-192.34085655 74.57454489 -184.96062231 96.48609647 -179.35546875 113.98828125 C-179.35546875 114.64828125 -179.35546875 115.30828125 -179.35546875 115.98828125 C-178.48148438 115.72273438 -177.6075 115.4571875 -176.70703125 115.18359375 C-154.71841758 108.86820576 -132.60504865 108.55405206 -110.35546875 113.98828125 C-110.25242432 113.38459717 -110.14937988 112.78091309 -110.04321289 112.15893555 C-106.74868959 94.20940415 -98.53293019 71.31548651 -83.35546875 59.98828125 C-78.20467379 56.67310215 -72.8326314 53.72686258 -67.35546875 50.98828125 C-67.31808594 49.73273437 -67.28070313 48.4771875 -67.2421875 47.18359375 C-66.60502223 29.70780875 -66.60502223 29.70780875 -63.35546875 21.98828125 C-63.10152344 21.32183594 -62.84757812 20.65539062 -62.5859375 19.96875 C-57.92372461 9.17540782 -47.93082416 0.13224033 -37.18359375 -4.328125 C-23.68499821 -8.87518711 -12.0892056 -7.67236198 0 0 Z M-48.35546875 18.98828125 C-54.03046533 28.10310952 -55.74678486 36.37926662 -55.35546875 46.98828125 C-49.21142483 46.36346322 -43.14595063 45.50747299 -37.0546875 44.48828125 C-25.06587431 42.8678292 -13.17699669 42.86754431 -1.10546875 42.92578125 C0.71874877 42.93080798 2.54296763 42.93536881 4.3671875 42.93945312 C8.79300257 42.95036186 13.21875168 42.96756131 17.64453125 42.98828125 C12.9427065 28.35912319 1.9197583 14.72085876 -11.35546875 6.98828125 C-25.57867372 1.39861704 -39.28200696 7.11488809 -48.35546875 18.98828125 Z M-285.35546875 19.98828125 C-285.92523438 20.47683594 -286.495 20.96539062 -287.08203125 21.46875 C-291.32055269 25.37582308 -294.68913907 29.93296952 -298.10546875 34.55078125 C-298.57774902 35.18822266 -299.0500293 35.82566406 -299.53662109 36.48242188 C-299.98730957 37.10439453 -300.43799805 37.72636719 -300.90234375 38.3671875 C-301.30291992 38.91963135 -301.70349609 39.4720752 -302.11621094 40.04125977 C-303.73990392 42.59227465 -305.0357404 45.27010978 -306.35546875 47.98828125 C-305.07196533 47.9725708 -303.78846191 47.95686035 -302.46606445 47.94067383 C-297.59601394 47.88540126 -292.72598953 47.85158624 -287.85571289 47.82348633 C-285.76810001 47.80861706 -283.68051708 47.7883156 -281.59301758 47.76196289 C-267.22557645 47.58544169 -253.51075492 48.49971728 -239.35546875 50.98828125 C-238.08936768 51.20653564 -236.8232666 51.42479004 -235.51879883 51.6496582 C-233.1255785 52.07277657 -230.73894382 52.513819 -228.35546875 52.98828125 C-227.66620362 42.82162051 -229.99039811 32.73713996 -236.66796875 24.82421875 C-237.22484375 24.21835937 -237.78171875 23.6125 -238.35546875 22.98828125 C-238.95359375 22.29992188 -239.55171875 21.6115625 -240.16796875 20.90234375 C-246.26286962 14.2913424 -253.80923959 9.33224168 -263.0078125 8.796875 C-271.9345057 9.52467528 -278.85794831 14.17536546 -285.35546875 19.98828125 Z M-53.35546875 58.98828125 C-49.93650346 77.63718285 -39.99194317 93.25889883 -27.35546875 106.98828125 C-26.05802734 108.426875 -26.05802734 108.426875 -24.734375 109.89453125 C-13.63120403 121.6411252 3.18941738 133.95956858 19.64453125 135.98828125 C29.33411581 115.0620356 29.95950603 76.93320559 22.64453125 54.98828125 C17.23183225 54.08781891 11.99405966 53.81458791 6.51171875 53.78515625 C5.6451767 53.77827789 4.77863464 53.77139954 3.88583374 53.76431274 C1.09702331 53.74718893 -1.69160851 53.74085632 -4.48046875 53.73828125 C-5.42555298 53.7366095 -6.37063721 53.73493774 -7.34436035 53.73321533 C-30.71853597 53.68849959 -30.71853597 53.68849959 -53.35546875 58.98828125 Z M-296.73046875 58.73828125 C-297.9429126 58.81208008 -299.15535645 58.88587891 -300.40454102 58.96191406 C-301.53045654 59.04795898 -302.65637207 59.13400391 -303.81640625 59.22265625 C-304.81462402 59.29709961 -305.8128418 59.37154297 -306.84130859 59.44824219 C-309.76324688 60.07587158 -310.5279614 60.67477412 -312.35546875 62.98828125 C-312.92810529 65.1663004 -312.92810529 65.1663004 -313.03027344 67.58227539 C-313.09452515 68.47230255 -313.15877686 69.36232971 -313.22497559 70.27932739 C-313.42105156 74.34973797 -313.53714602 78.40928158 -313.55859375 82.484375 C-313.56429382 83.35739761 -313.5699939 84.23042023 -313.5758667 85.12989807 C-313.58524408 86.9676902 -313.59182145 88.80549859 -313.59570312 90.64331055 C-313.60533676 93.38817504 -313.63640078 96.13226577 -313.66796875 98.87695312 C-313.74264901 111.55962733 -313.40474015 124.84046706 -309.35546875 136.98828125 C-283.7050737 133.18612092 -259.82431964 115.167325 -244.55224609 94.69384766 C-238.13737797 85.55180997 -233.27972469 75.78553396 -230.35546875 64.98828125 C-252.00726216 57.68833126 -274.06700274 57.2559942 -296.73046875 58.73828125 Z M35.64453125 60.98828125 C35.71671875 62.23738281 35.78890625 63.48648438 35.86328125 64.7734375 C37.22793376 89.71773418 37.05513246 113.53236379 31.64453125 137.98828125 C44.3601342 138.71875206 53.40935494 135.16956117 63.03125 126.94921875 C69.31417911 121.07130491 73.98620525 114.57357316 75.64453125 105.98828125 C75.64453125 94.54958047 69.85099426 86.54127832 62.23828125 78.421875 C56.40460159 72.8078369 44.09900477 60.98828125 35.64453125 60.98828125 Z M-65.35546875 62.98828125 C-82.59950833 72.84654653 -90.19967811 86.89686972 -96.41796875 105.17578125 C-96.88505249 106.53944824 -96.88505249 106.53944824 -97.36157227 107.93066406 C-97.63928467 108.78885742 -97.91699707 109.64705078 -98.203125 110.53125 C-98.45070557 111.2946167 -98.69828613 112.0579834 -98.95336914 112.84448242 C-99.40951189 115.27641287 -99.26635103 116.69502682 -98.35546875 118.98828125 C-96.02774421 120.29710327 -96.02774421 120.29710327 -93.10546875 121.23828125 C-66.72551347 131.52833473 -47.47490528 152.54508527 -34.35546875 176.98828125 C-28.00732616 175.80864556 -22.3485822 173.97885503 -16.48046875 171.30078125 C-15.69889404 170.94773926 -14.91731934 170.59469727 -14.11206055 170.23095703 C-2.22201969 164.74248959 8.2885116 158.62954401 14.64453125 146.98828125 C13.74734375 146.65957031 12.85015625 146.33085937 11.92578125 145.9921875 C-3.74198061 140.09076296 -17.08159961 132.40525632 -29.35546875 120.98828125 C-30.67998047 119.78558594 -30.67998047 119.78558594 -32.03125 118.55859375 C-38.86241342 112.07801881 -44.19010686 104.81056492 -49.35546875 96.98828125 C-49.99484375 96.03308594 -50.63421875 95.07789063 -51.29296875 94.09375 C-56.43610564 85.88539537 -59.50751181 77.01080399 -62.59692383 67.88256836 C-63.39021153 65.71338948 -63.39021153 65.71338948 -65.35546875 62.98828125 Z M-332.91796875 69.55078125 C-333.86361694 70.09496704 -333.86361694 70.09496704 -334.82836914 70.65014648 C-345.85637832 77.11357766 -357.89784665 85.81299335 -362.17578125 98.40234375 C-364.19299497 106.64993909 -362.79169369 112.79449864 -358.66796875 120.11328125 C-352.89338974 129.08822935 -345.99373457 134.9710226 -335.515625 137.73828125 C-330.39409904 138.7499407 -325.58278866 139.05918201 -320.35546875 138.98828125 C-320.56042969 137.81652344 -320.76539063 136.64476562 -320.9765625 135.4375 C-321.24892245 133.85029893 -321.521045 132.26305711 -321.79296875 130.67578125 C-321.92767578 129.90943359 -322.06238281 129.14308594 -322.20117188 128.35351562 C-323.84705021 118.67896249 -324.50901603 109.09649372 -324.453125 99.2890625 C-324.45171005 98.32800095 -324.4502951 97.36693939 -324.44883728 96.37675476 C-324.4433055 93.35139659 -324.43076648 90.3261165 -324.41796875 87.30078125 C-324.41294491 85.23112087 -324.40838356 83.16145932 -324.40429688 81.09179688 C-324.39335856 76.05726225 -324.37614237 71.02278492 -324.35546875 65.98828125 C-327.61580478 65.98828125 -330.15541044 67.96034885 -332.91796875 69.55078125 Z M-220.35546875 70.98828125 C-220.68417969 71.89707031 -221.01289063 72.80585937 -221.3515625 73.7421875 C-232.83993354 104.51431454 -255.71493653 127.22550875 -285.2578125 141.2265625 C-291.73510372 144.12789833 -298.52694922 146.0995418 -305.35546875 147.98828125 C-298.01699151 164.49140058 -286.3766832 171.88348969 -269.87890625 178.66796875 C-264.44674033 180.70352538 -258.93662891 182.41220612 -253.35546875 183.98828125 C-252.73800781 182.828125 -252.12054688 181.66796875 -251.484375 180.47265625 C-237.90276712 155.27786783 -218.20662072 131.11597288 -190.35546875 120.98828125 C-191.62431145 114.5543516 -193.40126363 108.76119823 -195.98046875 102.73828125 C-196.50833984 101.5021106 -196.50833984 101.5021106 -197.046875 100.2409668 C-201.6089916 89.8229839 -207.03877657 78.9562275 -216.35546875 71.98828125 C-218.48948948 71.26031767 -218.48948948 71.26031767 -220.35546875 70.98828125 Z M-176.35546875 126.98828125 C-176.13930908 127.95612549 -175.92314941 128.92396973 -175.70043945 129.92114258 C-171.69655648 147.9446282 -167.95580688 165.94336425 -165.41796875 184.23828125 C-165.26625717 185.32890366 -165.26625717 185.32890366 -165.11148071 186.44155884 C-164.1163437 193.66623505 -163.19599249 200.88908073 -162.59936523 208.15917969 C-162.44375086 210.08260994 -162.44375086 210.08260994 -161.35546875 211.98828125 C-162.01546875 211.65828125 -162.67546875 211.32828125 -163.35546875 210.98828125 C-165.52248886 210.70593457 -167.69597174 210.4727639 -169.87109375 210.26171875 C-171.26385414 210.11996558 -172.65650911 209.97717395 -174.04907227 209.83349609 C-174.79053497 209.75750183 -175.53199768 209.68150757 -176.29592896 209.60321045 C-199.91439979 207.14957843 -223.09492823 202.6822165 -246.35546875 197.98828125 C-247.00668705 200.65373289 -247.65154036 203.32047181 -248.29296875 205.98828125 C-248.56657227 207.10396484 -248.56657227 207.10396484 -248.84570312 208.2421875 C-253.14005069 226.20036821 -252.775795 246.51382807 -246.35546875 263.98828125 C-240.8384997 263.43266233 -235.6177734 262.39592479 -230.23632812 261.07128906 C-218.18435309 258.10528522 -206.0927812 255.77307376 -193.85546875 253.73828125 C-193.11663452 253.61385651 -192.37780029 253.48943176 -191.61657715 253.36123657 C-180.56603967 251.5100089 -169.50062438 250.13162614 -158.35546875 248.98828125 C-160.20230467 267.03389077 -162.32179198 284.98494123 -165.41796875 302.86328125 C-165.54157776 303.58287018 -165.66518677 304.30245911 -165.7925415 305.04385376 C-167.19780169 313.17239038 -168.7922634 321.21952312 -170.80249023 329.22314453 C-171.33682648 331.89506167 -171.4600136 334.27259698 -171.35546875 336.98828125 C-163.03367442 338.91990942 -154.89816728 340.55980734 -146.35546875 340.98828125 C-145.65679687 341.02953125 -144.958125 341.07078125 -144.23828125 341.11328125 C-131.67730856 341.49248043 -115.70929873 339.66519624 -104.35546875 333.98828125 C-104.68417969 332.63476562 -104.68417969 332.63476562 -105.01953125 331.25390625 C-106.16151602 326.50558897 -107.26339242 321.74830073 -108.35546875 316.98828125 C-108.58572754 315.98587402 -108.81598633 314.9834668 -109.05322266 313.95068359 C-113.08430824 296.22850653 -116.1541147 278.49416344 -118.81835938 260.52734375 C-119.605956 255.33779799 -120.4714751 250.16217323 -121.35546875 244.98828125 C-102.1513821 246.76913137 -83.04786842 248.78107154 -64.04296875 252.11328125 C-62.94594131 252.30509979 -62.94594131 252.30509979 -61.82675171 252.50079346 C-55.56657332 253.60372546 -49.31937041 254.73433167 -43.125 256.16796875 C-39.34700759 257.13004114 -39.34700759 257.13004114 -35.35546875 256.98828125 C-30.62070071 234.46994992 -31.76257903 213.80338573 -39.35546875 191.98828125 C-45.97767671 192.64814539 -52.22354807 194.10810222 -58.66796875 195.73828125 C-79.01468984 200.73659603 -99.51970868 204.30188839 -120.33203125 206.67871094 C-122.55279686 206.96010243 -122.55279686 206.96010243 -125.35546875 207.98828125 C-123.50813127 190.03824037 -121.54589759 172.12820711 -118.73046875 154.30078125 C-118.57452744 153.30606812 -118.57452744 153.30606812 -118.41543579 152.29125977 C-117.49850206 146.47842376 -116.56417987 140.69668044 -115.20703125 134.96875 C-114.41138072 131.58743356 -114.17657592 128.47669153 -114.35546875 124.98828125 C-135.5131113 120.32971775 -155.54765944 120.96554021 -176.35546875 126.98828125 Z M-103.35546875 129.98828125 C-107.79296795 153.21907765 -107.79296795 153.21907765 -111.23046875 176.61328125 C-111.35010986 177.56976563 -111.46975098 178.52625 -111.59301758 179.51171875 C-112.1635823 184.37491554 -112.39810377 189.08375742 -112.35546875 193.98828125 C-101.67136072 193.53372874 -91.55080981 191.90027677 -81.10546875 189.73828125 C-79.95840958 189.5055098 -79.95840958 189.5055098 -78.78817749 189.26803589 C-67.50515684 186.97812613 -56.35078884 184.43126027 -45.35546875 180.98828125 C-53.6931643 158.13221037 -76.38369427 141.35110893 -97.26953125 130.765625 C-99.60915557 129.75548147 -99.60915557 129.75548147 -103.35546875 129.98828125 Z M-220.10546875 154.36328125 C-227.11012331 161.67526983 -232.86708579 169.83661587 -237.98046875 178.55078125 C-238.33568604 179.14656982 -238.69090332 179.7423584 -239.05688477 180.35620117 C-240.14958093 182.22595495 -240.14958093 182.22595495 -241.35546875 184.98828125 C-241.02546875 185.97828125 -240.69546875 186.96828125 -240.35546875 187.98828125 C-238.02641854 188.89539375 -238.02641854 188.89539375 -235.109375 189.41796875 C-233.97741699 189.65370605 -232.84545898 189.88944336 -231.67919922 190.13232422 C-230.43799316 190.37354004 -229.19678711 190.61475586 -227.91796875 190.86328125 C-226.00975342 191.24637451 -226.00975342 191.24637451 -224.06298828 191.63720703 C-199.37386088 196.88642774 -199.37386088 196.88642774 -174.35546875 198.98828125 C-177.0719433 176.47443023 -180.67366726 153.9690478 -186.35546875 131.98828125 C-197.21701913 131.98828125 -212.80531757 147.36677588 -220.10546875 154.36328125 Z M-108.35546875 256.98828125 C-106.35779848 272.71587434 -103.63822149 288.18536421 -100.29296875 303.67578125 C-100.12152344 304.47873627 -99.95007813 305.28169128 -99.7734375 306.10897827 C-99.27593714 308.42857965 -98.76884559 310.74584615 -98.2578125 313.0625 C-98.11097519 313.74493774 -97.96413788 314.42737549 -97.81285095 315.13049316 C-96.73071824 319.93937941 -95.16296218 324.40165085 -93.35546875 328.98828125 C-85.16140303 325.38071692 -78.33292297 320.56250265 -71.35546875 314.98828125 C-70.25525391 314.12203125 -70.25525391 314.12203125 -69.1328125 313.23828125 C-56.17518559 302.52183434 -44.97017805 285.90476154 -39.35546875 269.98828125 C-39.85046875 268.99828125 -39.85046875 268.99828125 -40.35546875 267.98828125 C-42.79781352 267.20108908 -42.79781352 267.20108908 -45.8125 266.62109375 C-47.55587646 266.25504028 -47.55587646 266.25504028 -49.33447266 265.8815918 C-51.23205322 265.50127808 -51.23205322 265.50127808 -53.16796875 265.11328125 C-54.46138184 264.8500708 -55.75479492 264.58686035 -57.08740234 264.31567383 C-74.02380616 260.92475233 -91.13788356 258.39331538 -108.35546875 256.98828125 Z M-184.68359375 263.08984375 C-185.7316922 263.26534004 -185.7316922 263.26534004 -186.80096436 263.44438171 C-189.07029575 263.8275166 -191.3379574 264.21952662 -193.60546875 264.61328125 C-194.37826172 264.74600433 -195.15105469 264.87872742 -195.94726562 265.01547241 C-218.92401843 268.87258451 -218.92401843 268.87258451 -241.35546875 274.98828125 C-234.15790992 298.60745488 -213.01230139 316.85361966 -192.29296875 328.74609375 C-188.91110312 330.57116375 -188.91110312 330.57116375 -185.35546875 331.98828125 C-184.36546875 331.65828125 -183.37546875 331.32828125 -182.35546875 330.98828125 C-181.45073044 328.85703292 -181.45073044 328.85703292 -180.92578125 326.1796875 C-180.69004395 325.13852783 -180.45430664 324.09736816 -180.21142578 323.0246582 C-179.97020996 321.87827881 -179.72899414 320.73189941 -179.48046875 319.55078125 C-179.22507324 318.36895264 -178.96967773 317.18712402 -178.70654297 315.96948242 C-176.61868897 305.96652866 -174.97519442 295.9078105 -173.48046875 285.80078125 C-173.37124084 285.06949005 -173.26201294 284.33819885 -173.1494751 283.58474731 C-171.55871338 272.83425016 -171.55871338 272.83425016 -171.35546875 261.98828125 C-175.93483086 261.86425319 -180.16879912 262.33164709 -184.68359375 263.08984375 Z M-28.35546875 271.98828125 C-28.81695312 273.11363281 -29.2784375 274.23898437 -29.75390625 275.3984375 C-36.54061832 291.54009357 -45.15230312 304.48098688 -57.35546875 316.98828125 C-57.93554688 317.63023437 -58.515625 318.2721875 -59.11328125 318.93359375 C-67.39549502 327.88171416 -78.54827519 334.56262897 -89.35546875 339.98828125 C-88.0916444 346.67518259 -86.13106909 352.37371117 -83.16796875 358.48828125 C-82.76723145 359.32198242 -82.36649414 360.15568359 -81.95361328 361.01464844 C-79.04043095 366.92447872 -75.89880981 372.17275847 -71.35546875 376.98828125 C-70.73414063 377.66375 -70.1128125 378.33921875 -69.47265625 379.03515625 C-65.94308963 382.79737038 -65.94308963 382.79737038 -61.35546875 384.98828125 C-61.14978271 384.47031982 -60.94409668 383.9523584 -60.73217773 383.41870117 C-54.95601596 368.98870567 -48.38181944 356.95586152 -38.35546875 344.98828125 C-37.80246094 344.29992187 -37.24945313 343.6115625 -36.6796875 342.90234375 C-31.89220897 337.12080643 -26.29281447 332.55101136 -20.35546875 327.98828125 C-19.58589844 327.39144531 -18.81632812 326.79460937 -18.0234375 326.1796875 C-6.82752767 317.9210351 5.50759803 311.84644508 18.86328125 308.05859375 C19.78109375 307.70539063 20.69890625 307.3521875 21.64453125 306.98828125 C23.00234961 304.09156928 23.00234961 304.09156928 21.60546875 301.90234375 C18.57908613 297.53421514 15.65518656 293.5214776 11.64453125 289.98828125 C11.15210938 289.54226563 10.6596875 289.09625 10.15234375 288.63671875 C0.86833527 280.92067614 -16.21243912 271.98828125 -28.35546875 271.98828125 Z M-293.40234375 299.91015625 C-297.03449795 303.42368712 -297.03449795 303.42368712 -298.35546875 307.98828125 C-297.43507813 308.32859375 -296.5146875 308.66890625 -295.56640625 309.01953125 C-280.52380369 314.71712239 -268.1837211 322.09940037 -256.35546875 332.98828125 C-255.48148438 333.77976562 -254.6075 334.57125 -253.70703125 335.38671875 C-239.24359609 349.12013825 -228.90175127 366.17087531 -223.34448242 385.26293945 C-222.76431537 387.19817902 -222.06900536 389.09814593 -221.35546875 390.98828125 C-218.40396907 392.35521198 -218.40396907 392.35521198 -215.90234375 390.8359375 C-198.87461519 379.96768058 -192.35466443 363.55397395 -186.35546875 344.98828125 C-188.62064378 342.21786272 -191.28304962 340.96489294 -194.49487305 339.49145508 C-221.46371678 327.10488279 -240.04373819 305.46881904 -252.35546875 278.98828125 C-265.92228753 278.98828125 -283.99582854 291.01556023 -293.40234375 299.91015625 Z M-350.75390625 329.98828125 C-357.57789821 338.50994926 -360.49193722 346.06481368 -359.35546875 356.98828125 C-356.90983938 365.11254273 -351.23981928 371.10393072 -345.35546875 376.98828125 C-344.43121094 377.91253906 -344.43121094 377.91253906 -343.48828125 378.85546875 C-337.14986637 384.75862767 -328.61224754 391.23602165 -320.35546875 393.98828125 C-320.46375 392.456875 -320.46375 392.456875 -320.57421875 390.89453125 C-322.25632719 365.37010425 -321.90190515 340.80753771 -315.35546875 315.98828125 C-329.1624856 315.72104867 -341.12281424 319.76380442 -350.75390625 329.98828125 Z M38.64453125 315.98828125 C38.84949219 317.17164063 39.05445313 318.355 39.265625 319.57421875 C39.53793904 321.17054246 39.81006428 322.76689838 40.08203125 324.36328125 C40.21673828 325.13800781 40.35144531 325.91273438 40.49023438 326.7109375 C42.08016801 336.09542382 42.79485104 345.29164962 42.7421875 354.80859375 C42.74077255 355.7932663 42.7393576 356.77793884 42.73789978 357.79244995 C42.7323574 360.89942625 42.71981608 364.00632718 42.70703125 367.11328125 C42.70200879 369.23567603 42.6974472 371.35807196 42.69335938 373.48046875 C42.68240692 378.64976808 42.66518291 383.81901194 42.64453125 388.98828125 C53.83775148 383.70518644 53.83775148 383.70518644 64.01953125 376.73828125 C64.59550049 376.27429932 65.17146973 375.81031738 65.76489258 375.33227539 C73.59401292 368.79203514 80.49860014 360.44692015 81.64453125 349.98828125 C81.4208943 340.83232144 77.69606327 333.39774937 71.56640625 326.7265625 C63.7523576 319.3360025 55.60595982 315.81866696 44.89453125 315.92578125 C43.13882812 315.93931641 43.13882812 315.93931641 41.34765625 315.953125 C40.455625 315.96472656 39.56359375 315.97632813 38.64453125 315.98828125 Z M-304.35546875 317.98828125 C-304.99541752 320.00443053 -305.61627656 322.02663691 -306.23046875 324.05078125 C-306.57851563 325.17613281 -306.9265625 326.30148437 -307.28515625 327.4609375 C-310.38993369 339.39920628 -310.69228679 351.55496746 -310.60546875 363.80078125 C-310.60336395 364.53964569 -310.60125916 365.27851013 -310.59909058 366.0397644 C-311.92777086 384.05417603 -311.92777086 384.05417603 -307.35546875 399.98828125 C-297.40141359 401.67020555 -286.98169353 401.22831728 -276.91796875 401.23828125 C-276.02894867 401.239953 -275.13992859 401.24162476 -274.22396851 401.24334717 C-252.30818744 401.5654928 -252.30818744 401.5654928 -231.35546875 395.98828125 C-237.27461139 368.91041232 -255.62627113 344.25130082 -278.80151367 329.27075195 C-286.85284461 324.28819616 -295.2072098 320.45831117 -304.35546875 317.98828125 Z M15.20703125 320.48828125 C14.15684814 320.88877686 14.15684814 320.88877686 13.08544922 321.29736328 C1.75534896 325.77468342 -8.16215289 331.97928949 -17.35546875 339.98828125 C-18.24878906 340.73722656 -19.14210938 341.48617188 -20.0625 342.2578125 C-33.30673731 353.72380256 -46.44220938 370.57889901 -50.35546875 387.98828125 C-50.02546875 388.97828125 -49.69546875 389.96828125 -49.35546875 390.98828125 C-46.78580401 391.85681595 -44.36503227 392.52625729 -41.73046875 393.11328125 C-41.03050781 393.28214844 -40.33054687 393.45101562 -39.609375 393.625 C-32.14968568 395.38266335 -24.91670899 396.14574504 -17.265625 396.15625 C-16.40343857 396.1595784 -15.54125214 396.1629068 -14.65293884 396.16633606 C-12.83170094 396.17137911 -11.01045387 396.1737452 -9.18920898 396.17358398 C-6.45735605 396.17575002 -3.7259212 396.19387706 -0.99414062 396.21289062 C9.72209923 396.24609721 20.04793728 395.64297366 30.64453125 393.98828125 C34.89923853 369.48099427 33.89957442 342.04934729 27.64453125 317.98828125 C23.09724244 317.63916119 19.39125488 318.88518856 15.20703125 320.48828125 Z M-52.35546875 401.98828125 C-52.86070123 412.78926157 -50.71805554 421.18001545 -44.35546875 429.98828125 C-43.63359375 430.99890625 -42.91171875 432.00953125 -42.16796875 433.05078125 C-37.03380067 438.95991809 -29.16500585 444.56296649 -21.35546875 445.98828125 C-10.97239076 446.5365626 -2.97633019 441.83330758 4.58203125 435.11328125 C13.49033406 426.84169643 20.43436823 416.92721148 25.64453125 405.98828125 C24.30092529 406.09221191 24.30092529 406.09221191 22.93017578 406.19824219 C13.45891094 406.88621567 4.01669976 407.22634037 -5.48046875 407.23828125 C-6.19348145 407.239953 -6.90649414 407.24162476 -7.64111328 407.24334717 C-22.94118854 407.24548214 -37.46346339 405.41643497 -52.35546875 401.98828125 Z M-243 409.83398438 C-256.51123993 412.16940106 -269.94069296 412.11331217 -283.60546875 412.05078125 C-285.5260405 412.04575527 -287.44661352 412.04119431 -289.3671875 412.03710938 C-294.02997993 412.02619292 -298.69270994 412.00898905 -303.35546875 411.98828125 C-296.19146443 426.71626532 -287.285774 442.56026334 -271.35546875 448.98828125 C-264.22173292 451.36619319 -257.83086792 450.60331632 -251.10546875 447.36328125 C-241.4205529 442.00086989 -235.19483546 435.83718741 -231.54296875 425.23828125 C-229.95638972 419.51590072 -230.08212859 413.88028033 -230.35546875 407.98828125 C-234.57900177 407.98828125 -238.84419039 409.08651087 -243 409.83398438 Z " fill="#1A3762" transform="translate(374.35546875,7.01171875)"/>
</svg>
