<?xml version="1.0" encoding="UTF-8"?>
<svg version="1.1" xmlns="http://www.w3.org/2000/svg" width="300" height="251">
<path d="M0 0 C13.01431057 -0.46758002 26.06885621 2.29045795 37.671875 8.15625 C38.64382812 8.63707031 39.61578125 9.11789063 40.6171875 9.61328125 C58.30960322 19.10620927 70.2111638 34.24908146 76.671875 53.15625 C79.18393165 61.92489026 80.12924394 70.1914426 80.10546875 79.2890625 C80.1107106 80.48755829 80.11595245 81.68605408 80.12135315 82.92086792 C80.12772734 85.43340282 80.12649676 87.94596775 80.11791992 90.45849609 C80.10938033 94.27886338 80.13828697 98.09774736 80.16992188 101.91796875 C80.17153361 104.37499956 80.17095688 106.83203298 80.16796875 109.2890625 C80.17920273 110.41643829 80.19043671 111.54381409 80.20201111 112.70535278 C80.09930586 124.51166 76.54235796 133.97427566 68.546875 142.71875 C60.18061784 150.8162837 49.33639106 153.47526343 38.01196289 153.41503906 C37.18644424 153.4185437 36.3609256 153.42204834 35.51039124 153.42565918 C32.80501681 153.43439918 30.09990794 153.42865429 27.39453125 153.421875 C25.49938406 153.423224 23.6042372 153.42516649 21.70909119 153.42767334 C17.74588715 153.43061425 13.78277356 153.42636074 9.81958008 153.41699219 C4.75817431 153.40560613 -0.30301911 153.41215837 -5.36441708 153.42413712 C-9.2756559 153.43139032 -13.18684502 153.4290518 -17.0980854 153.42388153 C-18.96346627 153.42255419 -20.82885175 153.42416041 -22.69422722 153.42884064 C-25.30921118 153.43396213 -27.92385919 153.42611704 -30.53881836 153.41503906 C-31.29805603 153.41908752 -32.0572937 153.42313599 -32.83953857 153.42730713 C-44.74064514 153.33465739 -53.83814619 149.52665823 -62.640625 141.46875 C-68.70176684 135.11313973 -72.41863876 126.39021198 -72.50512695 117.63769531 C-72.51796219 116.50511292 -72.53079742 115.37253052 -72.54402161 114.20562744 C-72.55140854 112.97761414 -72.55879547 111.74960083 -72.56640625 110.484375 C-72.574478 109.2146283 -72.58254974 107.94488159 -72.59086609 106.63665771 C-72.60471588 103.93986363 -72.61572645 101.24319204 -72.62329102 98.54638672 C-72.63208512 95.807549 -72.65279823 93.06922959 -72.68481445 90.33056641 C-73.02110257 60.91736686 -73.02110257 60.91736686 -68.328125 49.15625 C-68.03059326 48.39183594 -67.73306152 47.62742188 -67.42651367 46.83984375 C-59.14693248 27.67656215 -43.2675713 13.37399515 -24.328125 5.15625 C-16.39128049 2.16599568 -8.42532647 0.56545815 0 0 Z M-41.328125 33.15625 C-41.95203125 33.74664062 -42.5759375 34.33703125 -43.21875 34.9453125 C-47.2750165 39.09293636 -49.94519353 43.78706343 -52.578125 48.90625 C-52.9076416 49.53732666 -53.2371582 50.16840332 -53.57666016 50.81860352 C-59.86354172 63.64159086 -59.79966998 76.51017599 -59.71923828 90.50219727 C-59.70311281 93.84627771 -59.71916822 97.18915871 -59.73828125 100.53320312 C-59.73629948 102.6822943 -59.73245717 104.83138474 -59.7265625 106.98046875 C-59.73263519 107.96818771 -59.73870789 108.95590668 -59.7449646 109.97355652 C-59.6590165 118.53161678 -58.19146582 126.1603359 -52.19921875 132.5859375 C-44.6257474 138.94196147 -36.3180874 140.30786514 -26.70556641 140.30151367 C-25.59699028 140.30655159 -25.59699028 140.30655159 -24.46601868 140.31169128 C-22.03722424 140.32114411 -19.60849916 140.32314149 -17.1796875 140.32421875 C-15.48106865 140.32743511 -13.78245007 140.33079946 -12.08383179 140.33430481 C-8.52821206 140.34028179 -4.97261658 140.34214617 -1.41699219 140.34155273 C3.12441538 140.34145116 7.66566646 140.35510522 12.20703697 140.37232494 C15.71418971 140.3834785 19.22130501 140.38547092 22.72847366 140.38494301 C24.40210128 140.38611799 26.07573003 140.39051255 27.74934006 140.39827538 C30.09651204 140.40814398 32.44334922 140.40517049 34.79052734 140.39916992 C35.47234573 140.40478943 36.15416412 140.41040894 36.85664368 140.41619873 C45.06199174 140.36326674 52.27849947 138.38719361 58.671875 133.15625 C65.80390637 125.6455267 66.98281715 118.20281316 66.97265625 108.19140625 C66.97908394 106.76495033 66.97908394 106.76495033 66.98564148 105.30967712 C66.9913661 103.30012809 66.99189886 101.29055834 66.98754883 99.28100586 C66.98441695 96.25922608 67.00777371 93.23845386 67.03320312 90.21679688 C67.10628315 67.99051965 63.86481432 49.15627902 48.671875 32.15625 C36.37612845 20.00183387 20.25686505 13.95482028 3.171875 13.78125 C-14.74475387 13.96341144 -28.69165815 20.38535265 -41.328125 33.15625 Z " fill="#1A3762" transform="translate(146.328125,97.84375)"/>
<path d="M0 0 C9.41464001 7.78977829 16.6250718 19.05948753 17.828125 31.41064453 C18.35915733 40.284574 18.32712121 49.05889833 14.62109375 57.28515625 C14.21890625 58.18492188 13.81671875 59.0846875 13.40234375 60.01171875 C7.4194817 72.07715721 -2.40151739 80.77227312 -15.19140625 85.09765625 C-28.59310714 88.62663078 -42.01909695 87.7058364 -54.37890625 81.28515625 C-66.00974108 73.84142196 -74.36512945 63.36629898 -78.01953125 49.9296875 C-80.07472084 34.80617281 -78.03271787 21.60869772 -69.34765625 8.8203125 C-62.13282301 -0.47021681 -51.55626167 -7.41125956 -39.84765625 -9.46875 C-25.25389232 -10.92350811 -12.05279364 -8.6883028 0 0 Z M-57.37890625 17.28515625 C-64.27623107 26.20634398 -65.31764777 35.18453778 -64.37890625 46.28515625 C-63.51776377 49.6612262 -62.23298425 52.34760143 -60.37890625 55.28515625 C-59.76015625 56.31189453 -59.76015625 56.31189453 -59.12890625 57.359375 C-53.40133343 65.90191969 -45.32323192 70.85544214 -35.32421875 72.9140625 C-26.16133701 74.06853699 -17.48973009 71.88226475 -9.92578125 66.55859375 C-2.28170679 60.20540604 2.84064031 52.07099348 3.9921875 42.05859375 C4.20738558 31.04551564 2.06061349 22.54264554 -5.56640625 14.34765625 C-13.70216454 6.85133047 -22.25772457 3.86062201 -33.15625 4.01953125 C-43.45932277 4.86875422 -50.52720645 9.77796893 -57.37890625 17.28515625 Z " fill="#1A3762" transform="translate(180.37890625,9.71484375)"/>
<path d="M0 0 C11.14086814 9.42137724 18.14952366 22.07323683 20.8125 36.375 C21.10527925 39.88548209 21.14006998 43.38084717 21.1484375 46.90234375 C21.1584227 48.38487389 21.1584227 48.38487389 21.16860962 49.89735413 C21.1786867 51.97736768 21.18342818 54.05741324 21.18310547 56.13745117 C21.18748251 59.29986267 21.22386617 62.46088129 21.26171875 65.62304688 C21.26758737 67.65364111 21.27155646 69.68424191 21.2734375 71.71484375 C21.28780853 72.64948959 21.30217957 73.58413544 21.31698608 74.54710388 C21.25214877 83.97201914 17.9886215 90.81683167 11.6015625 97.65234375 C3.9301847 105.03897608 -3.82846861 105.67784229 -13.93359375 105.5703125 C-15.4502639 105.56606766 -15.4502639 105.56606766 -16.99757385 105.56173706 C-20.20683952 105.55059889 -23.41581958 105.52550597 -26.625 105.5 C-28.80924074 105.48996198 -30.99348589 105.48083757 -33.17773438 105.47265625 C-38.51443189 105.45068038 -43.85091763 105.41619445 -49.1875 105.375 C-48.5275 101.085 -47.8675 96.795 -47.1875 92.375 C-46.0229126 92.3656543 -44.8583252 92.35630859 -43.65844727 92.34667969 C-39.30260151 92.30655172 -34.94744521 92.24073131 -30.59204102 92.16748047 C-28.71355096 92.13940236 -26.83494566 92.1181229 -24.95629883 92.10400391 C-22.24240671 92.08239075 -19.52988128 92.03564953 -16.81640625 91.984375 C-15.57365685 91.98253204 -15.57365685 91.98253204 -14.30580139 91.98065186 C-8.32782014 91.83333255 -3.32643505 90.51846079 1.8125 87.375 C6.54518896 81.69577324 6.97238135 76.95012689 7.015625 69.78515625 C7.02132507 69.04478622 7.02702515 68.3044162 7.03289795 67.54161072 C7.04233262 65.97233499 7.04887584 64.40303958 7.05273438 62.83374023 C7.06234033 60.47667783 7.09333449 58.12052611 7.125 55.76367188 C7.2409248 39.30365409 4.52764418 25.81478405 -6.953125 13.44921875 C-16.46079586 4.62304178 -28.3984742 1.11191147 -41.1875 1.375 C-48.1071518 2.37561706 -53.97488171 4.1890419 -60.1875 7.375 C-62.99884696 7.12879242 -64.05706116 6.50040157 -66.109375 4.52734375 C-66.71265625 3.79644531 -67.3159375 3.06554687 -67.9375 2.3125 C-68.55109375 1.57902344 -69.1646875 0.84554687 -69.796875 0.08984375 C-70.25578125 -0.47605469 -70.7146875 -1.04195312 -71.1875 -1.625 C-53.41318351 -21.05274128 -18.49489422 -13.72846315 0 0 Z " fill="#3AB9B5" transform="translate(279.1875,119.625)"/>
<path d="M0 0 C0 3.58912412 -0.66436554 4.10857029 -3 6.6875 C-3.556875 7.31011719 -4.11375 7.93273437 -4.6875 8.57421875 C-5.120625 9.04472656 -5.55375 9.51523438 -6 10 C-6.53625 9.89042969 -7.0725 9.78085938 -7.625 9.66796875 C-9.33698279 9.32163013 -11.0507708 8.98417288 -12.765625 8.65234375 C-15.09646454 8.18223481 -17.4187637 7.66905407 -19.734375 7.12890625 C-32.51078739 4.25122243 -43.50046766 4.7502587 -55.25 11.25 C-66.64220349 18.49958404 -73.31804535 28.26047762 -76.41552734 41.40087891 C-77.46744451 47.87847411 -77.44325644 54.35229633 -77.39111328 60.90161133 C-77.37490813 63.32624547 -77.3911054 65.74924168 -77.41015625 68.17382812 C-77.40817553 69.73698279 -77.40433542 71.30013645 -77.3984375 72.86328125 C-77.40451019 73.57696365 -77.41058289 74.29064606 -77.4168396 75.0259552 C-77.32838565 81.40043324 -75.75029182 85.8712667 -71.6875 90.8125 C-66.20535139 95.27471399 -60.42756968 95.32149353 -53.6640625 95.4140625 C-52.78471039 95.43342865 -51.90535828 95.4527948 -50.99935913 95.4727478 C-48.20800282 95.53222815 -45.41660457 95.5788021 -42.625 95.625 C-40.72524306 95.66320885 -38.8255029 95.70226226 -36.92578125 95.7421875 C-32.2839915 95.83790357 -27.64212071 95.9220504 -23 96 C-22.34 100.29 -21.68 104.58 -21 109 C-27.36795586 109.09946345 -33.73545162 109.17174892 -40.10400391 109.21972656 C-42.26684454 109.2397439 -44.42963173 109.2669663 -46.59228516 109.30175781 C-49.71530406 109.35071247 -52.8376026 109.37306817 -55.9609375 109.390625 C-57.39280899 109.42159271 -57.39280899 109.42159271 -58.85360718 109.45318604 C-68.41898206 109.45632658 -76.2287426 106.5875272 -83.2421875 100 C-88.16314107 94.40104839 -91.09161587 88.1816432 -91.16113281 80.71313477 C-91.17074036 79.8744838 -91.1803479 79.03583282 -91.19024658 78.17176819 C-91.19449646 77.27074875 -91.19874634 76.36972931 -91.203125 75.44140625 C-91.21167511 74.03120461 -91.21167511 74.03120461 -91.22039795 72.59251404 C-91.22984088 70.59952922 -91.23637913 68.60652885 -91.24023438 66.61352539 C-91.24986496 63.60469114 -91.28086359 60.59656246 -91.3125 57.58789062 C-91.41998182 38.35643557 -88.5497317 22.65418299 -75 8 C-53.4248996 -12.41192107 -25.23442494 -13.82524345 0 0 Z " fill="#1A3762" transform="translate(91,116)"/>
<path d="M0 0 C8.89829513 6.80206214 15.00104659 15.50261897 16.625 26.75 C17.6295848 38.470156 14.64170691 48.30443301 7.625 57.75 C1.13717308 64.90850945 -7.20921482 69.33069911 -16.87890625 69.98828125 C-29.17040409 70.32499306 -39.02273921 68.30063844 -48.375 59.75 C-56.14174382 52.25356049 -59.47791841 43.35409973 -59.6875 32.6875 C-59.73713962 21.34898337 -55.86263359 12.51326086 -48.25 4.1875 C-35.37888306 -8.27019777 -14.80495866 -9.9070776 0 0 Z M-39.9375 16.125 C-44.70731433 22.13360047 -45.92200886 27.26535206 -45.74609375 34.87109375 C-44.86375193 41.71620875 -41.79133791 47.0133569 -36.375 51.25 C-29.66762947 55.90188601 -23.39424762 56.59358319 -15.375 55.75 C-8.54618617 53.6789663 -3.75998952 49.26312534 -0.125 43.1875 C3.10815722 36.83665547 3.50540523 31.17454629 1.5 24.25 C-0.76348428 18.07016152 -4.37097777 13.61817617 -10.125 10.375 C-20.91479931 5.66597943 -31.80736658 7.4214937 -39.9375 16.125 Z " fill="#1A3762" transform="translate(80.375,33.25)"/>
<path d="M0 0 C7.75332722 6.52653494 13.67621821 14.10540694 15.625 24.25 C16.50820085 36.42658876 15.19023545 46.76571841 7.25 56.47265625 C0.44036424 63.92069536 -7.65609414 68.79308444 -17.87890625 69.48828125 C-29.72094522 69.81418211 -39.00729902 68.06098633 -48.37109375 60.23828125 C-56.3024338 52.36878401 -60.1533769 42.72604402 -60.6875 31.6875 C-60.52823664 21.11241277 -56.80869682 11.74222987 -49.375 4.25 C-35.73828493 -8.30755057 -15.69363565 -11.15314689 0 0 Z M-41.375 16.25 C-45.21642827 22.30988228 -46.95608227 28.04457981 -46.375 35.25 C-44.05822077 43.93094385 -39.830494 49.54175855 -32.1875 54.1875 C-24.88698499 56.22206976 -18.00447743 56.37718751 -11 53.25 C-4.56929877 49.61076072 -0.71080134 44.19427424 1.625 37.25 C2.57754707 29.93975501 1.76631627 23.4328102 -2.375 17.25 C-7.87723858 10.86591279 -14.09458504 7.91005187 -22.375 6.875 C-30.00138751 7.82829844 -36.28422487 10.33941173 -41.375 16.25 Z " fill="#3AB9B5" transform="translate(263.375,33.75)"/>
</svg>
