<?xml version="1.0" encoding="UTF-8"?>
<svg version="1.1" xmlns="http://www.w3.org/2000/svg" width="243" height="214">
<path d="M0 0 C4.62005857 3.38905612 9.0000506 7.04599369 13.375 10.7421875 C15.03762068 12.08056265 16.70307515 13.4154536 18.375 14.7421875 C18.83648437 14.3296875 19.29796875 13.9171875 19.7734375 13.4921875 C21.95868195 11.55742561 24.16536224 9.6490364 26.375 7.7421875 C27.13425781 7.07058594 27.89351562 6.39898437 28.67578125 5.70703125 C35.04196727 0.29941988 41.61568343 -3.20543429 49.375 -6.2578125 C50.2 -6.59941406 51.025 -6.94101563 51.875 -7.29296875 C67.53035963 -12.68704298 86.80613583 -10.00978302 101.7890625 -3.85546875 C118.3600265 4.23226905 130.06957246 18.16180638 136.375 35.3046875 C142.6839141 54.25333574 140.11701093 73.95783416 131.328125 91.66796875 C125.83347069 100.31655463 118.78530136 107.6298646 111.56591797 114.84179688 C110.60857545 115.80514178 109.65163762 116.76888899 108.69506836 117.73300171 C106.12563295 120.31991111 103.54993026 122.90048666 100.97238684 125.4793148 C99.35906284 127.09406936 97.74717486 128.71024346 96.13577652 130.32691956 C90.50586082 135.97525993 84.87088312 141.61849138 79.23095703 147.25683594 C73.98437947 152.50220779 68.74910968 157.75868317 63.51890457 163.02037573 C59.01287374 167.55255975 54.4991635 172.07699746 49.97939789 176.59548426 C47.2862675 179.2881056 44.59631049 181.98371757 41.91405869 184.68717957 C39.39638622 187.22422317 36.86927878 189.75147402 34.3346405 192.27156448 C32.96701692 193.6361045 31.60927066 195.01052187 30.25186157 196.38522339 C29.43058777 197.19810822 28.60931396 198.01099304 27.76315308 198.84851074 C27.05638868 199.55636467 26.34962429 200.2642186 25.62144279 200.99352264 C22.95732015 203.06731577 20.64523525 203.94684661 17.375 204.7421875 C11.03424452 202.88375404 6.64352339 197.4236154 2.1159668 192.85546875 C1.20295807 191.94611069 0.28994934 191.03675262 -0.65072632 190.09983826 C-3.1475128 187.61243174 -5.63482257 185.11574594 -8.12024331 182.61698914 C-10.73373699 179.99213162 -13.35498863 177.37504112 -15.97514343 174.75683594 C-20.37919834 170.35366331 -24.77724424 165.94455871 -29.17163086 161.53173828 C-34.22873881 156.4535361 -39.29453806 151.38413862 -44.36532909 146.31960201 C-49.2641026 141.42655853 -54.1571268 136.52780509 -59.0474453 131.62631226 C-61.11763636 129.55151569 -63.18965198 127.47856807 -65.26320839 125.40713501 C-68.17397741 122.49862985 -71.07623189 119.58176342 -73.9777832 116.6640625 C-74.82431961 115.82000351 -75.67085602 114.97594452 -76.54304504 114.10630798 C-84.36454788 106.21580055 -92.20435557 97.99746053 -97 87.8671875 C-97.32742187 87.18575684 -97.65484375 86.50432617 -97.9921875 85.80224609 C-105.87332023 68.78869191 -105.60707469 50.27969838 -99.625 32.7421875 C-92.96657592 16.03702886 -80.67479219 3.62699813 -64.625 -4.2578125 C-43.84190378 -12.48133978 -19.12692783 -12.47127389 0 0 Z M-76.625 22.7421875 C-85.73533027 34.64176401 -90.22272837 48.7876202 -89.47265625 63.7890625 C-85.50895388 89.91174859 -60.93924906 108.59599536 -43.3359375 126.3046875 C-42.07187513 127.57673538 -42.07187513 127.57673538 -40.78227615 128.8744812 C-36.34577472 133.33741587 -31.90580904 137.79687351 -27.46337891 142.25390625 C-23.79622623 145.93453265 -20.13653999 149.62235658 -16.48291016 153.31640625 C-12.04278167 157.80561202 -7.59072632 162.28264282 -3.12956619 166.75094604 C-1.4371755 168.45006521 0.25094497 170.15344866 1.93471146 171.8611145 C4.2726287 174.23039336 6.62554719 176.5836851 8.98291016 178.93359375 C10.02238297 179.99767456 10.02238297 179.99767456 11.08285522 181.08325195 C11.72442566 181.71650391 12.36599609 182.34975586 13.02700806 183.00219727 C13.58033625 183.5588356 14.13366444 184.11547394 14.70376015 184.6889801 C16.32320521 185.93436449 16.32320521 185.93436449 18.33646488 185.6369915 C20.87812222 184.52134472 22.371448 183.12631399 24.33955383 181.16531372 C25.50640213 180.01332237 25.50640213 180.01332237 26.69682312 178.83805847 C27.54106339 177.98931656 28.38530365 177.14057465 29.25512695 176.26611328 C30.15154907 175.37655441 31.04797119 174.48699554 31.97155762 173.57048035 C34.4313561 171.12864428 36.88148046 168.67731286 39.32946038 166.2236352 C41.37883637 164.17116698 43.43278848 162.1233092 45.48672646 160.07540786 C50.34005262 155.23613999 55.18551523 150.38909663 60.02612305 145.53710938 C65.00173019 140.55006326 69.9899011 135.57585145 74.98464805 130.60798085 C79.28341588 126.33147139 83.57426841 122.04713088 87.85899705 117.75655544 C90.41295638 115.19924418 92.96964382 112.64483371 95.53392982 110.09787369 C98.40302202 107.24732083 101.25540725 104.38057451 104.10668945 101.51220703 C105.36394081 100.26945763 105.36394081 100.26945763 106.64659119 99.00160217 C118.16750837 87.33660529 124.75163147 74.41734751 125.5625 57.9296875 C125.27568141 42.9864388 118.65969455 28.9275792 108.09375 18.48828125 C98.99327811 10.70265026 88.29396437 5.92118861 76.375 4.7421875 C75.67503906 4.6596875 74.97507813 4.5771875 74.25390625 4.4921875 C61.1995618 3.70251071 48.08085715 8.94678615 38.3828125 17.328125 C34.53126792 20.79999069 30.77071007 24.36312133 27.08203125 28.0078125 C24.06773169 30.8763529 22.0320683 32.5475006 18 33.7421875 C11.32853 31.90178198 6.97934771 26.47453718 2.30859375 21.57421875 C-7.88354194 10.92909925 -20.93584388 5.00159721 -35.6875 4.4921875 C-51.28899276 4.7244154 -66.13132819 11.05745313 -76.625 22.7421875 Z " fill="#1A3762" transform="translate(103.625,9.2578125)"/>
</svg>
