<?xml version="1.0" encoding="UTF-8"?>
<svg version="1.1" xmlns="http://www.w3.org/2000/svg" width="487" height="447">
<path d="M0 0 C12.28226394 10.40319713 20.6763279 24.67548206 22.92578125 40.6875 C24.13159623 55.61402781 20.19233962 70.80718678 11.18359375 82.87890625 C8.8325446 85.60381075 6.43220485 88.2499917 3.94140625 90.84765625 C1.96546817 92.68325593 1.96546817 92.68325593 2.18359375 94.87890625 C4.11558773 96.28399278 6.05270128 97.58745648 8.05859375 98.87890625 C24.25699837 109.75011088 34.65067012 125.255895 40.18359375 143.87890625 C41.39064429 141.58270312 42.41520551 139.29645962 43.375 136.8828125 C50.89992702 117.99546007 63.28158405 104.84666803 80.18359375 93.87890625 C79.71050781 93.46382813 79.23742187 93.04875 78.75 92.62109375 C65.88947772 80.63799502 58.93389398 66.02629404 58.15234375 48.421875 C58.30274754 31.36984525 63.98745774 18.04913925 75.359375 5.47265625 C87.87168464 -6.80833338 103.0558912 -11.53231896 120.16894531 -11.48901367 C136.83604574 -11.18149722 150.88062882 -3.77106092 162.3828125 8.16015625 C174.6407009 22.5427453 177.4218743 38.62058585 176.18359375 56.87890625 C174.37636651 71.05742538 166.61403153 83.36375369 156.18359375 92.87890625 C155.52359375 92.87890625 154.86359375 92.87890625 154.18359375 92.87890625 C154.18359375 93.53890625 154.18359375 94.19890625 154.18359375 94.87890625 C154.7758374 95.15379883 155.36808105 95.42869141 155.97827148 95.71191406 C158.08408567 96.82624948 159.67062074 98.00144127 161.46875 99.55078125 C168.17480935 105.4492064 168.17480935 105.4492064 176.3671875 108.19140625 C179.10998051 107.64360848 181.57607717 106.88179724 184.18359375 105.87890625 C202.78782705 102.43367786 221.35973045 106.55866622 236.93359375 117.19140625 C252.84807582 128.50982516 262.01678139 144.09282259 265.67578125 163.25 C268.18564713 181.18588769 264.27209949 197.90060858 254.18359375 212.87890625 C251.39488275 216.4534396 248.404336 219.69267195 245.18359375 222.87890625 C244.48234375 223.59304687 243.78109375 224.3071875 243.05859375 225.04296875 C241.44906849 226.67196408 239.82641657 228.28362492 238.18359375 229.87890625 C240.62838547 232.64258384 243.21954873 234.60363251 246.30859375 236.56640625 C251.78195833 240.13129502 256.43884858 244.41093788 261.18359375 248.87890625 C261.81265625 249.43191406 262.44171875 249.98492187 263.08984375 250.5546875 C277.06402133 263.35376378 283.55416839 283.47488575 285.18359375 301.87890625 C285.34489346 306.01809452 285.37106051 310.15484337 285.38671875 314.296875 C285.39241882 315.47228348 285.3981189 316.64769196 285.4039917 317.85871887 C285.41340019 320.33215444 285.41995908 322.8056023 285.42382812 325.27905273 C285.43358886 329.06450928 285.46467411 332.84943497 285.49609375 336.63476562 C285.50261936 339.04296554 285.50787156 341.45116932 285.51171875 343.859375 C285.52406555 344.98965622 285.53641235 346.11993744 285.5491333 347.2844696 C285.5461322 348.33939102 285.5431311 349.39431244 285.54003906 350.48120117 C285.54368469 351.40527267 285.54733032 352.32934418 285.55108643 353.28141785 C284.95456811 357.49769076 282.98622065 360.11556878 279.94921875 363.00390625 C276.765096 365.16263354 273.52910165 366.58111676 269.93359375 367.87890625 C269.2281543 368.13454346 268.52271484 368.39018066 267.79589844 368.65356445 C224.50975843 383.88227617 175.31070337 379.4864872 131.18359375 370.87890625 C131.16171997 372.68693726 131.16171997 372.68693726 131.1394043 374.53149414 C131.0812105 379.02511509 131.00397927 383.51824596 130.92114258 388.01147461 C130.88799216 389.9521486 130.85992975 391.89291671 130.8371582 393.83374023 C130.80342991 396.63175372 130.75110556 399.42891235 130.6953125 402.2265625 C130.68892258 403.08725845 130.68253265 403.94795441 130.6759491 404.83473206 C130.53244374 410.78197221 129.84061263 415.92457718 125.69775391 420.53100586 C120.90913141 423.71148705 116.02232235 425.69035534 110.55859375 427.44140625 C109.19130127 427.88637451 109.19130127 427.88637451 107.79638672 428.34033203 C101.37032072 430.35818949 94.91921122 431.9696312 88.30859375 433.25390625 C87.51501465 433.40931885 86.72143555 433.56473145 85.90380859 433.72485352 C71.04121816 436.37229969 55.79048233 436.11992562 40.74609375 436.12890625 C39.72679779 436.12958099 38.70750183 436.13025574 37.65731812 436.13095093 C-26.0030719 436.06406173 -26.0030719 436.06406173 -42.30175781 420.45654297 C-45.60421528 416.63357666 -46.91712199 413.6591433 -47.02172852 408.68286133 C-47.04167374 407.84221634 -47.06161896 407.00157135 -47.08216858 406.13545227 C-47.10723732 404.78062996 -47.10723732 404.78062996 -47.1328125 403.3984375 C-47.16398415 402.00645393 -47.16398415 402.00645393 -47.19578552 400.58634949 C-47.26117948 397.62144385 -47.32011887 394.65644953 -47.37890625 391.69140625 C-47.42210112 389.68163145 -47.46571572 387.67186562 -47.50976562 385.66210938 C-47.61685052 380.73446593 -47.7181467 375.80673326 -47.81640625 370.87890625 C-48.81317383 371.15154297 -48.81317383 371.15154297 -49.83007812 371.4296875 C-70.19640082 376.6794336 -90.45754035 377.48015523 -111.37869263 377.44433594 C-113.47937328 377.44144007 -115.57998582 377.44429755 -117.68066406 377.44799805 C-181.14527282 377.49060694 -181.14527282 377.49060694 -200.81640625 359.87890625 C-202.10581181 357.30009512 -201.95047993 355.43756138 -201.96166992 352.54980469 C-201.96804977 351.43393982 -201.97442963 350.31807495 -201.98100281 349.168396 C-201.98211563 347.95395813 -201.98322845 346.73952026 -201.984375 345.48828125 C-201.9877034 344.23694397 -201.9910318 342.98560669 -201.99446106 341.6963501 C-201.99953592 339.03646312 -202.00230066 336.37667815 -202.00170898 333.71679688 C-202.00162832 331.0129519 -202.00846973 328.30927845 -202.0222168 325.60546875 C-202.04072041 321.69135436 -202.04545472 317.7774353 -202.046875 313.86328125 C-202.05406052 312.67313416 -202.06124603 311.48298706 -202.06864929 310.2567749 C-202.00048269 284.69530346 -193.01531169 263.98760533 -175.59765625 245.52734375 C-169.37113691 239.69579019 -162.05609065 235.32775925 -154.81640625 230.87890625 C-158.16637637 227.50727949 -158.16637637 227.50727949 -161.58984375 224.2109375 C-175.12240895 211.37150369 -182.56525491 194.13887274 -183.16748047 175.55200195 C-183.3902663 155.31713784 -176.94755283 139.3638879 -163.12890625 124.69140625 C-149.25715942 111.32871435 -131.01494858 104.39839136 -111.87109375 104.671875 C-107.73886929 104.95193625 -103.75041346 105.67541517 -99.703125 106.5390625 C-91.91554108 107.45586873 -87.4113649 104.7372657 -81.37890625 100.31640625 C-80.64736328 99.79626953 -79.91582031 99.27613281 -79.16210938 98.74023438 C-77.37149547 97.46456826 -75.59037754 96.17756425 -73.81640625 94.87890625 C-74.2023999 94.43450195 -74.58839355 93.99009766 -74.98608398 93.53222656 C-89.62103166 76.58769059 -95.97638281 61.73876979 -95.00732422 39.37402344 C-93.83467634 24.04862527 -84.199644 9.79417831 -72.81640625 -0.12109375 C-51.50904016 -15.46892833 -21.07492959 -15.87196501 0 0 Z M-65.12890625 22.25390625 C-72.26045576 30.70401263 -75.35008788 39.73748978 -75.12890625 50.82421875 C-74.03021393 61.56393621 -67.27647305 71.53554647 -59.1015625 78.30859375 C-49.5947687 84.84146744 -39.59984882 87.3229413 -28.2265625 85.453125 C-18.23290959 82.87971991 -9.61885952 76.36850073 -3.81640625 67.87890625 C1.9426721 57.24330961 3.83759179 48.05821251 0.55859375 36.31640625 C-2.82040144 26.19119417 -9.8257013 17.48868991 -19.44140625 12.5234375 C-36.43687626 5.5178643 -52.52158115 8.73773517 -65.12890625 22.25390625 Z M85.9453125 25.50390625 C79.54559603 34.13146194 78.34011772 43.3770357 79.18359375 53.87890625 C81.65660432 64.78841574 88.08700867 73.47702874 97.18359375 79.87890625 C106.32114242 84.8455233 115.59343006 87.74709 125.9609375 85.1953125 C137.37764197 81.33637031 146.57204274 74.71663031 152.49609375 64.06640625 C156.56032579 55.09706657 157.37515601 44.88509232 154.4296875 35.46875 C149.5813393 23.64202615 140.95439269 15.51876737 129.2265625 10.60546875 C112.20082803 4.55042743 96.97354605 12.67735564 85.9453125 25.50390625 Z M-71.81640625 118.87890625 C-71.08035156 119.60464844 -70.34429687 120.33039063 -69.5859375 121.078125 C-55.05689983 135.77110103 -46.71089548 152.45248178 -46.44140625 173.37890625 C-46.63043856 193.16725367 -53.70119134 209.83138304 -67.62890625 223.87890625 C-68.68771498 224.88281378 -69.7502579 225.88279684 -70.81640625 226.87890625 C-72.1532967 228.20867295 -73.48740423 229.54125563 -74.81640625 230.87890625 C-73.8728125 231.47316406 -72.92921875 232.06742187 -71.95703125 232.6796875 C-48.54814411 247.6757185 -34.59099256 266.15665018 -28.30517578 293.59179688 C-27.22401279 298.6509052 -26.43426566 303.74237357 -25.81640625 308.87890625 C-22.04180362 307.22353835 -18.96577999 304.7885174 -15.75390625 302.25390625 C-9.86629862 297.66185815 -3.88383214 293.23188915 2.18359375 288.87890625 C1.54421875 288.23953125 0.90484375 287.60015625 0.24609375 286.94140625 C-0.43839844 286.24724609 -0.43839844 286.24724609 -1.13671875 285.5390625 C-2.35646613 284.33349823 -3.60548912 283.15733047 -4.87109375 282 C-16.1753186 271.38028704 -24.81457842 256.26470792 -25.9934082 240.51391602 C-26.29096951 228.64821427 -26.34943814 218.02260965 -21.81640625 206.87890625 C-21.34203125 205.71101563 -20.86765625 204.543125 -20.37890625 203.33984375 C-12.67293232 186.33483398 0.5991845 175.45821719 17.68359375 168.44140625 C21.06320249 166.32915079 21.27540979 164.71396028 22.18359375 160.87890625 C21.47153674 147.78324906 15.41868206 133.11319744 6.2109375 123.67578125 C-6.94189586 112.01816401 -20.8506409 105.2637684 -38.60546875 105.62890625 C-51.28328428 106.61598678 -62.40480192 110.21032331 -71.81640625 118.87890625 Z M73.18359375 125.87890625 C66.65143019 134.03114516 62.40618608 142.62078781 60.18359375 152.87890625 C59.97605469 153.8225 59.76851563 154.76609375 59.5546875 155.73828125 C58.85712795 159.98648178 58.65589981 162.04187448 60.99609375 165.75390625 C64.41115569 168.03061421 67.68177874 169.31165726 71.5078125 170.734375 C84.21779956 176.17090961 94.66830168 186.93142693 101.18359375 198.87890625 C101.89322266 200.15701172 101.89322266 200.15701172 102.6171875 201.4609375 C110.62029719 217.30092018 111.5491682 237.11821549 106.18359375 253.87890625 C100.69290688 267.70804907 92.64660398 278.37946721 81.18359375 287.87890625 C84.55440916 291.38504637 88.01245629 294.38048012 91.93359375 297.25390625 C96.51667833 300.63180933 101.01244007 304.08682058 105.44140625 307.6640625 C107.10302852 309.06956632 107.10302852 309.06956632 109.18359375 308.87890625 C109.32607544 307.99706665 109.32607544 307.99706665 109.47143555 307.09741211 C114.32715976 277.54521516 123.81292352 254.7943055 148.80395508 236.76391602 C151.58328581 234.78187413 154.37934193 232.82552771 157.18359375 230.87890625 C155.17689162 228.20330341 153.30079257 225.97251904 150.6796875 223.87890625 C138.82700825 214.38192382 132.27148758 197.57546731 130.18359375 182.87890625 C128.24210525 163.15154991 132.72557372 144.40246526 145.4375 128.859375 C147.90411921 126.06166596 150.48115045 123.44952305 153.18359375 120.87890625 C150.9897739 115.3765689 146.24793461 113.45598557 141.18359375 110.87890625 C116.98079653 100.52494307 90.92068413 106.46504514 73.18359375 125.87890625 Z M-146.625 137.0546875 C-156.59556841 146.52084267 -161.76459077 157.51844493 -162.21899414 171.15698242 C-162.33136535 179.71683928 -161.96831264 187.19971656 -157.81640625 194.87890625 C-157.05263672 196.29236328 -157.05263672 196.29236328 -156.2734375 197.734375 C-149.13073241 209.84591841 -138.20635644 217.21861977 -124.81640625 221.31640625 C-111.80273313 223.78595189 -99.41267126 221.42910805 -88.06640625 214.75390625 C-76.19778943 206.63964781 -69.42483069 195.7733139 -66.3203125 181.8828125 C-64.26236448 169.61488981 -66.58607488 157.11288274 -73.81640625 146.87890625 C-79.00243947 140.25006613 -84.45506131 134.98576185 -91.81640625 130.87890625 C-92.48929687 130.48960937 -93.1621875 130.1003125 -93.85546875 129.69921875 C-111.56494539 120.61233373 -131.5490502 125.37554419 -146.625 137.0546875 Z M160.80859375 141.19140625 C151.09631717 152.92955647 147.79037567 166.8543158 149.18359375 181.87890625 C151.8580238 195.07594502 159.38116201 205.98068447 170.18359375 213.87890625 C182.13003733 221.06218716 193.70803008 223.97164088 207.625 221.19140625 C221.95688309 217.13042403 232.25073662 209.42543343 240.18359375 196.87890625 C246.00827223 185.09641379 247.17391891 171.74422252 243.62109375 159.06640625 C238.2005732 143.75248806 228.53963002 135.09375765 214.3203125 128.2265625 C196.20216496 120.44230235 173.88895184 127.32720647 160.80859375 141.19140625 Z M5.37109375 199.56640625 C-3.66471096 210.20533761 -7.36412722 221.47302448 -7.12890625 235.21875 C-6.0092295 248.33296397 0.04766322 259.74494045 9.48828125 268.76953125 C21.41925402 278.10681429 35.29641973 281.27676297 50.18359375 279.87890625 C63.03035997 277.2978208 74.30642673 270.12826313 81.90625 259.4609375 C89.38143333 247.61451674 92.09330644 234.70472084 89.05859375 220.94140625 C85.261594 207.16624437 77.1408897 196.63296568 64.9296875 189.31640625 C44.70679835 178.73031349 21.04533955 183.26414392 5.37109375 199.56640625 Z M-155.81640625 256.87890625 C-156.6465625 257.53503906 -157.47671875 258.19117188 -158.33203125 258.8671875 C-171.78833052 270.15644471 -179.90179082 285.39990005 -181.81640625 302.87890625 C-182.14901407 309.21978114 -182.14635587 315.56755983 -182.13208008 321.91552734 C-182.1288839 324.89977373 -182.15256939 327.88306062 -182.17773438 330.8671875 C-182.18000425 332.76692584 -182.18071232 334.66666683 -182.1796875 336.56640625 C-182.18889725 337.4569873 -182.19810699 338.34756836 -182.20759583 339.26513672 C-182.20136703 340.09029785 -182.19513824 340.91545898 -182.1887207 341.765625 C-182.18935013 342.48967529 -182.18997955 343.21372559 -182.19062805 343.9597168 C-181.70565759 346.44687865 -180.77319509 347.31633419 -178.81640625 348.87890625 C-176.40529333 349.81715401 -176.40529333 349.81715401 -173.66796875 350.44921875 C-172.6625 350.70574219 -171.65703125 350.96226562 -170.62109375 351.2265625 C-169.57179688 351.48308594 -168.5225 351.73960937 -167.44140625 352.00390625 C-166.39984375 352.26816406 -165.35828125 352.53242188 -164.28515625 352.8046875 C-147.44890438 357.04604507 -130.91241713 357.09098355 -113.62280273 357.11914062 C-110.02238952 357.12885637 -106.42254589 357.15996919 -102.82226562 357.19140625 C-86.97389395 357.26467708 -72.09169021 356.36466849 -56.94140625 351.37890625 C-56.28011719 351.17910156 -55.61882812 350.97929687 -54.9375 350.7734375 C-51.48827188 349.67500177 -49.06180961 348.74759878 -46.81640625 345.87890625 C-46.3643091 343.81901809 -46.3643091 343.81901809 -46.42822266 341.52197266 C-46.41403793 340.20382065 -46.41403793 340.20382065 -46.39956665 338.85903931 C-46.40563934 337.90911102 -46.41171204 336.95918274 -46.41796875 335.98046875 C-46.41509857 334.99452728 -46.41222839 334.00858582 -46.40927124 332.99276733 C-46.40722755 330.89963204 -46.41277866 328.80647779 -46.42529297 326.71337891 C-46.44117154 323.55065528 -46.42554369 320.38924323 -46.40625 317.2265625 C-46.38244871 296.1341346 -49.83871721 278.9184292 -65.12109375 263.5 C-66.45527344 262.20255859 -66.45527344 262.20255859 -67.81640625 260.87890625 C-68.52023438 260.18925781 -69.2240625 259.49960937 -69.94921875 258.7890625 C-82.57546187 247.10850966 -99.10359479 241.2078719 -116.2734375 241.69921875 C-130.97859802 242.73829307 -144.33788777 247.53816554 -155.81640625 256.87890625 Z M144.99609375 266.50390625 C141.9327406 270.56316434 139.33125526 274.81212122 136.87109375 279.25390625 C136.38249878 280.11749756 136.38249878 280.11749756 135.8840332 280.99853516 C129.35468894 293.37117554 129.68372226 306.49282653 129.73754883 320.12719727 C129.74615449 323.46496391 129.71706827 326.80106953 129.68554688 330.13867188 C129.68393698 332.26171824 129.68450832 334.38476763 129.6875 336.5078125 C129.67626602 337.5046254 129.66503204 338.50143829 129.65345764 339.52845764 C129.66283859 340.45049484 129.67221954 341.37253204 129.68188477 342.32250977 C129.68205093 343.13236832 129.6822171 343.94222687 129.68238831 344.77662659 C130.01769484 347.04765536 130.01769484 347.04765536 132.05525208 348.60995483 C134.56047856 350.10361101 136.78879242 350.75021768 139.62890625 351.4140625 C141.22871338 351.79087158 141.22871338 351.79087158 142.86083984 352.17529297 C143.99859863 352.42811035 145.13635742 352.68092773 146.30859375 352.94140625 C147.49146973 353.20453613 148.6743457 353.46766602 149.89306641 353.73876953 C182.0572777 360.70396079 233.32739624 365.06091926 263.18359375 347.87890625 C265.66918235 344.15052335 265.44149449 342.19912713 265.44921875 337.74609375 C265.45203857 337.04115784 265.4548584 336.33622192 265.45776367 335.60992432 C265.46203138 333.32438007 265.44946809 331.03939413 265.43359375 328.75390625 C265.43049194 327.97980408 265.42739014 327.2057019 265.42419434 326.40814209 C265.30581111 301.40521457 262.7075782 279.44566485 244.26953125 260.70703125 C230.92581332 247.97651977 213.11401087 241.2002976 194.765625 241.5703125 C175.27023739 243.24984971 157.82731466 251.48016603 144.99609375 266.50390625 Z M-1.81640625 315.87890625 C-2.59628906 316.48476563 -3.37617188 317.090625 -4.1796875 317.71484375 C-17.43408227 328.63022768 -23.78476773 345.17142817 -25.81640625 361.87890625 C-26.27685788 368.15724519 -26.29149325 374.44283876 -26.26245117 380.73510742 C-26.25380246 383.60079741 -26.28304437 386.46457692 -26.31445312 389.33007812 C-26.3160622 391.16275983 -26.31549324 392.99544504 -26.3125 394.828125 C-26.32373398 395.67912277 -26.33496796 396.53012054 -26.34654236 397.40690613 C-26.29526786 402.20925425 -26.29526786 402.20925425 -24.02954102 406.35620117 C-21.93046928 407.80042736 -20.35543435 408.63845491 -17.91015625 409.29296875 C-17.1723291 409.49567383 -16.43450195 409.69837891 -15.67431641 409.90722656 C-14.89620605 410.10413086 -14.1180957 410.30103516 -13.31640625 410.50390625 C-12.10863525 410.82246582 -12.10863525 410.82246582 -10.87646484 411.14746094 C5.16502293 415.28368305 21.13754142 416.09339055 37.62109375 416.06640625 C38.81786743 416.06450287 38.81786743 416.06450287 40.03881836 416.06256104 C57.90338995 416.00848285 74.70291191 414.57891982 92.24609375 411.00390625 C93.46748047 410.75946777 94.68886719 410.5150293 95.94726562 410.26318359 C97.65946289 409.8912085 97.65946289 409.8912085 99.40625 409.51171875 C100.42468994 409.29402832 101.44312988 409.07633789 102.49243164 408.85205078 C105.81870141 407.64924653 107.19307917 406.83179388 109.18359375 403.87890625 C109.75722308 400.7857437 109.72007731 397.74763222 109.6796875 394.609375 C109.68114273 393.69617996 109.68259796 392.78298492 109.68409729 391.84211731 C109.68243734 389.90455954 109.67086527 387.96698872 109.65014648 386.02954102 C109.62156824 383.11480074 109.62946059 380.20192505 109.64257812 377.28710938 C109.62879793 363.72776347 109.20289521 349.94267815 102.68359375 337.69140625 C102.34102539 337.03197021 101.99845703 336.37253418 101.64550781 335.69311523 C93.60591078 320.98293139 79.77448371 309.75440484 64.18359375 303.87890625 C63.00410156 303.41871094 63.00410156 303.41871094 61.80078125 302.94921875 C40.4231934 295.54114375 15.42791452 301.92911148 -1.81640625 315.87890625 Z " fill="#1A3762" transform="translate(201.81640625,11.12109375)"/>
</svg>
