<?xml version="1.0" encoding="UTF-8"?>
<svg version="1.1" xmlns="http://www.w3.org/2000/svg" width="269" height="263">
<path d="M0 0 C2.171875 1.1640625 2.171875 1.1640625 4.734375 3.5390625 C7.22099471 5.58303582 7.22099471 5.58303582 10.984375 4.6640625 C12.71916152 4.18392389 14.44758573 3.68063182 16.171875 3.1640625 C30.7333487 -0.89808089 45.9757934 -3.85189175 61.171875 -2.8359375 C61.81495605 -2.79484863 62.45803711 -2.75375977 63.12060547 -2.71142578 C73.40032607 -1.99847374 83.06482848 -0.40899668 92.94116211 2.57495117 C99.52943673 4.51368638 103.16803836 3.88779309 109.296875 0.6640625 C115.44893151 -2.55221021 120.25059617 -3.44598611 127.171875 -2.8359375 C131.35332784 -1.10881568 133.59662828 1.48513861 136.171875 5.1640625 C137.09375961 7.92971632 137.28972722 9.54689952 137.26953125 12.39453125 C137.26630859 13.19697266 137.26308594 13.99941406 137.25976562 14.82617188 C137.25138672 15.65955078 137.24300781 16.49292969 137.234375 17.3515625 C137.22986328 18.19654297 137.22535156 19.04152344 137.22070312 19.91210938 C137.20892903 21.99612405 137.1909939 24.08010227 137.171875 26.1640625 C137.99171875 26.51404297 137.99171875 26.51404297 138.828125 26.87109375 C148.61497308 32.27017161 155.89433001 42.17960136 162.578125 50.87890625 C166.36163741 55.719757 168.97174215 58.42433117 175.046875 60.1015625 C180.22160685 61.70010604 183.40355112 63.29389203 187.171875 67.1640625 C188.91703542 70.65438335 188.01818827 74.45182474 187.171875 78.1640625 C185.35067204 80.98398967 184.16496544 82.66751728 181.171875 84.1640625 C181.43742187 85.25203125 181.70296875 86.34 181.9765625 87.4609375 C182.33355147 88.94526005 182.69030969 90.42963812 183.046875 91.9140625 C183.30791016 92.97947266 183.30791016 92.97947266 183.57421875 94.06640625 C186.33875409 105.63649862 187.57388354 116.75647428 187.546875 128.6640625 C187.54799286 129.36183807 187.54911072 130.05961365 187.55026245 130.77853394 C187.54148442 141.94562043 186.34705223 152.39895953 183.64257812 163.24316406 C182.90339593 166.25970221 182.32599176 169.05541475 182.171875 172.1640625 C183.48716771 174.50317458 183.48716771 174.50317458 185.546875 176.2890625 C188.55058472 179.17310251 189.79393883 180.96035143 190.171875 185.1640625 C189.22961499 189.22302871 188.52763092 191.21605272 185.09375 193.6171875 C180.80918008 195.85378689 176.90925372 197.22593326 172.171875 198.1015625 C166.56847576 199.66288117 164.35466421 203.55723264 161.36132812 208.18408203 C157.70259223 213.73032858 153.39891392 218.32053963 148.671875 222.9765625 C147.96466309 223.67612061 147.25745117 224.37567871 146.52880859 225.09643555 C141.49533525 230.00233237 141.49533525 230.00233237 139.171875 231.1640625 C139.21828125 232.2984375 139.2646875 233.4328125 139.3125 234.6015625 C139.7506302 249.80468028 139.7506302 249.80468028 135.171875 256.1640625 C131.2266912 259.87014426 127.22979989 260.55876924 121.859375 260.5234375 C116.06151791 259.74814266 109.34701753 257.33920503 105.171875 253.1640625 C98.50978282 253.64920835 92.07955885 255.64988439 85.64257812 257.34765625 C62.24142283 263.38090605 36.9217248 261.29079063 14.125 253.8359375 C8.98082349 252.6655693 5.58988186 254.27446868 1.046875 256.6640625 C-4.79291279 259.71708226 -9.26161199 260.77124007 -15.828125 260.1640625 C-21.03401072 258.39602584 -23.19657331 255.93984149 -25.828125 251.1640625 C-27.04322866 247.89378351 -26.73868964 244.91984408 -26.50732422 241.47900391 C-26.04099446 234.91807799 -26.04099446 234.91807799 -28.25390625 228.91015625 C-30.35647535 227.16152663 -32.5537445 225.68154689 -34.828125 224.1640625 C-39.455105 220.05536435 -43.86209762 215.85054908 -47.16015625 210.5859375 C-52.61529743 201.88436651 -56.39241435 198.77543372 -66.375 196.1484375 C-70.89242711 194.86066416 -74.32260987 193.25054843 -76.828125 189.1640625 C-77.83882692 185.90802878 -77.84181246 183.42115663 -76.828125 180.1640625 C-75.12550273 177.9486022 -73.36150868 176.12317099 -71.26171875 174.28125 C-69.49415481 172.13266799 -69.49415481 172.13266799 -70.01953125 168.859375 C-70.28636719 167.63992187 -70.55320312 166.42046875 -70.828125 165.1640625 C-71.0653125 164.0090625 -71.3025 162.8540625 -71.546875 161.6640625 C-71.8046875 160.5090625 -72.0625 159.3540625 -72.328125 158.1640625 C-74.47780734 148.53348563 -75.10093221 139.31920227 -75.140625 129.4765625 C-75.14424042 128.78997559 -75.14785583 128.10338867 -75.15158081 127.39599609 C-75.17506398 116.27695874 -73.98496611 105.90549691 -71.29638672 95.10693359 C-70.57348763 92.10754311 -70.02409024 89.24571201 -69.828125 86.1640625 C-72.31210253 83.67025902 -72.31210253 83.67025902 -74.2578125 82.3359375 C-77.75881274 79.72325075 -78.71537003 76.93925291 -79.328125 72.7265625 C-78.70881892 68.31400671 -77.2939672 65.84503909 -73.828125 63.1640625 C-69.11096803 60.65755923 -64.62610874 59.22442267 -59.328125 58.7265625 C-53.41523404 57.5543578 -50.7139433 52.3774387 -47.44921875 47.76953125 C-44.87662566 44.14562401 -42.03046709 40.86192956 -39.015625 37.6015625 C-38.14292969 36.65152344 -37.27023438 35.70148437 -36.37109375 34.72265625 C-33.828125 32.1640625 -33.828125 32.1640625 -31.01171875 30.3046875 C-28.45457565 28.25139899 -28.45457565 28.25139899 -28.4453125 24.58984375 C-28.51146425 23.21765307 -28.59832 21.84634323 -28.703125 20.4765625 C-29.00006325 12.52740887 -28.599695 6.4899465 -23.328125 0.1640625 C-16.42109432 -5.36156204 -7.50414184 -3.23936558 0 0 Z M-20.828125 5.1640625 C-23.30177032 8.76827423 -23.03217559 12.14533066 -22.953125 16.4140625 C-22.93507812 17.67734375 -22.91703125 18.940625 -22.8984375 20.2421875 C-22.87523437 21.20640625 -22.85203125 22.170625 -22.828125 23.1640625 C-20.09961934 21.8317487 -17.46922053 20.40281628 -14.859375 18.8515625 C-14.12332031 18.41585938 -13.38726562 17.98015625 -12.62890625 17.53125 C-11.86964844 17.08007812 -11.11039063 16.62890625 -10.328125 16.1640625 C-8.81845341 15.26697412 -7.30805991 14.37109928 -5.796875 13.4765625 C-5.13107422 13.08082031 -4.46527344 12.68507813 -3.77929688 12.27734375 C-1.82784992 11.16390555 0.15331196 10.14971535 2.171875 9.1640625 C-0.17335716 6.48927157 -2.41101292 5.28240027 -5.703125 3.9765625 C-6.54617187 3.63238281 -7.38921875 3.28820312 -8.2578125 2.93359375 C-13.37284477 1.40219351 -16.56043398 1.93445848 -20.828125 5.1640625 Z M108.171875 8.1640625 C109.89083984 9.06898437 109.89083984 9.06898437 111.64453125 9.9921875 C113.17451214 10.79941668 114.7044582 11.60671186 116.234375 12.4140625 C117.36262695 13.00767578 117.36262695 13.00767578 118.51367188 13.61328125 C123.11893818 16.04549982 127.6647372 18.5543519 132.171875 21.1640625 C132.73003846 12.19344793 132.73003846 12.19344793 129.171875 4.1640625 C122.7888025 -0.67826837 113.31053695 3.02540055 108.171875 8.1640625 Z M13.171875 10.1640625 C21.80751965 19.61652368 21.80751965 19.61652368 33.109375 24.6640625 C36.70286051 24.07737099 37.75903127 22.90081852 39.8828125 20.0234375 C40.30820313 19.40984375 40.73359375 18.79625 41.171875 18.1640625 C42.20831189 16.74356524 43.25009623 15.32695602 44.296875 13.9140625 C45.01230469 12.91632812 45.01230469 12.91632812 45.7421875 11.8984375 C48.29443969 8.80226271 49.99979129 8.18098877 53.984375 7.7890625 C58.47764669 7.96124992 60.78461814 9.06508282 64.171875 12.1640625 C66.1232108 14.98220221 67.91870838 17.84617782 69.65625 20.80078125 C70.95454098 23.26850921 70.95454098 23.26850921 73.171875 24.1640625 C78.26405721 24.69256388 80.60616402 23.64169626 84.609375 20.5390625 C85.55296875 19.81460937 86.4965625 19.09015625 87.46875 18.34375 C90.76903731 15.68253567 94.00308117 12.98076813 97.171875 10.1640625 C93.58283467 7.77136895 90.06191089 7.03218595 85.921875 6.1015625 C85.18324219 5.92818359 84.44460937 5.75480469 83.68359375 5.57617188 C60.20309171 0.17192934 35.78702983 2.26623139 13.171875 10.1640625 Z M48.78125 15.46484375 C46.92028457 17.42969803 45.55597137 19.50358937 44.109375 21.7890625 C40.22362659 27.81347864 40.22362659 27.81347864 36.171875 29.1640625 C26.47481847 29.32841939 19.61705458 23.66292596 12.859375 17.2265625 C12.07949219 16.43378906 11.29960938 15.64101563 10.49609375 14.82421875 C8.3208377 12.91972448 8.3208377 12.91972448 5.76171875 13.21875 C0.22954733 15.23803429 -4.74623649 18.21979376 -9.828125 21.1640625 C-10.90320313 21.72996094 -11.97828125 22.29585937 -13.0859375 22.87890625 C-16.23754261 24.75917196 -18.50109731 26.31645692 -20.828125 29.1640625 C-21.66156158 33.06198128 -21.76571986 36.6162987 -21.7578125 40.59765625 C-21.87085648 46.33149822 -23.52300122 49.84296788 -27.51953125 53.8671875 C-33.27647385 58.65882457 -39.91769233 60.97867264 -47.37109375 61.33203125 C-51.04824308 61.848839 -51.04824308 61.848839 -53.15625 65.0078125 C-53.82426407 66.21176813 -54.46402994 67.4317317 -55.078125 68.6640625 C-55.41457031 69.29393066 -55.75101563 69.92379883 -56.09765625 70.57275391 C-58.55730426 75.29310781 -60.4108904 80.02658706 -61.828125 85.1640625 C-60.97089844 85.73253906 -60.11367188 86.30101563 -59.23046875 86.88671875 C-41.39396909 98.86287769 -41.39396909 98.86287769 -38.828125 108.1640625 C-38.43499263 112.51210657 -38.90056943 115.78219399 -41.359375 119.4453125 C-43.99104891 122.52303284 -46.44852182 124.91099371 -49.828125 127.1640625 C-48.67300859 130.62941173 -47.8830477 131.05358375 -44.953125 133.0390625 C-40.86160398 136.04537723 -38.33841229 138.17598848 -37.44921875 143.3828125 C-37.02249398 149.26616677 -38.20571182 153.21217909 -41.71875 157.9296875 C-47.51258789 164.06686394 -54.82796034 168.5285368 -61.828125 173.1640625 C-60.58412797 176.53748975 -59.21400235 179.84675609 -57.828125 183.1640625 C-57.47363281 184.15664062 -57.11914062 185.14921875 -56.75390625 186.171875 C-55.39960574 189.37605601 -54.22744175 191.63024517 -51.828125 194.1640625 C-48.07031854 195.49486342 -44.40029393 196.12758746 -40.46875 196.63671875 C-32.68198224 197.76463039 -27.43294901 201.51915812 -22.63671875 207.69921875 C-19.94170131 211.97180738 -19.81375921 214.92144467 -20.37280273 219.93310547 C-20.72020778 223.49638243 -21.00572847 226.73130411 -19.828125 230.1640625 C-16.15993033 234.44362295 -10.86351185 236.82087457 -5.85009766 239.19482422 C-4.09850473 240.03445522 -2.39991751 240.98299703 -0.71484375 241.94921875 C3.68128224 244.70208894 3.68128224 244.70208894 8.6171875 244.57421875 C11.69686207 242.87427606 13.85442367 240.81951307 16.359375 238.3515625 C21.76315946 233.34671515 27.06796035 228.75015796 34.62109375 227.8828125 C39.01574766 228.05714588 40.74131981 228.7526431 43.984375 231.8515625 C45.39502272 233.98768619 46.79196583 236.13295442 48.171875 238.2890625 C50.21799758 241.2303637 52.28210752 243.07700821 55.171875 245.1640625 C60.75900331 243.56774013 63.54945041 239.76660282 66.50390625 235.02734375 C69.97786894 229.69677289 69.97786894 229.69677289 73.203125 228.2578125 C79.75367948 227.0584152 84.84667278 229.49752982 90.171875 233.1640625 C93.09332469 235.67265591 95.88599528 238.25463595 98.62890625 240.95703125 C101.99112228 243.92428679 101.99112228 243.92428679 106.171875 245.1640625 C109.13145505 244.19820565 111.7331754 242.7172706 114.421875 241.1640625 C115.17460693 240.73689941 115.92733887 240.30973633 116.70288086 239.86962891 C118.19189265 239.0194538 119.67697716 238.16235706 121.15771484 237.29785156 C123.171875 236.1640625 123.171875 236.1640625 126.28515625 234.75 C128.94089696 233.43695436 130.46313252 232.59555039 132.171875 230.1640625 C132.65323148 226.29554621 132.54118261 222.69387829 132.30859375 218.8046875 C132.08279512 212.79199262 133.58114382 209.10828949 137.421875 204.4140625 C142.78711765 200.02431851 148.7354179 196.52269825 155.78125 195.953125 C161.51434534 195.42163347 161.51434534 195.42163347 166.07421875 192.19921875 C169.73425511 186.30404568 172.04536669 179.7437294 174.171875 173.1640625 C173.31464844 172.58398438 172.45742187 172.00390625 171.57421875 171.40625 C152.60413314 158.48962103 152.60413314 158.48962103 150.171875 151.1640625 C149.42276158 146.30640948 149.62543981 142.45563658 151.546875 137.9140625 C155.22663454 134.05907632 159.50489135 131.67568347 164.171875 129.1640625 C162.17811741 127.17030491 160.89246184 126.51835275 158.359375 125.4140625 C153.54739697 123.08681494 150.58852494 119.99736239 148.171875 115.1640625 C147.64225856 108.9145885 148.39865426 105.19088618 152.171875 100.1640625 C158.08025341 93.41163003 165.86262809 88.29608693 173.171875 83.1640625 C172.2682448 80.10176017 171.27510324 77.15608617 170.171875 74.1640625 C169.69041016 72.70806641 169.69041016 72.70806641 169.19921875 71.22265625 C167.83822145 67.93613222 166.66408709 65.72106347 164.171875 63.1640625 C160.1564577 61.8386696 156.34583953 61.26987715 152.16796875 60.75390625 C145.66538449 59.93054201 139.76363945 57.22307563 135.234375 52.4140625 C129.96399336 44.1092187 129.51032796 36.74475711 131.171875 27.1640625 C118.0166574 17.12135575 118.0166574 17.12135575 103.21875 12.1875 C100.04331039 13.70249981 97.63036842 16.07352012 95.046875 18.4140625 C82.03147097 29.74645593 82.03147097 29.74645593 73.859375 29.2890625 C67.00538968 27.19801613 64.21453011 21.96238626 60.6015625 16.15234375 C59.16066042 13.90257684 59.16066042 13.90257684 56.171875 12.1640625 C52.63467747 12.1640625 51.39846775 13.20393039 48.78125 15.46484375 Z M135.171875 31.1640625 C134.61770485 40.14032618 134.61770485 40.14032618 138.171875 48.1640625 C142.86520073 53.09205451 148.55171447 55.62402516 155.171875 57.1640625 C157.42710226 56.8503085 157.42710226 56.8503085 159.171875 56.1640625 C152.12480262 46.78307226 144.99822561 37.75066264 135.171875 31.1640625 Z M-36.828125 43.1640625 C-42.84755177 48.97023054 -42.84755177 48.97023054 -45.828125 56.1640625 C-39.01466947 55.73822153 -33.805427 53.52970824 -29.2109375 48.3359375 C-25.8471097 43.50874959 -25.30914919 39.9765916 -25.828125 34.1640625 C-29.35331165 34.1640625 -34.45034847 40.83956947 -36.828125 43.1640625 Z M-66.328125 65.9765625 C-67.1015625 66.31300781 -67.875 66.64945312 -68.671875 66.99609375 C-70.81525684 68.15709224 -72.21240353 69.35673304 -73.828125 71.1640625 C-72.62898822 75.56089738 -71.3993135 78.26247184 -67.828125 81.1640625 C-67.168125 81.1640625 -66.508125 81.1640625 -65.828125 81.1640625 C-64.65679442 78.70785399 -63.49090778 76.24931333 -62.328125 73.7890625 C-61.99425781 73.09039062 -61.66039062 72.39171875 -61.31640625 71.671875 C-59.47603102 68.07578251 -59.47603102 68.07578251 -58.828125 64.1640625 C-61.97369532 64.1640625 -63.49390572 64.71533492 -66.328125 65.9765625 Z M171.171875 65.1640625 C173.481875 69.7840625 175.791875 74.4040625 178.171875 79.1640625 C182.2464106 75.68581169 182.2464106 75.68581169 183.171875 72.1640625 C179.20613252 67.90173934 179.20613252 67.90173934 174.171875 65.1640625 C173.181875 65.1640625 172.191875 65.1640625 171.171875 65.1640625 Z M167.796875 92.9140625 C166.86101562 93.61015625 165.92515625 94.30625 164.9609375 95.0234375 C163.58035156 96.08304687 163.58035156 96.08304687 162.171875 97.1640625 C161.29015625 97.83179687 160.4084375 98.49953125 159.5 99.1875 C156.1350616 102.04431012 153.96607594 105.13881169 152.171875 109.1640625 C151.89939694 112.57003822 152.28497091 114.12064592 154.5 116.7265625 C159.26776266 121.18241545 165.24248218 124.88991882 171.859375 125.3515625 C176.00590735 123.2222621 179.09915906 119.30949438 181.171875 115.1640625 C181.24839752 106.04257771 178.91271203 97.78176404 176.171875 89.1640625 C172.22907327 89.1640625 170.92534698 90.56556572 167.796875 92.9140625 Z M-63.828125 90.1640625 C-68.68331016 102.24415909 -68.68331016 102.24415909 -67.82421875 114.6328125 C-64.88311464 118.74882243 -61.34381979 121.9062151 -56.828125 124.1640625 C-51.69734111 123.60092768 -48.21797486 119.76902319 -44.828125 116.1640625 C-42.96466599 113.24985213 -42.96466599 113.24985213 -42.828125 110.1640625 C-45.57719887 101.13139121 -54.99974764 94.68636365 -62.828125 90.1640625 C-63.158125 90.1640625 -63.488125 90.1640625 -63.828125 90.1640625 Z M-69.828125 121.1640625 C-69.828125 126.4440625 -69.828125 131.7240625 -69.828125 137.1640625 C-68.714375 136.2359375 -67.600625 135.3078125 -66.453125 134.3515625 C-65.51339844 133.56845703 -65.51339844 133.56845703 -64.5546875 132.76953125 C-62.6060202 131.08180511 -62.6060202 131.08180511 -60.828125 128.1640625 C-62.13798773 126.99443564 -63.4510876 125.82843306 -64.765625 124.6640625 C-65.49652344 124.014375 -66.22742188 123.3646875 -66.98046875 122.6953125 C-68.5565005 121.0577124 -68.5565005 121.0577124 -69.828125 121.1640625 Z M181.171875 124.1640625 C179.81359529 125.81046215 178.47933249 127.47702057 177.171875 129.1640625 C179.646875 131.1440625 179.646875 131.1440625 182.171875 133.1640625 C182.171875 130.1940625 182.171875 127.2240625 182.171875 124.1640625 C181.841875 124.1640625 181.511875 124.1640625 181.171875 124.1640625 Z M-62.87890625 137.1875 C-66.77687409 141.12151195 -66.77687409 141.12151195 -68.828125 146.1640625 C-68.53968832 153.70614743 -66.19184644 161.04138191 -63.828125 168.1640625 C-50.74306919 160.76126177 -50.74306919 160.76126177 -41.828125 149.1640625 C-41.20789209 145.9939832 -41.21572412 144.13211887 -42.96484375 141.3671875 C-46.12276371 137.48816771 -49.46050945 134.59051558 -53.828125 132.1640625 C-58.15594558 132.1640625 -59.79756078 134.32828479 -62.87890625 137.1875 Z M155.484375 140.6640625 C153.75114858 143.96544616 153.4481071 145.4728462 154.171875 149.1640625 C158.38973442 157.52889294 167.7900797 164.35415554 176.171875 168.1640625 C181.39482014 154.41515404 181.39482014 154.41515404 180.44921875 140.28515625 C178.39407777 136.29968042 176.2746218 133.95243931 172.171875 132.1640625 C166.00494891 132.1640625 159.88539843 136.57008722 155.484375 140.6640625 Z M-66.828125 177.1640625 C-70.6509366 180.90063698 -70.6509366 180.90063698 -72.140625 185.7890625 C-70.10010038 189.48144038 -66.72892956 190.80561111 -62.828125 192.1640625 C-61.838125 192.1640625 -60.848125 192.1640625 -59.828125 192.1640625 C-61.42702986 186.96762171 -63.56950503 182.09794108 -65.828125 177.1640625 C-66.158125 177.1640625 -66.488125 177.1640625 -66.828125 177.1640625 Z M178.171875 177.1640625 C177.16726969 179.28688919 176.16831898 181.41239271 175.171875 183.5390625 C174.615 184.72242188 174.058125 185.90578125 173.484375 187.125 C172.03971459 189.91834825 172.03971459 189.91834825 172.171875 192.1640625 C176.51369331 191.65919991 179.7194242 190.92602314 183.171875 188.1640625 C184.51294861 185.87648683 184.51294861 185.87648683 184.171875 183.1640625 C182.71688374 180.82725836 181.12043234 179.15901406 179.171875 177.1640625 C178.841875 177.1640625 178.511875 177.1640625 178.171875 177.1640625 Z M-46.828125 200.1640625 C-45.3369492 205.02619935 -42.57837424 207.95483617 -39.140625 211.5390625 C-38.60405273 212.10906982 -38.06748047 212.67907715 -37.51464844 213.26635742 C-33.69427914 217.30837262 -29.80593124 221.27666095 -25.828125 225.1640625 C-25.168125 224.8340625 -24.508125 224.5040625 -23.828125 224.1640625 C-23.41358763 217.39328547 -24.70727606 212.76967692 -29.015625 207.4765625 C-34.50309857 202.96463979 -39.77025928 200.75221798 -46.828125 200.1640625 Z M142.234375 205.8515625 C138.43093043 210.11603066 136.4145844 214.93922634 135.796875 220.6015625 C135.93492388 223.32528881 135.93492388 223.32528881 138.171875 225.1640625 C149.94589647 213.85034172 149.94589647 213.85034172 160.171875 201.1640625 C154.08110829 198.94272405 147.50595552 202.82320773 142.234375 205.8515625 Z M26.171875 236.1640625 C21.98750147 239.62625989 18.07470278 243.39132898 14.171875 247.1640625 C31.73937784 258.87573106 60.98559721 256.72126727 80.78125 253.09765625 C86.72022712 251.9012875 92.45953595 250.18440504 98.171875 248.1640625 C93.14122186 241.63780978 86.56592528 234.79482189 78.484375 232.3515625 C76.04376247 231.93638279 76.04376247 231.93638279 73.734375 233.5390625 C71.47307136 235.85551989 69.91364262 237.96454542 68.171875 240.6640625 C65.86441377 244.2280039 63.95461699 247.04203651 60.171875 249.1640625 C56.50173654 249.62282981 54.05530556 249.50881589 50.609375 248.1640625 C47.12716553 245.30686499 44.75173702 241.83018222 42.171875 238.1640625 C39.7847385 234.59004521 39.7847385 234.59004521 36.2734375 232.45703125 C32.33013163 231.90731389 29.31268078 234.02992524 26.171875 236.1640625 Z M-20.828125 236.1640625 C-22.24013329 237.35714388 -22.24013329 237.35714388 -22.078125 240.7890625 C-22.00780682 245.14097677 -21.00086091 248.34304417 -18.828125 252.1640625 C-15.73756734 254.98971522 -14.22827204 255.17062229 -10.015625 255.1015625 C-5.52306969 254.34852466 -1.75228406 252.40793005 2.171875 250.1640625 C0.11836307 247.96311086 -1.85103433 246.42963701 -4.48046875 244.97265625 C-5.17462891 244.58529297 -5.86878906 244.19792969 -6.58398438 243.79882812 C-7.66389648 243.20618164 -7.66389648 243.20618164 -8.765625 242.6015625 C-9.48169922 242.20259766 -10.19777344 241.80363281 -10.93554688 241.39257812 C-14.20194378 239.57925862 -17.47826369 237.81928263 -20.828125 236.1640625 Z M128.43359375 238.24609375 C127.32661133 238.90254883 127.32661133 238.90254883 126.19726562 239.57226562 C125.04000977 240.26739258 125.04000977 240.26739258 123.859375 240.9765625 C123.09947266 241.42837891 122.33957031 241.88019531 121.55664062 242.34570312 C119.42562557 243.61394406 117.29804928 244.88772686 115.171875 246.1640625 C114.16769531 246.76605469 113.16351563 247.36804688 112.12890625 247.98828125 C111.16017578 248.57029297 111.16017578 248.57029297 110.171875 249.1640625 C113.51011154 252.92486062 117.34670096 254.1042905 122.171875 255.1640625 C126.61108178 255.1640625 128.35274793 254.9616336 131.546875 251.8515625 C133.88981393 247.97670196 134.30036637 244.90147578 134.234375 240.4140625 C134.22535156 239.61484375 134.21632812 238.815625 134.20703125 237.9921875 C134.19542969 237.38890625 134.18382812 236.785625 134.171875 236.1640625 C131.65110504 236.1640625 130.59268572 236.95738979 128.43359375 238.24609375 Z " fill="#EDA152" transform="translate(78.828125,2.8359375)"/>
<path d="M0 0 C0.6911792 0.2072168 1.3823584 0.41443359 2.09448242 0.62792969 C2.86977295 0.85005127 3.64506348 1.07217285 4.44384766 1.30102539 C5.27086182 1.54812256 6.09787598 1.79521973 6.94995117 2.04980469 C31.70003795 8.94149787 57.00041163 8.80968505 81.35229492 0.27636719 C84.13745117 -0.20019531 84.13745117 -0.20019531 86.51635742 1.07324219 C88.13745117 2.79980469 88.13745117 2.79980469 88.13745117 4.79980469 C56.5372407 15.56003786 25.73766164 15.56003786 -5.86254883 4.79980469 C-4.78757161 1.57487304 -3.74807409 -0.40286024 0 0 Z " fill="#1A3762" transform="translate(93.862548828125,250.2001953125)"/>
<path d="M0 0 C14.8822645 -0.40983861 36.06279923 0.69551199 48.70703125 9.125 C47.46557617 10.63647461 47.46557617 10.63647461 45.70703125 12.125 C43.75512695 12.27172852 43.75512695 12.27172852 41.5703125 11.94140625 C40.77061035 11.82297363 39.9709082 11.70454102 39.14697266 11.58251953 C36.14773515 11.02012499 33.19249515 10.3365866 30.22851562 9.61328125 C8.56087173 4.50007993 -13.93029799 5.94121434 -35.16015625 12.26953125 C-38.43267963 13.16315048 -40.1293187 13.30007002 -43.29296875 12.125 C-43.95296875 11.135 -44.61296875 10.145 -45.29296875 9.125 C-30.37307527 3.70153297 -15.88579606 0.86600592 0 0 Z " fill="#1A3762" transform="translate(132.29296875,-0.125)"/>
<path d="M0 0 C11.88282123 6.64230298 25.57623082 20.2700947 31 33 C27.7734375 33.3046875 27.7734375 33.3046875 24 33 C21.6640625 30.9453125 21.6640625 30.9453125 19.625 28.125 C18.86703125 27.12339844 18.1090625 26.12179688 17.328125 25.08984375 C16.55984375 24.07019531 15.7915625 23.05054687 15 22 C10.91699082 17.18396736 6.90257524 12.59050886 1.875 8.75 C0.92625 7.8425 -0.0225 6.935 -1 6 C-0.9375 2.625 -0.9375 2.625 0 0 Z " fill="#1B3762" transform="translate(215,28)"/>
<path d="M0 0 C1.4540625 0.0309375 1.4540625 0.0309375 2.9375 0.0625 C-1.98052366 9.48871201 -8.9026479 17.08937819 -16.3125 24.625 C-16.91497559 25.24511963 -17.51745117 25.86523926 -18.13818359 26.50415039 C-18.71648926 27.08156982 -19.29479492 27.65898926 -19.890625 28.25390625 C-20.6626123 29.03036499 -20.6626123 29.03036499 -21.45019531 29.82250977 C-23.29338134 31.24006607 -24.79258369 31.65373052 -27.0625 32.0625 C-27.5 29.515625 -27.5 29.515625 -27.0625 26.0625 C-25.04639538 23.31578867 -22.56989357 21.10705186 -20.0625 18.8125 C-18.68111854 17.49614002 -17.30349343 16.17582667 -15.9296875 14.8515625 C-15.26291992 14.20993164 -14.59615234 13.56830078 -13.90917969 12.90722656 C-10.25146294 9.25337837 -7.16414686 5.19191149 -4.0625 1.0625 C-3.0625 0.0625 -3.0625 0.0625 0 0 Z " fill="#1B3762" transform="translate(243.0625,201.9375)"/>
<path d="M0 0 C2.75 -0.25 2.75 -0.25 6 0 C8.90357059 2.53776642 11.17340314 5.43868834 13.5 8.5 C15.90202826 11.57532406 18.36738341 14.41957185 21.1875 17.109375 C21.73470703 17.63208984 22.28191406 18.15480469 22.84570312 18.69335938 C23.9302992 19.71392971 25.02770199 20.7210951 26.13867188 21.71289062 C28.87745745 24.28953446 29.95429939 25.5533804 30.34375 29.359375 C30.2303125 30.23078125 30.116875 31.1021875 30 32 C24.7036274 30.50692734 21.56589022 27.06113469 17.8125 23.25 C17.15628662 22.58983887 16.50007324 21.92967773 15.82397461 21.24951172 C0 4.96291571 0 4.96291571 0 0 Z " fill="#1B3762" transform="translate(24,202)"/>
<path d="M0 0 C2 3 2 3 1.8671875 5.47265625 C0.81425022 8.54135182 -0.32229708 9.47073779 -2.875 11.4375 C-7.76803175 15.48261369 -11.31846743 20.09972647 -14.84130859 25.33959961 C-17.9938343 29.70137058 -17.9938343 29.70137058 -21.12060547 30.62939453 C-23.33984375 30.91015625 -23.33984375 30.91015625 -27 31 C-19.92371347 19.2682618 -10.6207164 8.63603707 0 0 Z " fill="#1B3762" transform="translate(51,30)"/>
<path d="M0 0 C0 0.66 0 1.32 0 2 C-1.11117187 2.56847656 -2.22234375 3.13695312 -3.3671875 3.72265625 C-10.99379327 7.6675706 -18.34374921 11.58763877 -25.21484375 16.78515625 C-27 18 -27 18 -29 18 C-29.33 16.02 -29.66 14.04 -30 12 C-6.75186104 -3.37593052 -6.75186104 -3.37593052 0 0 Z " fill="#1B3762" transform="translate(86,14)"/>
<path d="M0 0 C0.6875 3.0625 0.6875 3.0625 0 7 C-3.32446448 9.92149909 -7.1236215 11.89650165 -11 14 C-11.99128906 14.59683594 -12.98257813 15.19367188 -14.00390625 15.80859375 C-21.19760719 20.04651553 -21.19760719 20.04651553 -24.6953125 19.84375 C-27 19 -27 19 -29 16 C-28.20734741 15.59273682 -28.20734741 15.59273682 -27.39868164 15.17724609 C-14.54473231 8.66992444 -14.54473231 8.66992444 -2.3984375 0.9609375 C-1 0 -1 0 0 0 Z " fill="#1C3762" transform="translate(212,232)"/>
<path d="M0 0 C4.70836542 2.57026711 9.36110334 5.20049269 13.9375 8 C18.82148078 10.95952367 23.85567494 13.52634582 29 16 C27.3125 18.0625 27.3125 18.0625 25 20 C20.08542048 19.75785831 16.09057403 17.03081374 11.9375 14.625 C11.23044922 14.22539062 10.52339844 13.82578125 9.79492188 13.4140625 C2.17694631 9.06502105 2.17694631 9.06502105 0 7 C-0.25 3.3125 -0.25 3.3125 0 0 Z " fill="#1C3762" transform="translate(58,232)"/>
<path d="M0 0 C8.14195657 2.45882449 17.41370668 7.10235664 23.7421875 12.828125 C24.1796875 15.640625 24.1796875 15.640625 23.7421875 17.828125 C19.02260992 17.828125 17.63484905 16.75052851 13.7421875 14.203125 C7.62136829 10.2765286 1.31289754 6.95365194 -5.2578125 3.828125 C-5.2578125 3.168125 -5.2578125 2.508125 -5.2578125 1.828125 C-2.2578125 -0.171875 -2.2578125 -0.171875 0 0 Z " fill="#1C3762" transform="translate(187.2578125,11.171875)"/>
<path d="M0 0 C0.99 0.33 1.98 0.66 3 1 C3.87469675 3.36469741 4.53862619 5.56292044 5.125 8 C5.29676758 8.67683838 5.46853516 9.35367676 5.64550781 10.05102539 C6.87092508 15.03775983 7.6410722 19.88527883 8 25 C6.35 25 4.7 25 3 25 C2.71769531 24.00484375 2.43539063 23.0096875 2.14453125 21.984375 C1.39757101 19.36109819 0.62070783 16.74924259 -0.17578125 14.140625 C-0.55538976 12.84395538 -0.93429353 11.54707925 -1.3125 10.25 C-1.51939453 9.59128906 -1.72628906 8.93257812 -1.93945312 8.25390625 C-2.48828125 6.328125 -2.48828125 6.328125 -3 3 C-1.60546875 1.046875 -1.60546875 1.046875 0 0 Z " fill="#1A3762" transform="translate(257,88)"/>
<path d="M0 0 C0.66 0 1.32 0 2 0 C5.34769977 5.38465995 5.45623176 9.86248927 5.375 16 C5.38660156 16.8765625 5.39820313 17.753125 5.41015625 18.65625 C5.38659868 23.87032634 4.82767905 27.4517755 2 32 C1.34 31.67 0.68 31.34 0 31 C0 20.77 0 10.54 0 0 Z " fill="#1C3762" transform="translate(4,116)"/>
<path d="M0 0 C-1.42998755 3.08687185 -2.87029329 6.1688204 -4.3125 9.25 C-4.91868164 10.55904297 -4.91868164 10.55904297 -5.53710938 11.89453125 C-5.93349609 12.73886719 -6.32988281 13.58320312 -6.73828125 14.453125 C-7.09962158 15.22817383 -7.46096191 16.00322266 -7.83325195 16.80175781 C-9.03229808 19.06085204 -10.41445281 20.99762342 -12 23 C-13.32 21.68 -14.64 20.36 -16 19 C-14.74303669 16.20188261 -13.46711873 13.41282083 -12.1875 10.625 C-11.83107422 9.8309375 -11.47464844 9.036875 -11.10742188 8.21875 C-10.75615234 7.45820312 -10.40488281 6.69765625 -10.04296875 5.9140625 C-9.72352295 5.2123291 -9.40407715 4.5105957 -9.07495117 3.78759766 C-6.75911052 -0.06354594 -4.11483348 -0.22242343 0 0 Z " fill="#1E3862" transform="translate(28,65)"/>
<path d="M0 0 C1.65 0 3.3 0 5 0 C6.43952108 3.98636608 7.59671872 8.03206841 8.6875 12.125 C8.95949219 13.13820312 9.23148438 14.15140625 9.51171875 15.1953125 C9.98729747 17.92703665 9.91854222 19.42315003 9 22 C7.68 22.33 6.36 22.66 5 23 C2.65687944 15.33854067 0.55363461 8.02770189 0 0 Z " fill="#1B3762" transform="translate(5,151)"/>
<path d="M0 0 C1.2065625 0.0309375 1.2065625 0.0309375 2.4375 0.0625 C1.88386539 8.09020189 -0.21937944 15.40104067 -2.5625 23.0625 C-5.0375 22.0725 -5.0375 22.0725 -7.5625 21.0625 C-7.08824038 18.69120192 -6.61357972 16.31999564 -6.13671875 13.94921875 C-5.75629257 12.03673611 -5.38378882 10.12265917 -5.01953125 8.20703125 C-4.84808594 7.31371094 -4.67664063 6.42039063 -4.5 5.5 C-4.34402344 4.67371094 -4.18804687 3.84742188 -4.02734375 2.99609375 C-3.3222853 0.06328759 -3.09642444 0.07552255 0 0 Z " fill="#1B3762" transform="translate(262.5625,150.9375)"/>
<path d="M0 0 C2.475 0.99 2.475 0.99 5 2 C4.52574038 4.37129808 4.05107972 6.74250436 3.57421875 9.11328125 C3.19379257 11.02576389 2.82128882 12.93984083 2.45703125 14.85546875 C2.28558594 15.74878906 2.11414063 16.64210938 1.9375 17.5625 C1.78152344 18.38878906 1.62554688 19.21507813 1.46484375 20.06640625 C1 22 1 22 0 23 C-1.66617115 23.04063832 -3.33388095 23.042721 -5 23 C-4.44636539 14.97229811 -2.34312056 7.66145933 0 0 Z " fill="#1A3762" transform="translate(10,90)"/>
<path d="M0 0 C1.32 0.66 2.64 1.32 4 2 C3.70302239 8.68199612 0.80528873 16.19471127 -4 21 C-5.99958364 21.04080783 -8.00045254 21.04254356 -10 21 C-8.70892916 18.24971886 -7.41716659 15.49976627 -6.125 12.75 C-5.76019531 11.97269531 -5.39539063 11.19539062 -5.01953125 10.39453125 C-4.66503906 9.64042969 -4.31054688 8.88632813 -3.9453125 8.109375 C-3.62062988 7.41811523 -3.29594727 6.72685547 -2.96142578 6.01464844 C-1.99856899 3.99700135 -1.00603787 1.99641757 0 0 Z " fill="#1D3862" transform="translate(253,176)"/>
<path d="M0 0 C2.69603158 1.34801579 2.95822322 2.73367846 4.1640625 5.47265625 C4.56367188 6.37177734 4.96328125 7.27089844 5.375 8.19726562 C5.7875 9.14279297 6.2 10.08832031 6.625 11.0625 C7.25535156 12.4865918 7.25535156 12.4865918 7.8984375 13.93945312 C8.93808963 16.29048464 9.97164456 18.64401051 11 21 C8.16796875 21.22265625 8.16796875 21.22265625 5 21 C3.42578125 19.49609375 3.42578125 19.49609375 2.3125 17.4375 C1.91289062 16.70917969 1.51328125 15.98085937 1.1015625 15.23046875 C0.73804688 14.49441406 0.37453125 13.75835937 0 13 C-0.32226562 12.35675781 -0.64453125 11.71351563 -0.9765625 11.05078125 C-2.50826603 7.75117692 -3 5.70317977 -3 2 C-2.01 1.34 -1.02 0.68 0 0 Z " fill="#1D3862" transform="translate(16,176)"/>
<path d="M0 0 C3.24609375 0.07421875 3.24609375 0.07421875 7 1 C8.80667004 3.38727511 9.881712 5.1483638 11.0625 7.8125 C11.38154297 8.44220703 11.70058594 9.07191406 12.02929688 9.72070312 C13.35520166 12.5224487 14.17687868 14.32873993 13.37109375 17.38671875 C12 19 12 19 9 20 C7.68253667 17.41909233 6.37090383 14.83549542 5.0625 12.25 C4.68931641 11.52039063 4.31613281 10.79078125 3.93164062 10.0390625 C3.57392578 9.33007812 3.21621094 8.62109375 2.84765625 7.890625 C2.51773682 7.24125977 2.18781738 6.59189453 1.84790039 5.92285156 C0.98547884 3.96706921 0.45625821 2.08459306 0 0 Z " fill="#1D3862" transform="translate(243,66)"/>
<path d="M0 0 C0.33 0 0.66 0 1 0 C1 10.56 1 21.12 1 32 C0.67 32 0.34 32 0 32 C-0.20496094 31.37351563 -0.40992188 30.74703125 -0.62109375 30.1015625 C-1.02521484 28.87566406 -1.02521484 28.87566406 -1.4375 27.625 C-1.70433594 26.81289062 -1.97117187 26.00078125 -2.24609375 25.1640625 C-2.95179729 22.98968201 -2.95179729 22.98968201 -4 21 C-4.14851844 19.06640414 -4.22130833 17.12657903 -4.25 15.1875 C-4.27578125 14.14980469 -4.3015625 13.11210937 -4.328125 12.04296875 C-3.95825413 8.61285677 -2.91266363 6.8274158 -1 4 C-0.30420546 1.80869466 -0.30420546 1.80869466 0 0 Z " fill="#1E3862" transform="translate(265,116)"/>
</svg>
