<?xml version="1.0" encoding="UTF-8"?>
<svg version="1.1" xmlns="http://www.w3.org/2000/svg" width="454" height="442">
<path d="M0 0 C31.49017809 19.12072283 52.35830446 59.6360426 60.9921875 94.27734375 C63.56149445 105.77639207 64.37312821 117.00920136 64.3125 128.75 C64.31034485 129.50178528 64.3081897 130.25357056 64.30596924 131.02813721 C64.25555558 141.9836376 63.83903467 152.36177813 61 163 C60.82259277 163.7312207 60.64518555 164.46244141 60.46240234 165.21582031 C52.41388435 198.13350797 32.76018054 230.11919882 6.4609375 251.6953125 C4.62969308 253.3307019 4.05794591 254.45842858 3.796875 256.8984375 C3.09193518 294.14275775 19.30285048 333.2014662 42 362 C42.66 362.99 43.32 363.98 44 365 C44.03440186 364.34330322 44.06880371 363.68660645 44.10424805 363.01000977 C46.91611094 312.67984366 63.1239331 271.30888512 101 237 C126.88120818 215.05809291 163.39650918 202.07388617 197.171875 201.76171875 C198.01671448 201.753647 198.86155396 201.74557526 199.73199463 201.73725891 C201.50343839 201.72352417 203.27490743 201.71275536 205.04638672 201.70483398 C206.85603604 201.69323157 208.66564902 201.67265208 210.47509766 201.64331055 C213.10342406 201.60078022 215.73074803 201.58449592 218.359375 201.57421875 C219.57037872 201.54795662 219.57037872 201.54795662 220.80584717 201.52116394 C224.45188446 201.53529794 226.55015099 201.6595405 229.50195312 203.89355469 C232.32782077 207.86708566 231.87796283 212.25646807 232 217 C232.02046387 217.67514648 232.04092773 218.35029297 232.06201172 219.04589844 C233.24050361 262.85463017 220.94034687 305.53586062 190.6875 338.125 C188.80824319 340.10045331 186.90701192 342.051045 185 344 C184.38898438 344.66128906 183.77796875 345.32257813 183.1484375 346.00390625 C153.89841084 377.05504293 110.73141333 386.4029994 70 389 C70 389.66 70 390.32 70 391 C71.44620481 392.27232881 71.44620481 392.27232881 73.375 393.50390625 C74.10452881 393.9927832 74.83405762 394.48166016 75.58569336 394.98535156 C76.38241455 395.50581055 77.17913574 396.02626953 78 396.5625 C78.81799072 397.0997168 79.63598145 397.63693359 80.47875977 398.19042969 C109.48260662 417.04587455 141.27183789 428.99821785 176.1784668 429.53442383 C180.58123793 429.65887112 183.54438434 430.18234415 187 433 C187.5625 436 187.5625 436 187 439 C184.94378422 440.9702406 183.60912082 441.91272538 180.77124023 442.31933594 C179.97919189 442.29129883 179.18714355 442.26326172 178.37109375 442.234375 C177.49050293 442.20666016 176.60991211 442.17894531 175.70263672 442.15039062 C174.36483154 442.07594727 174.36483154 442.07594727 173 442 C172.18418457 441.95552734 171.36836914 441.91105469 170.52783203 441.86523438 C131.12548774 439.23682804 92.58192554 425.25648423 62 400 C61.4318457 399.53867676 60.86369141 399.07735352 60.27832031 398.60205078 C38.4772077 380.84731125 21.12663436 358.43300916 9 333 C9 332.34 9 331.68 9 331 C8.33806641 331.27150879 7.67613281 331.54301758 6.99414062 331.82275391 C-38.94488471 350.50030326 -83.91647208 355.58242265 -130.8125 336.6875 C-154.49037785 326.68393701 -175.52747466 310.58373658 -191 290 C-191.59675537 289.21568604 -191.59675537 289.21568604 -192.20556641 288.41552734 C-202.26036437 275.12812949 -209.65508244 261.35217795 -216 245.9375 C-216.48138428 244.77130127 -216.96276855 243.60510254 -217.45874023 242.40356445 C-222.10246598 230.82230507 -222.10246598 230.82230507 -222 226 C-219.31152344 222.00973478 -215.01658875 220.22344159 -210.75 218.25 C-209.64821411 217.74001465 -209.64821411 217.74001465 -208.52416992 217.21972656 C-167.9331354 199.01956739 -121.91330159 195.24355122 -79.92871094 211.15332031 C-51.94447442 222.20982589 -25.35434807 241.3319893 -9 267 C-8.20121607 260.30065851 -8.20121607 260.30065851 -10.06640625 253.98046875 C-11.92993787 251.83670681 -13.9150722 249.9312312 -16 248 C-47.61339482 217.76917532 -68.70746312 178.9203594 -70.23828125 134.49609375 C-70.7690951 105.67504379 -64.86679348 79.30034447 -51 54 C-50.35537337 52.78650899 -49.71084108 51.57296787 -49.06640625 50.359375 C-42.13549877 37.5499793 -16.32598171 -2.64688419 0 0 Z M-11.08154297 20.06542969 C-40.49905914 48.57494342 -58.29715756 86.45124387 -59.04785156 127.62451172 C-58.91871764 166.14228998 -44.11805486 200.82766258 -17.97265625 228.87109375 C-16.09180421 230.90092417 -14.32317807 232.99097333 -12.5625 235.125 C-11.716875 236.07375 -10.87125 237.0225 -10 238 C-9.34 238 -8.68 238 -8 238 C-7.39240242 205.95623813 -12.45776038 177.89309338 -34.40161133 153.43798828 C-37.08228364 150.40106312 -37.97590594 149.29876638 -38.3125 145.125 C-38.209375 144.09375 -38.10625 143.0625 -38 142 C-34.8125 141.6875 -34.8125 141.6875 -31 142 C-26.2716618 145.96672668 -22.96126042 151.0384043 -19.4375 156.0625 C-14.70110593 162.93587422 -14.70110593 162.93587422 -9 169 C-8.11258039 141.97124657 -12.50018415 118.91949442 -29.88671875 97.390625 C-30.38977539 96.76623535 -30.89283203 96.1418457 -31.41113281 95.49853516 C-32.40895716 94.27375843 -33.41961822 93.05930004 -34.44433594 91.85693359 C-36.52709121 89.33037218 -37.91562139 87.4670258 -38.50390625 84.2109375 C-38 82 -38 82 -35 80 C-32.0628602 80.18941815 -30.48216278 80.59355748 -28.2199707 82.50048828 C-23.87993112 87.75390803 -19.9616787 93.2027221 -16.1875 98.875 C-15.05787456 100.56116018 -13.92644908 102.24611625 -12.79296875 103.9296875 C-12.3033667 104.66429199 -11.81376465 105.39889648 -11.30932617 106.15576172 C-9.99365585 108.11783264 -9.99365585 108.11783264 -8 110 C-7.67 94.82 -7.34 79.64 -7 64 C-4.69 63.67 -2.38 63.34 0 63 C2.88628485 65.88628485 2.27773639 67.97741209 2.31884766 72.02001953 C2.32889328 72.74207581 2.3389389 73.46413208 2.34928894 74.20806885 C2.38023072 76.59964181 2.39718626 78.99110229 2.4140625 81.3828125 C2.43276534 83.03906225 2.45233808 84.69530239 2.4727478 86.35153198 C2.52416855 90.71460309 2.56374086 95.07770512 2.60089111 99.44091797 C2.64086862 103.89168002 2.6919894 108.34231232 2.7421875 112.79296875 C2.83906443 121.52855734 2.92343132 130.26420992 3 139 C5.55333681 136.48373023 7.80478656 134.05521937 9.83984375 131.1015625 C10.34580078 130.37453125 10.85175781 129.6475 11.37304688 128.8984375 C11.88931641 128.14820313 12.40558594 127.39796875 12.9375 126.625 C22.78332212 112.35784643 22.78332212 112.35784643 27.1875 111.0625 C30 111 30 111 32 112 C32.42602721 116.31419964 32.42838661 118.38504502 29.91015625 122 C28.97364037 123.01190624 28.02357703 124.01139129 27.0625 125 C9.59998801 144.31348166 2.79425093 167.76353927 2.90234375 193.46875 C2.9037587 194.74480103 2.90517365 196.02085205 2.90663147 197.33557129 C2.91125989 200.70238156 2.92022029 204.06912207 2.93133545 207.43591309 C2.9416267 210.88174848 2.9461455 214.32759112 2.95117188 217.7734375 C2.96216674 224.51564403 2.9788792 231.25781799 3 238 C4.11584456 237.05171844 5.23052817 236.10207068 6.34472656 235.15185547 C7.27602386 234.35882523 7.27602386 234.35882523 8.22613525 233.54977417 C17.5060497 225.44218212 24.39764879 215.29558132 31 205 C31.37398926 204.41879395 31.74797852 203.83758789 32.13330078 203.23876953 C50.74145592 173.82809517 58.02129208 136.37986823 50.96875 102.21875 C50.65159039 100.8111904 50.32859419 99.4049342 50 98 C49.75056641 96.90365234 49.75056641 96.90365234 49.49609375 95.78515625 C42.73363925 66.8819248 27.22525442 43.24892527 7 22 C6.30390625 21.25105469 5.6078125 20.50210937 4.890625 19.73046875 C4.28734375 19.09753906 3.6840625 18.46460938 3.0625 17.8125 C2.55847656 17.28269531 2.05445313 16.75289062 1.53515625 16.20703125 C-3.97477585 11.87479456 -6.7228022 15.92334753 -11.08154297 20.06542969 Z M-199.6875 226.1875 C-200.50790771 226.52031982 -201.32831543 226.85313965 -202.17358398 227.19604492 C-204.15570542 228.04260918 -206.08458476 229.01173845 -208 230 C-209.16043693 233.48131079 -208.86072871 234.00724166 -207.48046875 237.25390625 C-207.12283447 238.09953125 -206.7652002 238.94515625 -206.39672852 239.81640625 C-205.99768311 240.72261719 -205.5986377 241.62882812 -205.1875 242.5625 C-204.77878662 243.49835938 -204.37007324 244.43421875 -203.94897461 245.3984375 C-195.56646162 264.23082086 -185.16359662 279.97800359 -171 295 C-170.32839844 295.73605469 -169.65679687 296.47210938 -168.96484375 297.23046875 C-144.61626467 322.94438872 -107.96144559 336.63631165 -73.0703125 338.125 C-49.68100598 338.59161958 -26.43251498 333.19860373 -5 324 C-4.34 323.34 -3.68 322.68 -3 322 C-59.97505051 296.15305289 -59.97505051 296.15305289 -120.38671875 302.23046875 C-123.43296132 303.12749384 -125.84207401 303.34008434 -129 303 C-131 300 -131 300 -130.94921875 297.46875 C-130 295 -130 295 -127.83203125 293.59375 C-117.12641942 289.71590872 -106.13062478 287.33043241 -95 285 C-97.79948312 282.20051688 -101.19596038 281.14110698 -104.8125 279.69140625 C-106.00267227 279.20704102 -106.00267227 279.20704102 -107.21688843 278.71289062 C-108.92324256 278.01894356 -110.63050193 277.32721912 -112.33856201 276.63748169 C-116.78464 274.84166588 -121.2238666 273.02904852 -125.6640625 271.21875 C-126.9890123 270.67934532 -126.9890123 270.67934532 -128.34072876 270.12904358 C-136.04086175 266.99166025 -143.71619309 263.7994943 -151.375 260.5625 C-152.45394531 260.10883057 -153.53289062 259.65516113 -154.64453125 259.18774414 C-155.61519531 258.77645264 -156.58585937 258.36516113 -157.5859375 257.94140625 C-158.4217334 257.58763916 -159.2575293 257.23387207 -160.11865234 256.86938477 C-162 256 -162 256 -163 255 C-163.04092937 252.66702567 -163.04241723 250.33294775 -163 248 C-156.35582357 247.68048615 -151.73975703 248.40265335 -145.68359375 251.0625 C-144.94166275 251.37324463 -144.19973175 251.68398926 -143.43531799 252.00415039 C-141.09608452 252.98790136 -138.76698401 253.99341198 -136.4375 255 C-134.84111589 255.67594789 -133.24411501 256.35044111 -131.64648438 257.0234375 C-127.75699654 258.6655758 -123.8764281 260.32727949 -120 262 C-120 258.67053965 -120.46255987 257.94309914 -122.265625 255.26953125 C-122.74386719 254.54830078 -123.22210938 253.82707031 -123.71484375 253.08398438 C-124.22144531 252.33439453 -124.72804688 251.58480469 -125.25 250.8125 C-135.82533486 235.08828163 -135.82533486 235.08828163 -135 227 C-134 226 -134 226 -130.4375 225.9375 C-129.303125 225.958125 -128.16875 225.97875 -127 226 C-126.73896484 226.52319824 -126.47792969 227.04639648 -126.20898438 227.58544922 C-118.92574083 242.16310242 -118.92574083 242.16310242 -109 255 C-108.54286621 255.50192871 -108.08573242 256.00385742 -107.61474609 256.52099609 C-97.39434613 267.67382983 -86.38076309 275.06719839 -72.8125 281.625 C-72.0812793 281.98053955 -71.35005859 282.3360791 -70.59667969 282.70239258 C-66.4361326 284.76491032 -66.4361326 284.76491032 -62 284 C-62.4439209 283.26362305 -62.8878418 282.52724609 -63.34521484 281.76855469 C-64.99761353 279.02594477 -66.64866872 276.28253195 -68.29882812 273.53857422 C-69.01216069 272.35303102 -69.72602182 271.16780569 -70.44042969 269.98291016 C-71.46950254 268.27591048 -72.49649376 266.56765642 -73.5234375 264.859375 C-74.14138184 263.83295898 -74.75932617 262.80654297 -75.39599609 261.74902344 C-79.06325707 255.46388515 -79.06325707 255.46388515 -78.625 252.25 C-78.41875 251.5075 -78.2125 250.765 -78 250 C-74.535 249.505 -74.535 249.505 -71 249 C-70.07380859 250.74023438 -70.07380859 250.74023438 -69.12890625 252.515625 C-53.81086621 280.93466046 -33.5191656 298.22526866 -3.91796875 310.50390625 C-1.80298377 311.23639268 -1.80298377 311.23639268 1 310 C-7.65088988 290.72676497 -7.65088988 290.72676497 -19 273 C-19.96486328 271.72576172 -19.96486328 271.72576172 -20.94921875 270.42578125 C-41.20280191 244.44230423 -66.02505553 226.9863833 -97.625 217.75 C-98.45894287 217.5037085 -99.29288574 217.25741699 -100.15209961 217.00366211 C-111.91970355 213.69262961 -123.4899481 212.63253485 -135.6875 212.6875 C-137.0060498 212.69313965 -138.32459961 212.6987793 -139.68310547 212.70458984 C-160.85461784 212.9671218 -180.15246472 218.16262683 -199.6875 226.1875 Z M107 248 C106.47132324 248.44746582 105.94264648 248.89493164 105.39794922 249.35595703 C77.24786282 273.48334227 61.69587241 306.52747703 57 343 C56.80277344 344.52173828 56.80277344 344.52173828 56.6015625 346.07421875 C55.81353758 353.3687738 55.90371232 360.67143777 56 368 C62.64111499 362.55615644 68.60152662 356.47843099 74.625 350.375 C76.65588344 348.31734408 78.69018469 346.26315442 80.7265625 344.2109375 C81.61939941 343.30649902 82.51223633 342.40206055 83.43212891 341.47021484 C85.85150634 339.14284644 88.37003264 337.08150124 91 335 C94.18344576 331.4790865 97.08718463 327.74648322 100 324 C100.62390625 323.20335937 101.2478125 322.40671875 101.890625 321.5859375 C114.70468114 304.32736639 118.49685828 285.13831526 120.67456055 264.22387695 C121 262 121 262 122 260 C124.33294775 259.95758277 126.66702567 259.95907063 129 260 C130.57242405 261.57242405 130.20853547 263.05238005 130.25 265.25 C130.22258267 272.16830627 129.09384698 278.92524671 127.97949219 285.73730469 C127.8405957 286.61676758 127.70169922 287.49623047 127.55859375 288.40234375 C127.42767334 289.19116943 127.29675293 289.97999512 127.16186523 290.79272461 C126.99130257 293.11860245 127.38870057 294.76861353 128 297 C128.59468582 296.40309357 129.18937164 295.80618713 129.80207825 295.19119263 C135.4054923 289.56774572 141.01130604 283.94670451 146.61983204 278.32835579 C149.50317632 275.43979182 152.38558249 272.55030451 155.26586914 269.65869141 C158.04526649 266.86843281 160.82709584 264.08062043 163.61063194 261.29449081 C164.67244221 260.23083215 165.73337159 259.16629336 166.79340553 258.10086441 C168.27767608 256.60934053 169.76504104 255.12096984 171.25317383 253.63330078 C172.09922684 252.78502716 172.94527985 251.93675354 173.81697083 251.06277466 C176.63582108 248.39920381 178.18879273 247.04867244 182.125 246.8125 C185 247 185 247 186 248 C186.5 250.5625 186.5 250.5625 186 254 C181.20764557 260.77030376 174.62074651 266.49754275 168.75 272.3125 C167.40421875 273.65151367 167.40421875 273.65151367 166.03125 275.01757812 C164.37713288 276.66302846 162.72198449 278.30744327 161.06542969 279.95043945 C159.37306268 281.62980364 157.68436135 283.31261406 156 285 C160.71254087 284.44558343 165.38085262 283.77449475 170.0625 283 C175.0758368 282.22601116 180.0698654 281.64296564 185.125 281.25 C186.36507812 281.15203125 187.60515625 281.0540625 188.8828125 280.953125 C192 281 192 281 195 283 C195.375 286 195.375 286 195 289 C192.02446931 290.98368713 191.22153836 291.27077674 187.859375 291.4921875 C187.0437207 291.55486816 186.22806641 291.61754883 185.38769531 291.68212891 C184.51725586 291.74577637 183.64681641 291.80942383 182.75 291.875 C167.33700655 293.25382462 154.48057643 297.48304551 141 305 C139.51693359 305.81791016 139.51693359 305.81791016 138.00390625 306.65234375 C128.36712386 312.37287205 119.90534748 320.20431018 113 329 C113.82612793 328.87882812 114.65225586 328.75765625 115.50341797 328.6328125 C118.61509979 328.1798875 121.72762293 327.7333936 124.84082031 327.29101562 C126.83207841 327.00614049 128.82230521 326.71408614 130.8125 326.421875 C137.92751279 325.41571158 144.81180357 324.69475073 152 325 C152.125 328.375 152.125 328.375 152 332 C149.57954631 334.42045369 148.63646934 334.36185751 145.30078125 334.7109375 C143.86907593 334.87275513 143.86907593 334.87275513 142.40844727 335.0378418 C141.38678467 335.149104 140.36512207 335.26036621 139.3125 335.375 C108.42376822 339.14284854 85.8091088 353.10998031 65 376 C65 376.33 65 376.66 65 377 C107.50622493 378.14195828 145.5094633 364.68237742 177.02734375 335.91015625 C180.25630061 332.78350298 183.1630744 329.4838396 186 326 C186.76054687 325.08863281 187.52109375 324.17726563 188.3046875 323.23828125 C208.88699871 297.68672044 219.1436879 265.94346536 220.75 233.4375 C220.79479492 232.53362549 220.83958984 231.62975098 220.88574219 230.69848633 C221.09797247 225.01817434 220.83204181 219.62752605 220 214 C217.35639013 211.35639013 209.7277643 212.75799311 206.1875 212.75 C169.21072186 212.76170892 135.36918511 223.94804528 107 248 Z " fill="#1A3762" transform="translate(222,0)"/>
</svg>
