<?xml version="1.0" encoding="UTF-8"?>
<svg version="1.1" xmlns="http://www.w3.org/2000/svg" width="265" height="229">
<path d="M0 0 C2.89998661 2.81131795 5.03399688 5.68486375 7.171875 9.10546875 C9.4279543 6.93294794 11.37695309 4.82581681 13.234375 2.29296875 C20.37704321 -6.2349442 30.39177698 -9.76789834 41.171875 -10.89453125 C54.37681697 -11.24402914 65.47905328 -7.2946969 75.171875 1.66796875 C78.34083833 4.83693208 80.04572766 7.77612384 81.859375 11.85546875 C83.62826018 15.36907401 84.5172855 16.79900974 88.1171875 18.484375 C90.3725552 19.10970317 92.64041338 19.69152504 94.91796875 20.23046875 C103.3105357 22.48729348 111.15395277 29.14230752 115.64453125 36.52734375 C119.10966181 43.19494191 121.33894599 49.34173233 121.24511719 56.953125 C121.2197621 61.73832184 121.26715792 65.78304585 124.05859375 69.86328125 C126.35758131 72.04446944 128.74731728 74.06635354 131.171875 76.10546875 C138.71516868 85.05960289 140.90722331 96.99587348 140.5546875 108.39453125 C139.53683683 118.26145104 136.21134448 126.3031271 130.171875 134.10546875 C129.470625 135.05421875 128.769375 136.00296875 128.046875 136.98046875 C126.171875 139.10546875 126.171875 139.10546875 124.0859375 140.30078125 C121.84497747 142.04004986 121.84497747 142.04004986 121.703125 145.29296875 C121.6928125 146.55109375 121.6825 147.80921875 121.671875 149.10546875 C121.27907275 160.55324244 117.49412313 170.43367325 109.546875 178.8203125 C102.00086471 185.68508575 94.23694692 188.84498311 84.171875 190.10546875 C83.965625 190.93046875 83.759375 191.75546875 83.546875 192.60546875 C80.03618033 201.54178245 72.62074794 209.27233533 64.13671875 213.68359375 C51.62794799 219.07771051 40.1246829 219.4539114 27.171875 215.10546875 C19.48324454 211.36023381 12.08363108 205.92898091 8.171875 198.10546875 C7.56601563 198.82992187 6.96015625 199.554375 6.3359375 200.30078125 C-2.79435509 210.83573424 -11.97958651 216.8956504 -26.23828125 218.3515625 C-37.49985321 218.68921104 -48.35331768 215.28531461 -57.19140625 208.21484375 C-62.27757838 203.34897663 -66.58637767 197.83071073 -68.828125 191.10546875 C-71.12773169 190.25587515 -73.34758081 189.566601 -75.703125 188.91796875 C-87.38855403 185.32748157 -95.89715899 178.94927853 -101.828125 168.10546875 C-104.85479547 161.96882496 -105.98752644 156.56171035 -106.265625 149.73046875 C-106.40053915 144.66127626 -106.40053915 144.66127626 -108.890625 140.41796875 C-109.86 139.65484375 -110.829375 138.89171875 -111.828125 138.10546875 C-122.15485204 125.64782979 -125.79442443 114.18745212 -124.828125 98.10546875 C-122.53827611 84.83781488 -116.20273959 76.48008334 -106.828125 67.10546875 C-106.62162368 64.44160168 -106.50978426 61.83496027 -106.453125 59.16796875 C-105.86301001 45.31916188 -101.11465039 35.97698181 -91.140625 26.35546875 C-85.56753061 21.67320036 -78.63647542 19.08089183 -71.640625 17.2890625 C-68.06880981 15.78592361 -67.51637846 14.46623267 -65.953125 10.98046875 C-60.7746466 0.77032449 -53.50465978 -4.84435325 -42.828125 -8.89453125 C-27.33087876 -13.25062248 -12.27100076 -10.4147188 0 0 Z M-52.828125 11.10546875 C-54.83403279 14.2722192 -54.83403279 14.2722192 -55.828125 17.10546875 C-55.06628906 17.32460938 -54.30445313 17.54375 -53.51953125 17.76953125 C-42.96675926 21.01045748 -35.38589585 24.53781566 -29.984375 34.515625 C-27.32648446 40.46894064 -26.179729 45.67672433 -27.828125 52.10546875 C-33.578125 53.23046875 -33.578125 53.23046875 -35.828125 52.10546875 C-36.47314721 50.08244455 -37.04442833 48.03566909 -37.578125 45.98046875 C-39.7985651 38.50799135 -42.29325487 34.1448169 -49.078125 30.23046875 C-58.874573 27.29153435 -68.56429007 27.56892206 -78.015625 31.73046875 C-86.0197883 36.16809522 -91.74831713 43.22484672 -94.38720703 51.95507812 C-94.85748785 54.24867362 -94.79538692 56.04611184 -94.57421875 58.37109375 C-93.66727593 71.56142679 -93.66727593 71.56142679 -96.83984375 75.78125 C-99.453125 77.66796875 -99.453125 77.66796875 -102.2109375 79.34765625 C-108.26549584 83.41415066 -111.91723151 91.74344359 -113.3828125 98.76171875 C-114.46605948 108.37883826 -112.75571564 117.33428266 -107.203125 125.41796875 C-100.8792298 132.97151024 -91.02458714 141.08300619 -80.91796875 142.34375 C-73.00739425 142.61652843 -66.65844684 139.92852161 -60.015625 135.79296875 C-56.828125 134.10546875 -56.828125 134.10546875 -53.953125 134.29296875 C-51.828125 135.10546875 -51.828125 135.10546875 -50.828125 136.10546875 C-50.203125 138.79296875 -50.203125 138.79296875 -50.828125 142.10546875 C-53.50848808 144.67836445 -56.56454739 146.36358925 -59.828125 148.10546875 C-60.94767578 148.73195312 -60.94767578 148.73195312 -62.08984375 149.37109375 C-72.06988173 154.18320035 -84.43125336 153.0760035 -94.828125 150.10546875 C-94.27442436 158.59554519 -90.83980498 165.57473909 -84.703125 171.48046875 C-78.93245775 176.24126923 -72.28558299 178.9136474 -64.828125 179.54296875 C-61.828125 180.10546875 -61.828125 180.10546875 -60.140625 182.16796875 C-59.7075 183.13734375 -59.274375 184.10671875 -58.828125 185.10546875 C-54.34159209 194.71099736 -49.04453919 201.2547858 -39 205.22265625 C-31.11539614 207.41713959 -22.16605318 207.30446416 -14.8515625 203.4296875 C-6.14537924 197.73201158 -0.47130034 191.22593816 1.74287796 180.92884445 C2.62503842 175.12304586 2.46719204 169.25639049 2.46240234 163.39697266 C2.46839658 161.92582359 2.47520417 160.45467765 2.48275757 158.98353577 C2.50033139 155.01029931 2.50510922 151.03714915 2.50638914 147.06387758 C2.50781593 144.57604749 2.51209543 142.08823898 2.51738358 139.60041428 C2.53585368 130.905796 2.54405778 122.21123881 2.54248047 113.51660156 C2.54127913 105.43619146 2.56238766 97.35604847 2.5939678 89.27570593 C2.62018822 82.31658643 2.63084539 75.35755388 2.62956965 68.39838541 C2.62906181 64.25149326 2.63464605 60.10483891 2.65592575 55.95799637 C2.67540646 52.05572609 2.67536626 48.15391815 2.66089249 44.25163078 C2.65881557 42.82751089 2.66343798 41.40336128 2.6756134 39.97929192 C2.76723155 28.51206731 1.40646706 18.48292923 -6.7578125 9.89453125 C-14.73942621 2.99721223 -21.83968901 0.73173323 -32.25 0.828125 C-40.19597278 1.44402464 -47.11852962 5.63712388 -52.828125 11.10546875 Z M20.171875 12.10546875 C12.81911301 21.44141845 12.87479674 31.26543084 12.8972168 42.71630859 C12.89286372 44.18893186 12.88767859 45.66155285 12.88172913 47.13417053 C12.86839155 51.11567196 12.86775461 55.09707815 12.87029243 59.07859755 C12.87136576 62.41088925 12.8664695 65.74316197 12.861687 69.07544959 C12.85060983 76.94159035 12.85014425 84.80768335 12.85620117 92.67382812 C12.86223933 100.76953055 12.84992989 108.8650591 12.8286311 116.96073186 C12.8109769 123.92915587 12.80501978 130.89752473 12.80826885 137.86597025 C12.81007585 142.02006362 12.80750408 146.17403296 12.79355431 150.32810593 C12.78091829 154.2368688 12.78297417 158.14536197 12.79596519 162.05412102 C12.79831806 163.48187924 12.79564296 164.90965678 12.78734207 166.33739281 C12.7223295 178.3966578 13.83216729 187.9685831 22.171875 197.10546875 C28.68883363 203.47760607 35.02229625 206.31933923 44.109375 206.60546875 C52.96639472 206.31914268 60.11964714 203.89969689 66.64453125 197.8046875 C71.06912653 192.8821838 73.69499282 187.17383009 76.171875 181.10546875 C78.02598324 179.25136051 81.17845582 179.3575138 83.671875 178.91796875 C92.63122601 177.03322723 99.14649006 173.28084574 104.88671875 166.1015625 C108.0985922 161.11290799 110.171875 156.04353424 110.171875 150.10546875 C108.99625 150.43546875 107.820625 150.76546875 106.609375 151.10546875 C94.42619301 153.74898937 82.60965386 152.76259941 71.65234375 146.71484375 C68.06904979 144.33016476 66.39514789 143.16094059 65.484375 138.85546875 C66.171875 136.10546875 66.171875 136.10546875 69.171875 134.10546875 C73.2548099 134.43264884 76.22835643 136.07695175 79.734375 138.10546875 C86.2518762 141.86591327 91.77171703 143.02057932 99.26953125 141.75 C108.83214471 139.16410271 118.91213961 131.54550926 124.171875 123.10546875 C129.58678237 111.97774648 130.33857255 103.07127952 126.49609375 91.328125 C123.75624415 84.66034942 120.09588198 80.07448215 113.734375 76.73046875 C111.6953125 75.3515625 111.6953125 75.3515625 110.171875 73.10546875 C109.57479331 69.19331948 109.75674504 65.28460355 110.02758789 61.34814453 C110.5001621 54.02213503 109.38560182 48.26371901 105.12109375 42.1796875 C96.81029015 33.40956488 89.45055986 28.40330308 77.0078125 28.00390625 C69.98935827 28.37703926 63.89963787 29.63512173 58.64453125 34.52734375 C54.00183609 39.74869367 52.73882636 45.50188801 51.171875 52.10546875 C45.421875 53.23046875 45.421875 53.23046875 43.171875 52.10546875 C41.29769825 45.8582129 42.73891786 40.31509909 45.328125 34.515625 C50.72964585 24.53781566 58.31050926 21.01045748 68.86328125 17.76953125 C69.62511719 17.55039062 70.38695312 17.33125 71.171875 17.10546875 C67.42792066 9.40594525 62.22074479 5.07961811 54.3046875 1.984375 C41.23824616 -1.6813972 29.17132668 2.26419754 20.171875 12.10546875 Z " fill="#1A3762" transform="translate(124.828125,10.89453125)"/>
<path d="M0 0 C3 0.25 3 0.25 5 2.25 C5.28062435 5.89811653 5.23693776 8.62281182 3.9375 12.0625 C2.36178737 17.41992293 2.63403295 22.53181726 5.1640625 27.56640625 C8.39131874 32.25196811 11.41345608 34.69309432 17 36.25 C19.85204499 36.57800517 22.67904389 36.80922968 25.546875 36.94140625 C28 37.25 28 37.25 31 39.25 C31.3125 42.75 31.3125 42.75 31 46.25 C27.8587989 49.3912011 24.31589106 49.1908782 20 49.25 C13.27100425 48.5968001 7.87683852 46.51491029 2 43.25 C1.443125 43.79269531 0.88625 44.33539063 0.3125 44.89453125 C-8.40416373 53.0664035 -13.99452463 54.58947722 -25.92578125 54.55078125 C-29 54.25 -29 54.25 -32 52.25 C-32.3125 48.75 -32.3125 48.75 -32 45.25 C-29.45600407 42.70600407 -28.33976435 42.97305134 -24.8125 42.8125 C-18.31692911 42.3115344 -14.38860973 40.85865553 -8.9375 37.1875 C-6.76841465 34.5437488 -6.76841465 34.5437488 -7.140625 32.16015625 C-7.5225298 30.47704724 -7.93239513 28.80014662 -8.36328125 27.12890625 C-10.29536217 18.39305569 -9.80614578 9.9152763 -5 2.25 C-3 0.25 -3 0.25 0 0 Z " fill="#1A3762" transform="translate(187,74.75)"/>
<path d="M0 0 C3.125 0.4375 3.125 0.4375 5.375 2.5625 C10.03204591 10.21336114 10.48618049 19.51932397 8.49609375 28.171875 C8.27050781 28.94015625 8.04492188 29.7084375 7.8125 30.5 C6.65331838 34.45426932 6.65331838 34.45426932 9.0625 37.3125 C15.38400949 41.69885352 20.16877108 42.78294061 27.76953125 43.12890625 C30.125 43.4375 30.125 43.4375 32.125 45.4375 C32.4375 48.9375 32.4375 48.9375 32.125 52.4375 C26.96729469 55.87597021 21.12665876 55.14977116 15.125 54.4375 C8.26645505 52.06674284 2.38577197 48.40600686 -2.875 43.4375 C-3.679375 43.97890625 -3.679375 43.97890625 -4.5 44.53125 C-10.1879154 47.89909464 -14.87642738 48.91006424 -21.375 48.875 C-22.08140625 48.87242188 -22.7878125 48.86984375 -23.515625 48.8671875 C-28.59290793 48.71959207 -28.59290793 48.71959207 -30.875 46.4375 C-31.125 42.9375 -31.125 42.9375 -30.875 39.4375 C-28.24543356 36.80793356 -26.91045918 37.18297081 -23.25 37.0625 C-16.26973832 36.57706214 -11.48002374 35.04252374 -6.5 30.0625 C-2.58705868 23.7415948 -2.60163794 18.5889071 -3.875 11.4375 C-4.205 10.7775 -4.535 10.1175 -4.875 9.4375 C-5.0625 5.9375 -5.0625 5.9375 -4.875 2.4375 C-2.875 0.4375 -2.875 0.4375 0 0 Z " fill="#1A3762" transform="translate(77.875,74.5625)"/>
<path d="M0 0 C2 3 2 3 2 6.1875 C-0.10985107 14.23130719 -5.95452636 19.85028066 -13 24 C-19.1155996 26.93062187 -25.26709203 27.84454595 -32 27 C-35.125 25.875 -35.125 25.875 -37 24 C-37.51973552 20.88158685 -37.68443416 18.99960315 -35.86328125 16.33984375 C-33.17312963 14.40541607 -30.96798095 14.62682316 -27.6875 14.5625 C-20.83990892 14.17446984 -17.42894761 12.70654163 -12.8125 7.5625 C-10.95870032 5.01573089 -10.95870032 5.01573089 -9.375 2.25 C-6.83854029 -1.90057043 -4.38114588 -1.09528647 0 0 Z " fill="#1A3762" transform="translate(181,157)"/>
<path d="M0 0 C3.25 0.75 3.25 0.75 5.25 2.75 C6.00825361 8.16609722 4.86641541 11.40505934 1.86328125 15.76171875 C-2.81106081 21.52259068 -8.28280434 26.43502215 -15.75 27.75 C-20.77860813 28.17080403 -25.74310811 28.50430044 -30.75 27.75 C-32.7109375 25.88671875 -32.7109375 25.88671875 -33.75 23.75 C-33.50925978 20.37963689 -33.16201979 19.16201979 -30.75 16.75 C-28.3212982 16.38395164 -25.94209234 16.09530392 -23.5 15.875 C-17.78226791 15.34390631 -14.20161758 14.4736396 -9.75 10.75 C-8.05223784 8.21576684 -8.05223784 8.21576684 -6.8125 5.5 C-4.21714664 0.84342933 -4.21714664 0.84342933 0 0 Z " fill="#1A3762" transform="translate(109.75,156.25)"/>
</svg>
