<?xml version="1.0" encoding="UTF-8"?>
<svg version="1.1" xmlns="http://www.w3.org/2000/svg" width="299" height="405">
<path d="M0 0 C2.44461296 -0.00296112 4.88922156 -0.00707038 7.33383226 -0.01150417 C15.00483544 -0.02509555 22.67582829 -0.03481112 30.34684265 -0.03870606 C39.1664279 -0.04321187 47.98586012 -0.06091037 56.80539882 -0.08970666 C63.65930968 -0.11130362 70.51317729 -0.12140874 77.36712182 -0.12274718 C81.44768691 -0.12379363 85.52810645 -0.12967132 89.60863543 -0.1475668 C93.43215429 -0.16402028 97.25541737 -0.16621649 101.07895899 -0.15742779 C102.47980672 -0.15665683 103.88066815 -0.16100794 105.28148127 -0.17088604 C107.19451334 -0.18358642 109.10764812 -0.17594396 111.02070284 -0.16730404 C112.09019356 -0.1687706 113.15968428 -0.17023716 114.26158381 -0.17174816 C124.84878843 1.19120113 134.35463284 14.25661961 141.53184175 21.45189762 C142.40951708 22.32782063 143.2871924 23.20374363 144.19146395 24.10620975 C146.56464018 26.47577586 148.93559287 28.84752106 151.30536437 31.22048926 C153.79641632 33.71409769 156.28993509 36.20523757 158.7830472 38.69678593 C162.95794453 42.86987379 167.13075034 47.04504426 171.30234957 51.22142887 C176.1255474 56.05009559 180.95237553 60.87511097 185.78104883 65.69830173 C189.939335 69.85205582 194.09567696 74.00774778 198.25038713 78.1650787 C200.72690039 80.64315054 203.20408358 83.12054252 205.68302774 85.59618282 C208.43627551 88.34601557 211.18544016 91.09990761 213.9341855 93.85424137 C214.75644625 94.67447788 215.57870699 95.49471439 216.42588472 96.33980656 C217.17008165 97.08682331 217.91427858 97.83384007 218.68102694 98.60349369 C219.33080791 99.25365169 219.98058887 99.90380968 220.65006018 100.57366943 C223.29865421 103.44436446 223.27199202 105.41134333 223.2575345 109.21590519 C223.25601885 110.279417 223.25450319 111.34292881 223.25294161 112.43866825 C223.24620424 113.61213306 223.23946688 114.78559788 223.23252535 115.99462223 C223.22945879 117.22811909 223.22639223 118.46161594 223.22323275 119.73249149 C223.21605253 122.42959305 223.20708183 125.12662524 223.19533777 127.82370472 C223.17690295 132.14797318 223.16739878 136.47223389 223.15942049 140.79653263 C223.13688509 152.34480278 223.10621005 163.89304555 223.06322652 175.44125849 C223.02699551 185.18120302 223.00051163 194.921117 222.99058199 204.66112614 C222.98937054 205.77327995 222.98937054 205.77327995 222.98813462 206.90790153 C222.96922517 228.97997859 223.43375295 250.97967326 224.41541719 273.03312016 C225.28001462 292.62381582 225.49319735 312.19094201 225.46641207 331.79906559 C225.46042934 336.57454052 225.47811063 341.34965075 225.50075674 346.12506485 C225.51546764 349.89381973 225.5163731 353.66248352 225.51324701 357.43126202 C225.51375442 359.19617129 225.51888073 360.96108645 225.52905893 362.72596645 C225.58983452 374.64519729 225.24756021 384.4495841 217.30698824 394.05565739 C209.74975207 401.57182162 201.03332341 405.40090653 190.48229539 405.46301335 C189.22700837 405.45529801 189.22700837 405.45529801 187.94636202 405.4474268 C186.58754229 405.45104842 186.58754229 405.45104842 185.20127165 405.45474321 C182.17637778 405.46036284 179.15169673 405.4517297 176.12681246 405.44310856 C173.95298375 405.44418198 171.77915533 405.44612155 169.60532808 405.44886112 C163.70366607 405.45370705 157.80207973 405.44605354 151.90042686 405.43590808 C145.70693823 405.42710697 139.51345183 405.42888553 133.31995821 405.42926884 C122.23722341 405.42827206 111.15452095 405.41794436 100.07179643 405.40336678 C88.74278521 405.38867505 77.41380427 405.38504004 66.084782 405.38573474 C53.27132007 405.38641406 40.45787028 405.37944494 27.64441204 405.37028813 C23.97660732 405.36816962 20.30880459 405.36744867 16.64099932 405.36704922 C10.83794434 405.36603342 5.03491552 405.35983763 -0.76813078 405.34988308 C-2.88143964 405.34699814 -4.99475152 405.34572441 -7.10806227 405.34631062 C-13.68954394 405.34744388 -20.2685903 405.30487278 -26.84926176 405.20018864 C-27.79790145 405.18683295 -28.74654115 405.17347725 -29.7239275 405.15971684 C-32.55505843 405.10967331 -35.38383231 405.03022561 -38.21397734 404.94110966 C-39.05242127 404.92757047 -39.89086519 404.91403128 -40.75471652 404.90008181 C-49.99630683 404.53561246 -58.16470654 400.56365169 -64.84926176 394.20018864 C-71.5924035 385.64290217 -72.8662529 376.28944207 -73.16099882 365.62571049 C-73.19169427 364.54926649 -73.19169427 364.54926649 -73.22300982 363.45107615 C-73.28805491 361.10119052 -73.34630224 358.75120627 -73.40346098 356.40111637 C-73.42442327 355.58416825 -73.44538557 354.76722013 -73.46698308 353.92551601 C-73.88848587 337.36914613 -73.99765189 320.81972221 -73.98342299 304.25875926 C-73.98155307 301.10683376 -73.98347546 297.95491425 -73.98532468 294.80298907 C-73.99130372 284.5125636 -73.98551121 274.22216169 -73.97652054 263.93173981 C-73.97425497 261.25466454 -73.97228684 258.57758922 -73.97041273 255.90051365 C-73.95466742 233.63498047 -73.92328175 211.3695003 -73.87970781 189.10400486 C-73.86162544 179.75571697 -73.84612492 170.40743822 -73.83748198 161.05913639 C-73.83663611 160.14589039 -73.83579024 159.23264439 -73.83491874 158.29172426 C-73.83322977 156.45429238 -73.83154216 154.61686049 -73.82985592 152.7794286 C-73.8141886 136.02592141 -73.77931713 119.27260435 -73.71395826 102.51921272 C-73.68199955 94.2472437 -73.6575825 85.97542796 -73.65425444 77.70339298 C-73.65132805 70.704052 -73.63133499 63.70502252 -73.58893782 56.70580465 C-73.56788036 53.15199495 -73.55460794 49.5986294 -73.56307364 46.04475689 C-73.57198142 42.19699459 -73.54215761 38.3500738 -73.50868559 34.50243473 C-73.51731186 33.39305074 -73.52593813 32.28366674 -73.5348258 31.14066505 C-73.40058653 22.02209657 -70.67917978 15.19617619 -64.66176176 8.32518864 C-58.27013766 2.57136991 -51.59332108 0.99778372 -43.1319766 0.61132145 C-42.32404346 0.57217247 -41.51611032 0.53302349 -40.68369436 0.49268818 C-27.13480299 -0.07967533 -13.55871969 0.01561466 0 0 Z M-52.72426176 22.70018864 C-55.14296427 25.92512531 -54.97609954 29.10644118 -54.98068953 32.97179985 C-54.98453067 34.18281107 -54.98837182 35.39382228 -54.99232936 36.64153081 C-54.99154907 37.99236705 -54.99067028 39.34320323 -54.98970366 40.69403934 C-54.99228662 42.1236589 -54.99529959 43.55327773 -54.99870706 44.98289555 C-55.00678829 48.92088356 -55.00856725 52.85885334 -55.00930452 56.79684865 C-55.01115312 61.0403091 -55.01869945 65.28376004 -55.02543974 69.527215 C-55.03903135 78.81020072 -55.04504901 88.09318211 -55.0494504 97.37617612 C-55.0522113 103.17023355 -55.05644837 108.9642893 -55.06095457 114.7583456 C-55.0731481 130.79398112 -55.08344739 146.8296153 -55.08682966 162.86525536 C-55.08704923 163.89190173 -55.08726879 164.91854809 -55.08749501 165.97630496 C-55.08771329 167.00543486 -55.08793157 168.03456475 -55.08815646 169.0948804 C-55.08859993 171.1803575 -55.08904649 173.26583459 -55.08949614 175.35131168 C-55.08971757 176.38578464 -55.089939 177.4202576 -55.09016714 178.48607823 C-55.09411617 195.25279054 -55.11157302 212.01945943 -55.13485566 228.78615496 C-55.15855546 245.99184946 -55.17103088 263.19752214 -55.17219758 280.40323323 C-55.17311509 290.06701916 -55.17888651 299.73074849 -55.19701719 309.39451885 C-55.21239966 317.62257922 -55.21754961 325.85056551 -55.20927909 334.07863752 C-55.20536605 338.27783505 -55.20633394 342.47688331 -55.22033644 346.67606258 C-55.23303624 350.51967276 -55.23191257 354.36302089 -55.21974573 358.20663049 C-55.2177819 359.59762336 -55.2208987 360.98863454 -55.22959009 362.37960164 C-55.24065527 364.27005544 -55.23141966 366.16059544 -55.22119856 368.051054 C-55.22179565 369.1012531 -55.22239274 370.15145219 -55.22300792 371.23347551 C-54.5727459 376.39510953 -52.35776017 380.25138839 -48.34926176 383.51268864 C-47.76144926 384.00382145 -47.17363676 384.49495426 -46.56801176 385.00096989 C-43.71109526 386.99431845 -41.19465431 387.32591761 -37.81676531 387.33440971 C-36.9936444 387.33886756 -36.17052349 387.3433254 -35.32245952 387.34791833 C-34.4183912 387.34773397 -33.51432289 387.34754961 -32.58285856 387.34735966 C-31.62222146 387.35103635 -30.66158435 387.35471303 -29.67183703 387.35850114 C-26.43841141 387.36955373 -23.20501791 387.37338449 -19.97157621 387.37719059 C-17.65901922 387.38345405 -15.34646324 387.39010074 -13.03390837 387.39710331 C-6.74036465 387.41452385 -0.44682853 387.42506795 5.84673333 387.43330884 C9.7774287 387.43845675 13.7081217 387.44453258 17.6388154 387.45081997 C28.52399829 387.46769082 39.40917825 387.48232559 50.29437208 387.48956871 C53.1188086 387.49147857 55.94324511 387.49339891 58.7676816 387.49535465 C59.82066675 387.49608026 59.82066675 387.49608026 60.89492432 387.49682053 C72.26399952 387.50511895 83.63296944 387.53045278 95.00199869 387.56293533 C106.67742444 387.59602099 118.35279128 387.61368618 130.02826387 387.61721295 C136.58236476 387.61956526 143.13629926 387.62854954 149.69035578 387.65367413 C155.85699053 387.67693127 162.02334905 387.68119736 168.19001627 387.67091274 C170.45231084 387.6704167 172.7146189 387.67675707 174.97687197 387.69046879 C178.06805162 387.70815504 181.15823649 387.70109699 184.24941683 387.68793583 C185.14233154 387.69890508 186.03524624 387.70987432 186.95521897 387.72117597 C194.02855003 387.64858756 199.46020056 385.89072631 204.52573824 380.82518864 C208.31749512 374.70004291 208.4342142 369.05168326 208.39124727 362.06362247 C208.39295612 361.04577494 208.39466497 360.02792741 208.3964256 358.97923601 C208.39971836 355.57055602 208.38872017 352.16207313 208.37778902 348.75341129 C208.37722486 346.30920765 208.37754156 343.86500366 208.37867403 341.42080021 C208.37912939 336.15958086 208.37345862 330.8984228 208.36219835 325.63721943 C208.34592863 318.03045831 208.34073384 310.42372116 208.33822237 302.81694452 C208.33384758 290.47478963 208.32054433 278.1326612 208.30161715 265.79052067 C208.28325277 253.8028918 208.26909899 241.81527014 208.26060152 229.82763004 C208.26007607 229.08843148 208.25955063 228.34923292 208.25900926 227.5876344 C208.25639914 223.87920858 208.25387173 220.17078271 208.25138545 216.46235681 C208.23065967 185.7082815 208.1952911 154.95423909 208.15073824 124.20018864 C207.18544695 124.19654301 206.22015566 124.19289738 205.22561312 124.18914127 C196.09011617 124.15206102 186.95495225 124.09414721 177.8197093 124.0162859 C173.12413069 123.97692203 168.42873651 123.94467949 163.73301363 123.92919254 C159.19401976 123.91395247 154.65553329 123.87937808 150.11676645 123.83187962 C148.39263831 123.81714116 146.6684377 123.80915199 144.94424677 123.80830479 C132.70144575 123.79624864 121.34444431 123.32027299 111.93980074 114.39940739 C105.62858945 106.64130267 103.02423098 98.37678169 102.94541597 88.58593082 C102.93551638 87.82456821 102.92561678 87.0632056 102.91541719 86.2787714 C102.88389048 83.76823352 102.85907977 81.25767673 102.83433199 78.74706364 C102.81375483 77.00399636 102.79275816 75.260934 102.77135897 73.51787663 C102.71621695 68.93452271 102.66677301 64.35112436 102.61851168 59.76769352 C102.56823914 55.08890175 102.51258312 50.41017436 102.45737886 45.73143864 C102.34989357 36.55441034 102.24842727 27.37732608 102.15073824 18.20018864 C83.23562268 18.13007068 64.32053355 18.0771868 45.40531492 18.04475212 C36.62241375 18.02929105 27.8395934 18.00821608 19.0567441 17.97387028 C11.40055189 17.94394463 3.74441822 17.92460811 -3.91183084 17.91792315 C-7.96480983 17.91401625 -12.01762137 17.90485038 -16.07054663 17.88299847 C-19.88805899 17.86258325 -23.70533548 17.85636496 -27.52289724 17.86086559 C-28.92128231 17.86004264 -30.31967555 17.85410689 -31.71801329 17.84257221 C-42.97289752 17.66375029 -42.97289752 17.66375029 -52.72426176 22.70018864 Z M121.15073824 29.20018864 C121.08111518 37.57147971 121.0278648 45.94264906 120.99530172 54.31415844 C120.97967016 58.20172854 120.9584782 62.08910002 120.92441988 65.97655582 C120.89173623 69.73075522 120.87386635 73.484764 120.86610651 77.23909473 C120.86057909 78.66878477 120.84978534 80.0984648 120.83354807 81.52807331 C120.81165665 83.53602448 120.81051184 85.54416895 120.81016207 87.55223942 C120.80350023 88.69363377 120.7968384 89.83502811 120.78997469 91.01101017 C121.35020455 95.96348669 123.02928497 99.18814544 126.71323824 102.51268864 C130.6061693 105.20779476 132.69803382 105.3227223 137.43638277 105.31371403 C138.40242434 105.31393307 138.40242434 105.31393307 139.38798189 105.31415653 C141.51987226 105.31345904 143.6516756 105.3056743 145.78355074 105.29784489 C147.2604281 105.29598013 148.73730608 105.2945565 150.21418428 105.29355717 C154.10386023 105.28973656 157.99349891 105.27991015 161.88316011 105.26885319 C165.85125394 105.25862927 169.81935379 105.25405744 173.78745699 105.24901676 C181.5752344 105.23828749 189.3629811 105.22121653 197.15073824 105.20018864 C193.01178622 100.2667128 188.71102047 95.61623917 184.15147066 91.07152653 C183.47920443 90.39750797 182.80693819 89.72348942 182.11430025 89.02904606 C179.91409395 86.82447405 177.71029298 84.62353753 175.50620699 82.42284489 C173.9700348 80.88599861 172.43401104 79.34900395 170.89812899 77.81186771 C167.69139241 74.60366175 164.48286596 71.39725964 161.27305269 68.192132 C157.14905295 64.07385804 153.02959739 59.95107227 148.91144514 55.82695198 C145.74696516 52.6588705 142.58012228 49.49315968 139.41254282 46.32817745 C137.89147928 44.80778283 136.37116327 43.28663997 134.8515954 41.76475048 C132.73780992 39.64844213 130.62087467 37.53533731 128.50303316 35.42308903 C127.87085375 34.78888538 127.23867434 34.15468174 126.58733797 33.5012598 C124.24071241 30.58025783 124.24071241 30.58025783 121.15073824 29.20018864 Z " fill="#1A3762" transform="translate(73.84926176071167,-0.20018863677978516)"/>
<path d="M0 0 C46.86 0 93.72 0 142 0 C142 5.94 142 11.88 142 18 C95.14 18 48.28 18 0 18 C0 12.06 0 6.12 0 0 Z " fill="#1A3762" transform="translate(79,264)"/>
<path d="M0 0 C46.86 0 93.72 0 142 0 C142 5.94 142 11.88 142 18 C95.14 18 48.28 18 0 18 C0 12.06 0 6.12 0 0 Z " fill="#1A3762" transform="translate(79,229)"/>
<path d="M0 0 C46.53 0 93.06 0 141 0 C141 5.94 141 11.88 141 18 C94.47 18 47.94 18 0 18 C0 12.06 0 6.12 0 0 Z " fill="#3AB9B5" transform="translate(80,194)"/>
<path d="M0 0 C26.4 0 52.8 0 80 0 C80 5.94 80 11.88 80 18 C53.6 18 27.2 18 0 18 C0 12.06 0 6.12 0 0 Z " fill="#1A3762" transform="translate(79,299)"/>
</svg>
