<?xml version="1.0" standalone="no"?>
<!DOCTYPE svg PUBLIC "-//W3C//DTD SVG 20010904//EN"
 "http://www.w3.org/TR/2001/REC-SVG-20010904/DTD/svg10.dtd">
<svg version="1.0" xmlns="http://www.w3.org/2000/svg"
 width="752.000000pt" height="954.000000pt" viewBox="0 0 752.000000 954.000000"
 preserveAspectRatio="xMidYMid meet">
<metadata>
Created by potrace 1.16, written by Peter Selinger 2001-2019
</metadata>
<g transform="translate(0.000000,954.000000) scale(0.100000,-0.100000)"
fill="#000000" stroke="none">
<path d="M0 4770 l0 -4770 3760 0 3760 0 0 4770 0 4770 -3760 0 -3760 0 0
-4770z m1102 4718 c71 -34 133 -80 308 -228 84 -72 166 -120 205 -120 34 0 62
27 121 116 125 189 244 180 378 -30 17 -27 43 -58 58 -69 54 -40 129 -1 318
163 178 155 284 210 401 210 141 0 219 -114 205 -300 -3 -47 -13 -110 -21
-140 -59 -216 54 -369 296 -402 318 -42 449 -104 449 -212 0 -83 -56 -142
-265 -278 -214 -140 -283 -252 -215 -348 25 -36 64 -59 166 -103 l80 -34 52
34 c59 40 90 84 100 145 6 37 11 43 35 46 25 3 27 0 27 -31 0 -72 -41 -146
-110 -196 l-37 -27 57 -52 c64 -57 90 -112 90 -190 0 -36 -3 -43 -16 -38 -9 3
-22 6 -30 6 -10 0 -14 12 -14 38 0 59 -37 122 -99 164 l-53 37 -87 -44 c-141
-70 -186 -138 -151 -230 19 -51 116 -138 256 -231 78 -51 158 -112 179 -135
90 -100 81 -180 -27 -247 -49 -30 -192 -69 -299 -81 -224 -25 -339 -99 -370
-237 -11 -48 -10 -70 9 -172 58 -313 -11 -456 -213 -440 -110 9 -217 71 -390
222 -134 118 -209 165 -264 166 -29 0 -73 -46 -125 -129 -44 -72 -110 -121
-163 -121 -72 0 -128 43 -197 152 -40 64 -79 98 -110 98 -43 0 -123 -51 -251
-161 -71 -61 -157 -129 -189 -150 -105 -69 -244 -97 -319 -65 -105 45 -147
185 -112 366 29 146 30 219 5 278 -43 99 -146 164 -291 184 -317 42 -449 104
-449 211 0 80 56 141 242 263 141 93 215 160 247 222 47 92 18 143 -140 250
l-46 31 -71 -60 c-69 -58 -122 -128 -122 -162 0 -12 -9 -17 -30 -17 -24 0 -30
4 -30 22 0 45 43 109 123 183 44 41 76 75 71 75 -6 0 -40 25 -76 55 -71 58
-118 125 -118 168 0 22 5 27 25 27 19 0 28 -8 40 -37 19 -46 51 -80 127 -140
l58 -44 74 56 c136 102 145 171 39 286 -34 36 -104 92 -172 137 -213 140 -261
190 -261 275 0 46 4 54 43 92 50 48 152 86 282 105 44 6 105 15 135 20 146 22
254 98 284 201 21 68 20 96 -4 210 -33 159 -23 284 29 357 58 82 188 94 323
30z m3338 -1115 c0 -187 -4 -313 -11 -338 -21 -76 -111 -135 -207 -135 -52 0
-127 29 -170 66 l-42 36 20 28 20 28 30 -28 c71 -66 185 -78 240 -25 43 41 50
90 50 354 l0 241 -145 0 -145 0 0 35 0 35 180 0 180 0 0 -297z m590 76 c166
-71 214 -311 90 -451 -56 -65 -123 -92 -225 -92 -125 0 -211 48 -263 148 -22
43 -26 63 -26 136 0 73 4 93 26 136 71 136 243 190 398 123z m605 2 c25 -11
45 -23 45 -26 0 -5 -18 -44 -25 -52 -1 -2 -19 6 -39 17 -108 55 -246 25 -246
-53 0 -47 35 -74 138 -107 165 -55 198 -87 190 -186 -5 -61 -23 -85 -83 -117
-58 -31 -191 -30 -260 1 -71 32 -87 49 -73 76 6 11 11 22 12 23 1 1 28 -11 59
-27 100 -50 190 -52 247 -4 22 19 30 34 30 58 0 49 -40 78 -154 116 -124 41
-166 75 -173 141 -12 108 75 174 219 165 37 -3 88 -14 113 -25z m581 -1 c81
-40 134 -133 134 -237 l0 -43 -245 0 -245 0 6 -27 c26 -109 116 -183 219 -183
48 0 122 25 159 54 33 25 34 25 51 5 18 -18 17 -20 -4 -43 -69 -73 -247 -95
-347 -43 -96 49 -154 146 -154 257 0 135 86 247 215 281 50 14 162 2 211 -21z
m-4693 -4327 c34 -15 82 -43 106 -61 l43 -33 109 35 c207 67 304 81 569 81
258 -1 336 -12 536 -76 l94 -30 33 25 c53 40 156 84 214 92 100 12 177 -29
217 -116 17 -37 21 -65 21 -155 l0 -111 129 -124 c73 -71 164 -172 211 -235
83 -110 83 -110 141 -123 118 -28 205 -86 220 -149 11 -41 -14 -101 -61 -150
l-45 -46 30 -101 c97 -336 98 -681 4 -1014 l-26 -93 55 -58 c76 -79 87 -141
37 -204 -27 -34 -128 -82 -208 -98 l-63 -13 -67 -96 c-39 -56 -122 -151 -204
-232 l-137 -137 6 -88 c9 -143 -32 -245 -114 -279 -80 -34 -210 -8 -316 63
l-52 35 -115 -36 c-138 -43 -183 -53 -320 -72 -256 -34 -563 -3 -811 82 l-75
26 -59 -37 c-167 -107 -328 -100 -395 17 -23 39 -25 54 -26 171 l-2 128 -76
67 c-41 37 -104 99 -138 137 -58 66 -174 217 -180 236 -2 5 -37 17 -80 28
-236 61 -295 171 -164 307 l53 55 -27 97 c-82 292 -90 591 -24 889 14 62 31
130 38 150 l13 38 -62 60 c-92 89 -107 155 -50 223 39 47 127 82 290 117 11 2
29 18 39 36 40 67 180 231 267 311 l90 84 -12 73 c-42 271 113 408 344 304z"/>
<path d="M855 9448 c-67 -53 -81 -161 -44 -341 35 -169 11 -275 -81 -361 -79
-74 -160 -105 -325 -126 -232 -29 -362 -91 -340 -161 14 -43 92 -113 218 -196
235 -155 315 -262 285 -382 -12 -46 -72 -117 -147 -172 l-34 -25 44 -28 c257
-171 221 -332 -125 -560 -178 -117 -227 -170 -212 -230 13 -53 128 -97 326
-126 255 -36 367 -104 415 -251 20 -59 17 -157 -10 -289 -28 -142 -6 -251 59
-292 25 -15 44 -18 96 -15 106 7 163 41 405 245 119 99 191 137 258 136 63 -1
90 -22 154 -120 62 -94 96 -124 140 -124 42 0 95 46 135 117 90 159 187 170
354 41 45 -35 126 -100 180 -146 124 -105 204 -145 294 -150 63 -4 69 -2 102
26 62 55 74 163 37 338 -35 166 -10 273 82 359 63 59 137 93 241 110 46 8 126
21 180 30 158 27 261 88 243 146 -14 43 -92 113 -218 196 -207 136 -289 232
-289 338 0 86 52 152 165 209 l68 34 -80 37 c-87 41 -141 90 -166 147 -49 119
30 234 271 394 157 105 224 169 224 216 0 60 -92 108 -255 135 -205 33 -249
43 -309 71 -76 36 -140 96 -169 161 -28 60 -29 180 -3 311 30 157 11 258 -57
301 -26 17 -44 19 -98 16 -91 -6 -174 -52 -325 -179 -206 -176 -248 -202 -330
-202 -66 0 -112 33 -157 112 -46 83 -99 132 -141 132 -47 0 -80 -30 -143 -128
-45 -70 -62 -87 -100 -104 -85 -37 -165 -2 -351 157 -67 57 -143 119 -169 137
-112 77 -241 101 -298 56z m1207 -398 c58 -17 130 -71 162 -123 69 -112 20
-263 -108 -329 -113 -58 -278 -36 -368 49 -96 91 -86 268 19 349 76 58 199 80
295 54z m696 -46 c29 -14 70 -46 90 -70 39 -47 112 -161 112 -176 0 -5 -14 -8
-32 -6 -26 2 -37 12 -61 53 -33 58 -100 130 -139 151 -15 8 -49 14 -77 14 -40
0 -57 -6 -92 -32 -61 -48 -79 -76 -92 -151 -6 -40 -16 -67 -23 -67 -7 0 -20
-3 -30 -7 -16 -6 -17 -1 -11 56 9 81 41 153 85 192 83 73 179 88 270 43z
m-1383 -28 c53 -32 102 -87 128 -144 18 -43 36 -162 24 -162 -24 0 -57 26 -57
45 0 58 -31 123 -80 169 -81 75 -125 83 -207 36 -50 -28 -129 -114 -158 -170
-10 -19 -24 -29 -47 -33 -18 -2 -35 -3 -36 -1 -2 1 9 27 25 56 40 76 167 201
223 221 59 22 130 15 185 -17z m1684 -285 c182 -107 259 -241 207 -364 -24
-58 -103 -131 -169 -156 -61 -22 -147 -28 -147 -10 0 26 22 49 48 49 75 0 171
61 208 131 18 36 18 102 0 137 -19 37 -111 122 -167 155 -42 25 -58 48 -59 85
0 18 5 16 79 -27z m-2143 -35 c-4 -16 -26 -35 -62 -56 -125 -70 -189 -162
-166 -238 26 -84 113 -151 199 -152 37 0 42 -3 52 -30 l10 -30 -48 0 c-108 0
-191 46 -241 133 -38 66 -46 119 -26 175 29 82 97 147 222 212 60 32 71 30 60
-14z m1562 -18 c3 -13 23 -57 44 -99 66 -132 209 -264 330 -305 42 -14 46 -18
39 -37 -12 -32 -34 -32 -104 1 -159 75 -302 231 -353 385 -16 48 -16 51 2 64
25 18 35 16 42 -9z m-983 -32 c18 -13 18 -17 -20 -92 -72 -147 -252 -297 -413
-345 -47 -14 -48 -14 -57 21 -5 23 -2 26 52 42 144 43 294 171 360 307 21 44
43 80 49 80 5 1 19 -5 29 -13z m627 -257 c74 -15 222 -88 291 -143 148 -119
247 -330 247 -526 0 -195 -94 -392 -246 -519 -74 -62 -137 -97 -229 -128 -72
-24 -95 -27 -220 -27 -128 0 -147 2 -220 27 -217 76 -395 261 -450 467 -98
364 121 743 485 841 76 21 260 25 342 8z m983 -363 c95 -44 146 -124 153 -239
8 -129 -31 -215 -122 -271 -162 -101 -360 21 -374 229 -5 83 8 137 45 193 71
104 189 139 298 88z m-2154 -28 c51 -15 112 -68 146 -126 22 -38 28 -61 31
-133 4 -76 1 -94 -20 -141 -44 -96 -112 -147 -207 -155 -110 -10 -219 67 -257
179 -22 67 -16 187 13 243 60 115 178 168 294 133z m29 -702 c0 -3 -4 -16 -9
-29 -8 -20 -18 -25 -60 -29 -67 -7 -137 -50 -178 -112 -66 -98 -29 -182 129
-293 68 -47 78 -59 78 -84 l0 -30 -60 32 c-85 45 -188 142 -216 204 -44 93
-27 163 61 252 46 45 74 65 111 76 45 14 144 23 144 13z m2162 -12 c94 -32
178 -139 178 -229 0 -94 -87 -199 -222 -271 l-68 -35 0 33 c0 29 6 36 53 62
71 40 154 120 168 163 34 105 -72 233 -194 233 -41 0 -46 3 -56 30 l-10 30 53
0 c29 0 73 -7 98 -16z m-212 -13 c16 -31 13 -35 -50 -55 -80 -25 -197 -103
-263 -177 -31 -33 -72 -95 -93 -137 -20 -43 -38 -78 -40 -80 -7 -10 -44 21
-44 36 1 29 63 138 110 194 82 99 184 173 295 215 74 27 72 27 85 4z m-1818
-8 c158 -61 311 -223 374 -397 l23 -64 -29 -10 c-28 -10 -29 -9 -45 41 -28 87
-75 158 -159 243 -64 64 -98 89 -161 119 -44 21 -81 39 -83 41 -7 5 19 44 28
44 5 0 29 -7 52 -17z m1047 -414 c157 -79 188 -252 66 -375 -62 -63 -120 -84
-225 -84 -66 0 -86 4 -139 31 -158 79 -189 252 -67 374 64 64 114 83 222 84
71 1 88 -3 143 -30z m294 -88 c20 -8 25 -18 30 -63 12 -96 98 -187 186 -196
80 -7 143 37 230 163 32 46 50 62 74 67 18 3 34 5 36 3 8 -9 -77 -135 -129
-189 -122 -130 -256 -140 -369 -27 -55 55 -83 113 -89 188 -5 68 -5 68 31 54z
m-936 -91 c-9 -78 -29 -126 -75 -173 -55 -58 -106 -81 -177 -82 -73 0 -132 31
-195 102 -38 43 -110 159 -110 177 0 4 14 6 32 4 27 -3 37 -12 66 -62 45 -76
113 -142 162 -157 108 -32 221 59 237 191 6 48 12 56 52 59 11 1 13 -11 8 -59z"/>
<path d="M1880 8991 c-65 -23 -124 -81 -139 -138 -31 -113 88 -233 232 -233
124 0 238 108 224 212 -17 126 -180 208 -317 159z"/>
<path d="M1832 8295 c-35 -8 -103 -33 -150 -56 -116 -56 -232 -170 -285 -280
-101 -208 -86 -438 39 -622 243 -356 763 -376 1029 -39 117 147 164 354 120
527 -54 212 -225 390 -439 457 -82 25 -233 32 -314 13z m225 -399 c36 -17 60
-38 80 -67 25 -37 28 -52 28 -119 0 -66 -4 -82 -27 -117 -33 -50 -113 -93
-174 -93 -128 0 -216 86 -216 210 0 163 156 257 309 186z"/>
<path d="M1920 7857 c-46 -11 -98 -62 -112 -109 -15 -51 1 -104 47 -148 30
-29 43 -34 92 -38 48 -3 64 0 92 20 19 13 44 38 54 56 65 112 -46 252 -173
219z"/>
<path d="M2930 7932 c-101 -51 -145 -206 -88 -316 16 -31 69 -86 100 -102 35
-18 111 -18 146 0 89 46 137 161 112 265 -32 134 -162 208 -270 153z"/>
<path d="M800 7892 c-76 -41 -128 -152 -114 -241 9 -56 45 -121 87 -154 42
-35 114 -46 170 -28 87 29 150 157 129 259 -23 109 -88 173 -180 180 -43 2
-66 -2 -92 -16z"/>
<path d="M1930 6775 c-193 -62 -201 -285 -13 -355 64 -24 103 -25 167 -6 149
45 204 198 108 299 -61 65 -172 91 -262 62z"/>
<path d="M4813 8403 c-61 -21 -119 -90 -134 -159 -50 -222 202 -374 367 -222
98 90 97 246 -1 337 -65 60 -145 75 -232 44z"/>
<path d="M6002 8407 c-68 -25 -119 -82 -136 -149 l-6 -28 216 0 216 0 -7 28
c-19 77 -63 127 -134 151 -43 14 -106 13 -149 -2z"/>
<path d="M1304 4081 c-50 -31 -69 -82 -69 -188 0 -50 3 -94 6 -98 4 -3 46 21
95 54 49 32 131 80 183 106 l94 48 -54 34 c-98 61 -198 79 -255 44z"/>
<path d="M3183 4085 c-46 -14 -137 -64 -130 -71 2 -2 44 -24 93 -48 49 -24
125 -67 169 -94 94 -59 100 -56 93 47 -11 153 -88 209 -225 166z"/>
<path d="M2110 4075 c-150 -21 -370 -78 -370 -96 0 -12 124 -119 187 -161 42
-29 65 -38 98 -38 48 0 63 14 136 128 99 152 221 148 325 -10 71 -109 81 -118
130 -118 32 0 55 9 97 38 59 39 205 163 206 173 1 8 -125 43 -227 64 -173 36
-406 44 -582 20z"/>
<path d="M2888 3880 c-134 -116 -195 -152 -263 -158 -74 -6 -111 18 -169 113
-104 167 -168 167 -272 0 -58 -95 -95 -119 -169 -113 -67 6 -128 42 -254 151
-49 42 -94 77 -101 77 -23 0 -229 -111 -311 -168 l-83 -58 -1 -99 c0 -80 -4
-109 -21 -146 -56 -120 -159 -182 -357 -214 -29 -5 -43 -14 -61 -43 -32 -52
-79 -145 -109 -219 l-25 -61 72 -45 c99 -63 196 -154 230 -217 57 -105 30
-196 -84 -286 -33 -26 -60 -50 -60 -53 0 -3 23 -21 50 -39 116 -79 164 -164
142 -249 -25 -90 -96 -168 -255 -275 -105 -70 -103 -57 -21 -223 67 -134 77
-145 124 -145 49 0 178 -34 230 -60 63 -32 126 -102 150 -168 18 -48 21 -73
18 -157 l-3 -100 85 -57 c85 -57 276 -158 299 -158 7 0 58 41 114 90 102 91
216 160 264 160 63 0 113 -42 181 -152 33 -53 85 -98 113 -98 34 0 83 45 133
123 65 101 93 122 161 122 68 -1 127 -35 261 -150 60 -52 115 -94 122 -95 23
0 206 97 300 160 l93 62 -8 36 c-4 21 -8 69 -7 109 2 168 131 293 334 324 41
6 85 13 97 15 14 3 33 26 57 68 30 54 106 219 106 231 0 2 -39 29 -87 60 -170
111 -263 224 -263 320 0 87 49 149 163 206 32 17 57 32 55 34 -2 2 -41 23 -86
45 -90 45 -134 91 -152 159 -28 107 69 239 273 368 48 31 87 61 87 68 0 7 -30
73 -68 146 l-67 133 -86 12 c-216 28 -333 107 -375 252 -16 54 -16 172 1 213
9 23 -160 132 -317 203 l-78 35 -102 -89z m-381 -213 c94 -49 143 -124 143
-219 0 -260 -415 -335 -534 -96 -43 87 -27 188 42 261 81 86 239 110 349 54z
m618 -21 c63 -29 141 -114 185 -201 30 -58 39 -67 110 -109 233 -135 289 -305
147 -447 -57 -57 -110 -81 -189 -87 -53 -4 -69 -8 -73 -22 -16 -51 -164 -150
-289 -194 -12 -4 -16 -12 -11 -24 29 -74 37 -143 32 -264 l-5 -127 52 -17
c128 -42 215 -104 255 -183 19 -37 22 -38 85 -44 186 -17 306 -187 235 -334
-27 -56 -116 -136 -198 -178 -62 -31 -71 -39 -118 -117 -55 -90 -143 -181
-198 -203 -45 -19 -116 -19 -163 0 -47 20 -118 88 -144 140 -13 24 -23 67 -26
106 -4 66 -5 68 -48 98 -48 33 -97 104 -133 191 -13 30 -26 59 -31 63 -4 5
-36 1 -71 -8 -49 -13 -92 -16 -184 -12 -66 2 -129 8 -141 11 -18 7 -24 -2 -52
-76 -42 -108 -88 -170 -156 -208 l-53 -30 -7 -61 c-11 -108 -52 -178 -132
-225 -133 -79 -269 -12 -378 185 -37 68 -48 79 -114 119 -142 86 -222 187
-222 282 0 124 134 247 275 253 51 2 56 5 85 44 37 50 111 100 206 139 l70 28
-13 56 c-17 72 -17 232 1 298 7 29 10 54 7 56 -3 2 -24 9 -46 16 -128 41 -233
119 -270 199 -18 41 -18 41 -74 41 -102 1 -192 59 -237 155 -26 55 -29 90 -13
150 15 56 123 159 215 208 65 33 75 43 113 107 52 87 136 174 193 200 51 23
125 26 171 6 93 -40 163 -143 173 -256 6 -61 9 -67 45 -92 50 -35 104 -120
139 -217 15 -42 32 -76 36 -76 5 0 41 7 80 14 63 12 197 12 278 -1 15 -2 23
10 41 62 48 141 102 220 178 260 44 23 44 24 51 89 11 118 75 210 173 246 56
20 102 18 158 -9z m350 -1005 c161 -75 205 -324 82 -458 -95 -103 -225 -111
-324 -20 -54 50 -80 97 -91 169 -20 137 40 266 148 312 49 21 136 20 185 -3z
m-2060 -40 c93 -43 149 -141 149 -261 0 -121 -53 -212 -149 -256 -67 -32 -127
-31 -193 2 -243 121 -168 534 98 534 33 0 71 -8 95 -19z m1111 -1103 c137 -59
201 -191 150 -313 -70 -167 -317 -215 -465 -89 -41 34 -81 116 -81 164 0 150
140 267 306 255 33 -2 74 -10 90 -17z"/>
<path d="M2298 3631 c-142 -46 -193 -196 -100 -294 81 -85 215 -97 317 -27 92
64 104 193 23 266 -56 51 -171 77 -240 55z"/>
<path d="M2975 3594 c-73 -37 -125 -122 -125 -202 0 -21 3 -24 28 -18 74 15
236 28 309 23 l82 -5 -16 32 c-74 147 -189 217 -278 170z"/>
<path d="M1604 3551 c-21 -16 -53 -44 -70 -62 -31 -33 -84 -109 -84 -119 0 -3
69 -5 153 -5 93 0 176 -5 215 -14 34 -8 65 -11 69 -7 3 3 1 31 -6 62 -14 61
-68 132 -122 160 -47 24 -111 18 -155 -15z"/>
<path d="M2920 3317 c-62 -14 -65 -21 -30 -103 53 -122 172 -249 291 -308 105
-53 101 -56 120 75 11 80 7 296 -7 333 -5 14 -27 16 -163 15 -86 0 -181 -6
-211 -12z"/>
<path d="M1479 3303 c-48 -3 -58 -7 -63 -26 -10 -38 -7 -287 5 -353 l11 -62
51 15 c78 22 183 88 252 159 66 67 143 198 132 226 -3 9 -28 21 -59 27 -59 13
-242 21 -329 14z"/>
<path d="M3368 3160 c4 -123 -6 -238 -24 -285 -8 -21 54 -20 104 1 69 28 142
120 142 176 -1 64 -90 172 -186 225 l-39 22 3 -139z"/>
<path d="M2765 3261 c-16 -10 -40 -29 -52 -42 -25 -28 -76 -134 -96 -200 l-14
-45 84 -43 c98 -51 200 -144 253 -233 40 -67 33 -66 156 -8 80 37 164 105 147
120 -4 4 -33 17 -63 29 -147 58 -308 233 -357 388 -9 29 -19 53 -22 53 -3 0
-19 -8 -36 -19z"/>
<path d="M1280 3234 c-149 -97 -184 -181 -117 -280 36 -54 92 -88 166 -98 42
-6 43 -6 37 16 -16 59 -27 222 -21 306 4 50 3 92 -2 92 -5 0 -33 -16 -63 -36z"/>
<path d="M1897 3160 c-69 -141 -221 -277 -371 -331 -36 -13 -66 -29 -66 -35 0
-6 13 -29 28 -50 31 -42 113 -92 206 -124 l55 -19 22 45 c54 112 169 230 277
282 28 15 52 30 52 35 0 24 -66 168 -95 209 -58 79 -65 78 -108 -12z"/>
<path d="M2225 2938 c-22 -6 -41 -12 -43 -13 -1 -1 11 -69 28 -151 16 -82 30
-160 30 -174 1 -45 10 -51 66 -34 49 14 94 11 145 -10 14 -6 18 11 33 122 9
70 23 155 31 188 9 39 10 62 4 69 -14 14 -245 16 -294 3z"/>
<path d="M2587 2903 c-5 -7 -36 -206 -52 -321 -5 -40 -4 -42 17 -38 13 3 75
15 138 26 127 23 220 47 220 57 0 3 -14 28 -31 54 -42 66 -143 158 -216 197
-66 35 -69 36 -76 25z"/>
<path d="M2051 2863 c-75 -45 -175 -148 -214 -221 -16 -30 -27 -55 -25 -57 5
-5 252 -50 325 -60 l53 -7 -5 29 c-23 142 -56 314 -62 331 -8 22 -9 21 -72
-15z"/>
<path d="M2885 2549 c-31 -9 -242 -53 -307 -64 l-37 -6 15 -34 c16 -40 18
-112 4 -151 -6 -15 -9 -29 -6 -31 2 -2 53 -11 113 -19 61 -7 152 -23 204 -33
52 -11 95 -18 97 -16 2 1 6 35 11 74 13 123 -15 292 -48 290 -9 0 -29 -5 -46
-10z"/>
<path d="M1776 2503 c-31 -111 -17 -363 19 -350 27 11 244 56 322 68 l82 12
-20 39 c-22 43 -28 105 -16 154 l8 32 -58 7 c-32 3 -114 17 -183 31 -149 29
-147 29 -154 7z"/>
<path d="M2325 2513 c-28 -8 -65 -34 -65 -47 0 -6 -9 -17 -19 -23 -31 -20 -37
-85 -11 -138 70 -144 280 -95 280 65 0 96 -92 166 -185 143z"/>
<path d="M2450 2178 c-37 -19 -114 -24 -152 -9 -24 9 -24 8 -36 -87 -7 -54
-23 -149 -36 -212 -13 -63 -21 -118 -17 -122 12 -14 156 -29 211 -23 57 7 160
32 160 40 0 2 -11 48 -25 102 -13 54 -32 147 -41 208 -10 60 -20 113 -23 116
-3 3 -22 -3 -41 -13z"/>
<path d="M2560 2178 c0 -47 67 -368 80 -381 11 -12 106 50 161 106 52 52 109
133 132 189 18 43 26 36 -75 58 -66 14 -243 40 -273 40 -14 0 -25 -6 -25 -12z"/>
<path d="M2070 2150 c-179 -32 -255 -53 -254 -71 2 -27 73 -127 128 -181 43
-43 169 -128 189 -128 12 0 44 158 71 358 7 50 16 48 -134 22z"/>
<path d="M2990 2075 c-18 -56 -105 -178 -162 -229 -28 -26 -77 -63 -109 -83
-67 -41 -67 -36 -15 -143 30 -62 93 -140 113 -140 5 0 15 18 22 40 17 58 105
183 166 237 69 61 165 119 232 140 29 9 53 22 53 28 0 7 -13 30 -30 53 -21 30
-51 51 -112 81 -46 23 -97 44 -114 47 -30 6 -33 3 -44 -31z"/>
<path d="M1675 2048 c-66 -28 -155 -87 -173 -115 -13 -21 -12 -23 14 -33 87
-32 145 -71 225 -150 70 -70 94 -102 132 -179 26 -51 47 -102 47 -112 0 -24
15 -24 56 2 43 26 84 86 118 169 32 78 32 86 2 94 -43 11 -174 105 -224 162
-27 30 -66 84 -87 119 -21 36 -43 65 -49 65 -6 -1 -33 -10 -61 -22z"/>
<path d="M1330 1861 c-98 -20 -180 -107 -180 -191 0 -70 53 -139 165 -213 22
-15 43 -27 46 -27 4 0 5 53 2 118 -5 103 5 207 28 301 5 18 -14 21 -61 12z"/>
<path d="M3383 1849 c17 -63 29 -201 25 -294 l-3 -103 30 15 c109 56 185 145
185 218 0 87 -86 170 -191 182 -51 6 -52 6 -46 -18z"/>
<path d="M3236 1835 c-124 -51 -265 -178 -319 -288 -43 -88 -41 -99 18 -115
54 -15 304 -21 366 -9 l36 7 6 89 c5 85 -5 260 -19 315 -8 32 -13 32 -88 1z"/>
<path d="M1457 1843 c-27 -46 -41 -366 -18 -426 l11 -27 146 0 c147 0 274 14
274 31 0 27 -49 130 -92 195 -58 87 -146 165 -233 206 -62 29 -81 33 -88 21z"/>
<path d="M2872 1332 c12 -121 135 -220 232 -187 68 24 118 72 189 185 l18 28
-123 -5 c-110 -5 -217 4 -297 24 -23 6 -24 5 -19 -45z"/>
<path d="M1820 1338 c-19 -5 -108 -10 -197 -11 l-162 -2 26 -45 c63 -109 136
-170 201 -170 97 0 192 105 192 213 0 29 -5 30 -60 15z"/>
<path d="M3284 2572 c-118 -86 -118 -281 -1 -376 34 -27 46 -31 102 -31 56 0
68 4 101 31 58 47 79 95 79 184 0 64 -4 82 -28 122 -39 67 -78 92 -152 96 -54
3 -64 1 -101 -26z"/>
<path d="M1284 2560 c-47 -11 -91 -46 -121 -98 -24 -39 -28 -58 -28 -117 1
-78 22 -130 72 -177 104 -99 259 -37 294 118 35 156 -83 304 -217 274z"/>
<path d="M2338 1446 c-150 -56 -194 -201 -90 -301 35 -35 110 -65 162 -65 56
0 131 31 170 70 118 118 33 293 -149 306 -33 3 -71 -1 -93 -10z"/>
<path d="M3436 3684 c-11 -30 -6 -120 10 -167 19 -56 78 -117 141 -147 51 -24
190 -56 200 -46 11 10 -109 158 -210 258 -110 110 -132 126 -141 102z"/>
<path d="M1100 3570 c-117 -117 -209 -232 -190 -238 25 -9 141 31 185 62 83
60 119 134 113 231 l-3 50 -105 -105z"/>
<path d="M695 3231 c-178 -52 -204 -109 -100 -211 l45 -44 12 35 c6 19 35 80
63 137 28 56 49 102 46 101 -4 0 -33 -8 -66 -18z"/>
<path d="M3983 3120 l52 -110 38 41 c60 67 48 105 -46 150 -101 48 -103 44
-44 -81z"/>
<path d="M3905 2843 c-174 -116 -252 -217 -226 -295 17 -52 68 -94 166 -137
l89 -40 39 22 c48 26 94 81 106 122 10 39 -2 132 -33 255 -41 158 -26 150
-141 73z"/>
<path d="M651 2813 c-11 -38 -27 -107 -36 -154 -16 -79 -16 -88 -1 -117 18
-36 82 -100 138 -138 l37 -26 49 36 c68 49 119 108 127 144 15 71 -63 173
-207 270 -42 29 -79 52 -82 52 -3 0 -14 -30 -25 -67z"/>
<path d="M585 2395 c-3 -36 -4 -93 0 -127 l6 -63 72 68 72 69 -30 21 c-17 12
-49 39 -71 60 l-42 37 -7 -65z"/>
<path d="M727 2253 c-86 -72 -122 -127 -121 -183 2 -48 49 -255 63 -279 7 -10
27 -1 94 43 144 97 227 191 227 261 0 34 -21 74 -57 106 -28 27 -133 99 -143
99 -3 0 -31 -21 -63 -47z"/>
<path d="M3854 2262 c-83 -44 -102 -57 -132 -96 -46 -59 -19 -150 69 -233 35
-32 207 -153 219 -153 13 0 71 259 73 322 1 50 -3 71 -21 100 -22 35 -104 99
-126 98 -6 -1 -43 -18 -82 -38z"/>
<path d="M4035 1660 c-6 -19 -77 -173 -103 -222 -5 -10 95 20 131 39 81 41 87
88 23 159 -43 48 -43 48 -51 24z"/>
<path d="M600 1640 c-15 -16 -33 -43 -40 -60 -10 -25 -10 -34 4 -55 19 -29 69
-56 143 -78 l52 -16 -33 62 c-19 34 -44 88 -57 120 -12 31 -27 57 -32 57 -5 0
-21 -13 -37 -30z"/>
<path d="M890 1346 c0 -33 302 -366 331 -366 7 0 10 31 7 89 -3 80 -6 94 -33
132 -42 58 -91 95 -158 119 -63 22 -147 37 -147 26z"/>
<path d="M3693 1335 c-106 -29 -181 -84 -217 -160 -22 -46 -31 -141 -18 -175
10 -24 14 -22 134 100 68 69 142 154 166 188 l43 62 -28 -1 c-15 0 -52 -7 -80
-14z"/>
<path d="M1967 866 c-71 -43 -229 -178 -219 -187 11 -11 129 -45 232 -67 206
-45 421 -50 640 -16 108 16 320 72 320 84 0 8 -108 105 -177 158 -46 36 -102
62 -132 62 -28 0 -78 -46 -102 -93 -32 -61 -106 -135 -147 -147 -44 -12 -97 1
-137 32 -15 12 -52 59 -81 104 -76 118 -102 127 -197 70z"/>
<path d="M1256 812 c-7 -56 7 -145 29 -179 46 -69 134 -76 250 -19 41 20 75
40 74 44 0 4 -41 27 -90 51 -50 24 -127 68 -171 98 -45 29 -82 53 -84 53 -1 0
-4 -22 -8 -48z"/>
<path d="M3350 814 c-36 -25 -111 -68 -167 -97 -57 -29 -103 -55 -103 -59 0
-14 86 -57 142 -72 32 -8 74 -12 93 -9 45 7 91 52 105 101 11 43 14 182 3 182
-5 0 -37 -21 -73 -46z"/>
</g>
</svg>
